<svg width="95" height="128" viewBox="0 0 95 128" fill="none" xmlns="http://www.w3.org/2000/svg">
<g opacity="0.2">
<path opacity="0.0476" d="M92.2234 85.589L88.2699 82.4791C88.1808 82.4347 81.3095 77.0811 81.2427 77.1256L75.24 72.6828C73.9704 71.9497 72.2331 71.6276 70.6183 71.6276C69.2151 71.6276 67.823 72.0053 66.8096 72.5828L40.9615 87.355L35.0814 90.7204L3.36431 108.836C2.47338 109.347 1.7495 110.124 1.4154 110.935C1.23721 111.357 1.13698 111.812 1.12585 112.279C1.09244 113.812 2.05018 115.256 3.73181 116.233L8.18646 118.343C8.27555 118.388 16.06 121.964 16.138 121.92L26.7623 126.507C28.0319 127.24 29.7692 127.562 31.384 127.562C32.7872 127.562 34.1793 127.184 35.1928 126.607L56.4191 114.178L63.8918 109.802L92.5909 92.9973C93.5263 92.4531 94.2725 91.6312 94.5955 90.7648C94.7402 90.3761 94.8293 89.9763 94.8293 89.5542C94.8627 88.0103 93.9161 86.5664 92.2234 85.589Z" fill="#ABB2E2"/>
<path opacity="0.0952" d="M92.155 85.7112L88.2572 82.6457C88.079 82.5457 81.4193 77.4588 81.2634 77.5476L75.3276 73.4603C74.1248 72.7605 72.3207 72.5495 70.7838 72.5495C69.4474 72.5495 67.9997 72.9716 67.0419 73.5269L41.5836 88.0881L35.7926 91.3979L4.50981 109.28C3.66343 109.769 2.895 110.557 2.57204 111.335C2.39386 111.746 2.27135 112.19 2.26022 112.645C2.20453 114.145 3.11774 115.578 4.79937 116.544L9.17605 118.643C9.35424 118.743 16.8826 122.142 17.0274 122.053L27.4958 126.196C28.6985 126.896 30.5027 127.107 32.0395 127.107C33.3759 127.107 34.8237 126.674 35.7814 126.129L56.7294 113.878L64.1018 109.558L92.4223 92.9862C93.3132 92.4753 94.1039 91.6312 94.4157 90.8093C94.5605 90.4316 94.6607 90.0429 94.683 89.6319C94.7498 88.1103 93.8366 86.6775 92.155 85.7112Z" fill="#A7ADDF"/>
<path opacity="0.1429" d="M92.0901 85.8223L88.2368 82.8123C87.9807 82.6679 81.5214 77.8475 81.2987 77.9697L75.4297 74.2377C74.2826 73.5824 72.4228 73.4603 70.9751 73.4603C69.7055 73.4603 68.2132 73.9379 67.3 74.4599L42.1869 88.8322L36.4738 92.0977L5.65882 109.724C4.85699 110.191 4.05515 110.991 3.72105 111.724C3.54287 112.135 3.40923 112.557 3.38695 113.001C3.29786 114.478 4.18879 115.889 5.85928 116.844L10.158 118.943C10.4142 119.087 17.6975 122.32 17.9202 122.186L28.2216 125.885C29.3687 126.54 31.2396 126.651 32.6874 126.651C33.957 126.651 35.4604 126.174 36.3625 125.652L57.0209 113.567L64.3042 109.313L92.2571 92.964C93.1035 92.4753 93.9388 91.6201 94.2506 90.8426C94.3954 90.4761 94.5179 90.0873 94.5401 89.6875C94.6515 88.2103 93.7606 86.7886 92.0901 85.8223Z" fill="#A3A9DC"/>
<path opacity="0.1905" d="M92.0217 85.9444L88.2242 82.99C87.8789 82.7901 81.6201 78.2251 81.3195 78.4028L75.5061 75.0375C74.4259 74.4155 72.4993 74.4044 71.1294 74.4044C69.9378 74.4044 68.3787 74.9375 67.5323 75.4262L42.7979 89.5653L37.1739 92.7863L6.80436 110.158C6.04707 110.591 5.20069 111.413 4.87773 112.101C4.6884 112.501 4.55476 112.912 4.52135 113.345C4.40999 114.789 5.26751 116.189 6.91573 117.133L11.1476 119.232C11.4929 119.432 18.5201 122.486 18.8208 122.308L28.9662 125.563C30.0465 126.185 31.9842 126.196 33.3541 126.196C34.5457 126.196 36.1048 125.663 36.9623 125.163L57.3423 113.245L64.5254 109.047L92.0997 92.9307C92.9015 92.4753 93.7813 91.5979 94.0931 90.8648C94.2491 90.4983 94.3716 90.1318 94.405 89.743C94.5386 88.2991 93.67 86.8996 92.0217 85.9444Z" fill="#9FA4D8"/>
<path opacity="0.2381" d="M91.9552 86.0666L88.2021 83.1677C87.7678 82.9234 81.7206 78.6139 81.342 78.836L75.5955 75.8261C74.582 75.2374 72.5886 75.3263 71.2967 75.3263C70.1719 75.3263 68.5683 75.9038 67.7664 76.3703L43.3995 90.3095L37.8646 93.4861L7.94053 110.602C7.22779 111.013 6.33686 111.846 6.02504 112.49C5.83571 112.879 5.6798 113.279 5.63525 113.701C5.49048 115.111 6.32572 116.5 7.96281 117.433L12.1168 119.532C12.5511 119.776 19.3333 122.664 19.7008 122.442L29.6903 125.252C30.7038 125.841 32.7084 125.741 34.0002 125.741C35.125 125.741 36.7398 125.152 37.5417 124.685L57.6432 112.945L64.7261 108.802L91.9217 92.9085C92.679 92.4753 93.6034 91.5868 93.9041 90.8981C94.06 90.5427 94.1936 90.1873 94.2382 89.8097C94.4275 88.3991 93.5922 87.0107 91.9552 86.0666Z" fill="#9BA0D5"/>
<path opacity="0.2857" d="M91.8894 86.1776L88.1809 83.3232C87.6574 83.0233 81.8218 78.9804 81.3652 79.2469L75.6856 76.5924C74.7278 76.0481 72.6898 76.2369 71.4759 76.2369C70.418 76.2369 68.7697 76.87 68.0125 77.3032L44.013 91.0536L38.5561 94.1746L9.08862 111.046C8.42042 111.435 7.47381 112.29 7.18426 112.879C6.99494 113.256 6.82789 113.645 6.7722 114.056C6.59402 115.433 7.40699 116.799 9.03294 117.732L13.1089 119.82C13.6324 120.12 20.1584 122.83 20.6039 122.564L30.4264 124.93C31.3841 125.474 33.4444 125.274 34.6583 125.274C35.7163 125.274 37.3868 124.63 38.144 124.197L57.9672 112.623L64.9499 108.547L91.778 92.8862C92.4796 92.4753 93.4708 91.5645 93.7603 90.9314C93.9162 90.5871 94.0721 90.2428 94.1278 89.8651C94.3283 88.499 93.5153 87.1217 91.8894 86.1776Z" fill="#979BD2"/>
<path opacity="0.3333" d="M91.8223 86.2999L88.1694 83.5009C87.5681 83.1566 81.9218 79.3692 81.3984 79.6802L75.7744 77.381C74.8835 76.8701 72.7786 77.1589 71.6427 77.1589C70.6627 77.1589 68.9476 77.8475 68.246 78.2474L44.6141 91.7978L39.2463 94.8744L10.2354 111.49C9.61176 111.857 8.62061 112.723 8.34219 113.267C8.15287 113.645 7.96355 114.012 7.90786 114.411C7.7074 115.755 8.48697 117.11 10.1018 118.032L14.111 120.12C14.7123 120.465 20.9934 123.008 21.5168 122.697L31.1834 124.619C32.0743 125.13 34.2014 124.83 35.3373 124.83C36.3174 124.83 38.0435 124.13 38.7563 123.73L58.301 112.323L65.1946 108.303L91.6441 92.8641C92.3011 92.4864 93.3368 91.5535 93.6153 90.9759C93.7823 90.6316 93.9382 90.2984 94.005 89.9429C94.2166 88.599 93.4371 87.2329 91.8223 86.2999Z" fill="#9397CF"/>
<path opacity="0.381" d="M91.7429 86.422L88.1347 83.6786C87.4442 83.2788 82.0095 79.7579 81.4082 80.1133L75.851 78.1807C75.0269 77.7031 72.8553 78.103 71.7973 78.103C70.8841 78.103 69.1245 78.8471 68.4674 79.2137L45.2142 92.542L39.9243 95.5741L11.37 111.946C10.7909 112.279 9.75518 113.167 9.47676 113.667C9.2763 114.034 9.08698 114.389 9.02016 114.778C8.78629 116.089 9.54358 117.433 11.1361 118.354L15.0673 120.443C15.7578 120.842 21.7827 123.208 22.3841 122.864L31.8948 124.341C32.7189 124.819 34.9239 124.408 35.9708 124.408C36.884 124.408 38.6658 123.652 39.3229 123.275L58.5892 112.035L65.3826 108.069L91.4645 92.8529C92.077 92.4975 93.1684 91.5534 93.4357 91.0203C93.6028 90.6871 93.7809 90.365 93.8478 90.0207C94.1039 88.699 93.3577 87.3439 91.7429 86.422Z" fill="#8F92CC"/>
<path opacity="0.4286" d="M91.6774 86.5331L88.1248 83.8452C87.3452 83.401 82.1222 80.1466 81.4428 80.5354L75.9525 78.9582C75.184 78.5139 72.9567 79.0137 71.9878 79.0137C71.1415 79.0137 69.3262 79.8023 68.7248 80.1577L45.8279 93.275L40.6271 96.2517L12.5183 112.368C11.9838 112.679 10.8924 113.578 10.6362 114.045C10.4358 114.411 10.2353 114.745 10.1573 115.122C9.89007 116.4 10.6251 117.732 12.2065 118.643L16.0598 120.731C16.8393 121.176 22.6081 123.375 23.2874 122.986L32.631 124.019C33.3995 124.463 35.6602 123.941 36.6291 123.941C37.4755 123.941 39.313 123.142 39.9144 122.786L58.9023 111.724L65.5954 107.825L91.2987 92.8418C91.8667 92.5197 93.0026 91.5534 93.2699 91.0647C93.437 90.7315 93.6263 90.4316 93.7042 90.0873C94.0049 88.7878 93.281 87.455 91.6774 86.5331Z" fill="#8B8EC9"/>
<path opacity="0.4762" d="M91.6077 86.6553L88.0996 84.0229C87.231 83.5231 82.2195 80.5354 81.4622 80.9685L76.0387 79.7468C75.3371 79.3469 73.0429 79.9467 72.152 79.9467C71.3836 79.9467 69.5126 80.7908 68.9558 81.1129L46.4375 94.0191L41.3258 96.9514L13.6736 112.812C13.1836 113.101 12.0477 114.012 11.8027 114.434C11.6022 114.789 11.3795 115.111 11.2904 115.478C11.0008 116.733 11.7024 118.032 13.2727 118.943L17.0592 121.02C17.9278 121.52 23.4516 123.53 24.1977 123.108L33.3854 123.697C34.087 124.097 36.4146 123.475 37.3055 123.475C38.0739 123.475 39.9672 122.619 40.524 122.297L59.2335 111.401L65.8264 107.558L91.1511 92.8085C91.6633 92.5086 92.8661 91.5312 93.1111 91.0869C93.2893 90.7648 93.4897 90.476 93.5788 90.1428C93.8907 88.8878 93.1891 87.566 91.6077 86.6553Z" fill="#8789C6"/>
<path opacity="0.5238" d="M91.5441 86.7664L88.0917 84.1896C87.134 83.6454 82.323 80.913 81.4988 81.3795L76.131 80.5243C75.4962 80.1578 73.1352 80.8575 72.3223 80.8575C71.6207 80.8575 69.694 81.7572 69.1929 82.046L47.0422 94.7634L42.0084 97.6512L14.8128 113.256C14.3673 113.512 13.1757 114.445 12.953 114.822C12.7414 115.167 12.5186 115.478 12.4184 115.833C12.0955 117.055 12.7748 118.343 14.3339 119.243L18.0424 121.32C19.0002 121.864 24.2678 123.708 25.0919 123.242L34.1237 123.386C34.7585 123.752 37.1528 123.03 37.9658 123.03C38.6674 123.03 40.6163 122.12 41.1175 121.831L59.5374 111.102L66.0301 107.314L90.9761 92.7975C91.4438 92.5309 92.7023 91.5313 92.9361 91.1314C93.1143 90.8093 93.3259 90.5427 93.4261 90.2206C93.7937 88.9878 93.1143 87.6772 91.5441 86.7664Z" fill="#8385C2"/>
<path opacity="0.5714" d="M91.474 86.8885L88.0662 84.3561C87.0305 83.7564 82.4199 81.2906 81.5179 81.8015L76.2168 81.3017C75.6489 80.9685 73.2211 81.7793 72.4972 81.7793C71.8624 81.7793 69.8912 82.7234 69.4346 82.99L47.6514 95.4964L42.7068 98.3397L15.9566 113.701C15.5557 113.934 14.2527 114.845 14.0968 115.211C13.8295 115.511 13.6402 115.844 13.54 116.189C13.1836 117.377 13.8407 118.654 15.3887 119.543L19.0192 121.62C20.0549 122.22 25.0775 123.886 25.9796 123.375L34.8443 123.075C35.4123 123.408 37.8846 122.575 38.6085 122.575C39.2433 122.575 41.2479 121.609 41.7045 121.353L59.846 110.802L66.2496 107.081L90.8281 92.7863C91.2513 92.5419 92.6433 91.5645 92.777 91.1758C93.022 90.8981 93.189 90.5982 93.2893 90.2872C93.679 89.0877 93.0331 87.7882 91.474 86.8885Z" fill="#7F80BF"/>
<path opacity="0.619" d="M91.4098 87.0106L88.0466 84.5338C86.9218 83.8896 82.5228 81.6793 81.5428 82.2347L76.3086 82.0903C75.7963 81.8015 73.3128 82.7012 72.6669 82.7012C72.1101 82.7012 70.0721 83.7008 69.6712 83.934L48.2555 96.2405L43.3999 99.0283L17.1063 114.134C16.75 114.345 15.3913 115.267 15.2577 115.589C14.9792 115.878 14.7899 116.2 14.6786 116.533C14.2888 117.688 14.9236 118.954 16.4493 119.832L20.013 121.909C21.1378 122.553 25.9043 124.052 26.8843 123.497L35.5931 122.753C36.1054 123.041 38.6334 122.109 39.2793 122.109C39.8362 122.109 41.9076 121.087 42.3085 120.853L60.1716 110.468L66.475 106.803L90.6748 92.7418C91.0535 92.5197 92.5012 91.5423 92.6237 91.1868C92.8687 90.9203 93.0469 90.6315 93.1583 90.3316C93.5815 89.1876 92.9578 87.8992 91.4098 87.0106Z" fill="#7B7CBC"/>
<path opacity="0.6667" d="M91.3419 87.1218L88.0344 84.7005C86.8205 84.0007 82.622 82.057 81.5751 82.6568L76.3966 82.8789C75.9511 82.6235 73.4009 83.6342 72.8329 83.6342C72.3429 83.6342 70.2603 84.6894 69.904 84.8893L48.8669 96.9847L44.0893 99.7281L18.2523 114.589C17.9405 114.767 16.5262 115.7 16.4148 115.989C16.1253 116.266 15.9248 116.577 15.8023 116.899C15.3902 118.021 15.9916 119.276 17.5062 120.143L20.992 122.209C22.2058 122.908 26.7162 124.23 27.7742 123.63L36.3271 122.442C36.7725 122.697 39.3674 121.664 39.9353 121.664C40.4253 121.664 42.5413 120.598 42.8977 120.387L60.4824 110.169L66.6855 106.57L90.5067 92.7308C90.8408 92.542 92.3443 91.5423 92.4445 91.2313C92.7006 90.9759 92.8899 90.6982 93.0013 90.4094C93.469 89.2765 92.8788 88.0103 91.3419 87.1218Z" fill="#7777B9"/>
<path opacity="0.7143" d="M91.2756 87.2439L88.0126 84.8781C86.7096 84.134 82.7227 82.4457 81.5979 83.0899L76.4862 83.6675C76.1075 83.4454 73.4904 84.556 73.0115 84.556C72.5884 84.556 70.4501 85.6556 70.1494 85.8333L49.4687 97.7289L44.7802 100.428L19.3887 115.033C19.1215 115.189 17.6626 116.133 17.5623 116.388C17.2728 116.655 17.0612 116.955 16.9276 117.266C16.4821 118.354 17.0612 119.587 18.5646 120.454L21.9836 122.519C23.2866 123.264 27.5519 124.419 28.6767 123.775L37.0737 122.142C37.4523 122.364 40.114 121.22 40.604 121.22C41.0272 121.22 43.1988 120.098 43.4995 119.92L60.8058 109.88L66.9087 106.337L90.3624 92.7307C90.6408 92.5641 92.2111 91.5534 92.3002 91.2868C92.5674 91.0425 92.7568 90.7759 92.8904 90.4871C93.3693 89.3765 92.8013 88.1214 91.2756 87.2439Z" fill="#7373B6"/>
<path opacity="0.7619" d="M91.198 87.355L87.9795 85.0337C86.5874 84.234 82.8121 82.8123 81.6093 83.5009L76.5644 84.4339C76.2415 84.2562 73.5687 85.4668 73.1678 85.4668C72.8114 85.4668 70.6286 86.622 70.3725 86.7664L50.0816 98.4731L45.4822 101.128L20.5473 115.478C20.3245 115.611 18.81 116.566 18.7209 116.777C18.4202 117.033 18.1974 117.321 18.0638 117.621C17.5849 118.677 18.1418 119.898 19.6341 120.754L22.9751 122.819C24.3671 123.619 28.3763 124.597 29.5791 123.908L37.809 121.831C38.132 122.009 40.8605 120.765 41.2614 120.765C41.6177 120.765 43.8451 119.587 44.0901 119.443L61.118 109.569L67.1317 106.081L90.2068 92.6975C90.4407 92.5642 92.0666 91.5312 92.1446 91.3091C92.423 91.0758 92.6234 90.8204 92.7571 90.5427C93.2582 89.4764 92.7125 88.2325 91.198 87.355Z" fill="#6F6EB3"/>
<path opacity="0.8095" d="M91.1334 87.4771L87.9706 85.2113C86.5006 84.3672 82.9146 83.201 81.645 83.934L76.6558 85.2335C76.3997 85.0892 73.6601 86.3998 73.3371 86.3998C73.0587 86.3998 70.8202 87.6104 70.6086 87.7215L50.6741 99.206L46.1526 101.805L21.6743 115.9C21.4962 116 19.9259 116.977 19.8591 117.144C19.5473 117.388 19.3245 117.666 19.1797 117.955C18.6675 118.976 19.202 120.187 20.6832 121.042L23.9462 123.108C25.4163 123.952 29.1804 124.763 30.4611 124.03L38.5352 121.509C38.7913 121.653 41.5866 120.309 41.9096 120.309C42.188 120.309 44.471 119.076 44.6715 118.965L61.4209 109.258L67.3345 105.837L90.0309 92.6863C90.2202 92.5752 91.9018 91.5312 91.9575 91.3535C92.2359 91.1313 92.4475 90.8759 92.5923 90.6204C93.1603 89.5763 92.6369 88.3435 91.1334 87.4771Z" fill="#6B6AB0"/>
<path opacity="0.8571" d="M91.0633 87.5993L87.945 85.3891C86.3859 84.4894 83.0115 83.5897 81.664 84.3672L76.7416 86.0222C76.5523 85.9111 73.7459 87.3328 73.512 87.3328C73.3004 87.3328 71.0063 88.5879 70.8615 88.6767L51.2944 99.9502L46.8621 102.505L22.8293 116.355C22.6956 116.433 21.0697 117.421 21.0251 117.544C20.7022 117.777 20.4683 118.043 20.3235 118.321C19.789 119.321 20.2901 120.509 21.749 121.353L24.9452 123.408C26.5043 124.308 30.0124 124.941 31.371 124.163L39.2892 121.198C39.4785 121.309 42.3406 119.854 42.5856 119.854C42.7972 119.854 45.1359 118.565 45.2807 118.477L61.7517 108.947L67.565 105.581L89.8717 92.653C90.0165 92.5752 91.7538 91.509 91.7983 91.3757C92.0879 91.1647 92.3106 90.9203 92.4554 90.6649C93.0456 89.6763 92.5556 88.4546 91.0633 87.5993Z" fill="#6765AC"/>
<path opacity="0.9048" d="M90.9976 87.7105L87.9351 85.5557C86.2869 84.6116 83.1241 83.9674 81.6986 84.7893L76.843 86.7997C76.7205 86.722 73.8473 88.2436 73.6913 88.2436C73.5466 88.2436 71.2079 89.5542 71.1077 89.6097L51.897 100.694L47.5537 103.205L23.9775 116.799C23.8884 116.855 22.2179 117.855 22.1845 117.932C21.8615 118.155 21.6165 118.41 21.4495 118.677C20.8815 119.643 21.3604 120.82 22.8082 121.653L25.9264 123.708C27.5746 124.652 30.8265 125.119 32.252 124.297L40.0031 120.887C40.1256 120.965 43.0545 119.399 43.2216 119.399C43.3664 119.399 45.7607 118.055 45.861 117.999L62.0536 108.636L67.7667 105.326L89.7169 92.6308C89.806 92.5753 91.6102 91.4979 91.6324 91.4202C91.9331 91.2202 92.1559 90.987 92.3229 90.7427C92.9466 89.7763 92.4788 88.5657 90.9976 87.7105Z" fill="#6361A9"/>
<path opacity="0.9524" d="M90.9331 87.8326L87.9151 85.7334C86.1778 84.7338 83.2266 84.3562 81.7231 85.2225L76.9232 87.5994C76.8564 87.5661 73.9275 89.1877 73.8495 89.1877C73.7827 89.1877 71.3772 90.5538 71.3327 90.5761L52.5118 101.439L48.2465 103.893L25.1157 117.233C25.0712 117.255 23.345 118.277 23.3338 118.31C22.9997 118.521 22.7436 118.765 22.5766 119.021C21.9752 119.954 22.4318 121.109 23.8684 121.942L26.9087 123.997C28.646 124.996 31.6529 125.285 33.1452 124.419L40.7404 120.565C40.8072 120.598 43.7918 118.943 43.8809 118.943C43.9477 118.943 46.3978 117.555 46.4535 117.521L62.3677 108.336L67.9805 105.093L89.5522 92.6197C89.5967 92.5975 91.4565 91.509 91.4677 91.4646C91.7795 91.2758 92.0134 91.0536 92.1804 90.8204C92.8486 89.8763 92.4031 88.6768 90.9331 87.8326Z" fill="#5F5CA6"/>
<path d="M34.0432 124.552L62.6754 108.025L91.3076 91.4979C92.889 90.5871 92.6886 88.9989 90.8622 87.9548L87.8887 85.9C86.0734 84.856 83.3116 84.7338 81.7413 85.6446L53.109 102.172L24.4768 118.699C22.8954 119.61 23.0959 121.198 24.9223 122.242L27.8958 124.297C29.711 125.352 32.4729 125.463 34.0432 124.552Z" fill="#5B58A3"/>
</g>
<path d="M20.3223 119.176V97.2735C20.3223 90.1539 24.6321 81.7016 30.4232 76.7812C33.6639 74.0267 36.6597 70.7168 39.2656 67.0627L66.3499 51.4685C68.9559 52.1127 71.9627 51.9684 75.1924 50.9909C77.6758 50.2357 79.892 50.4578 81.6071 51.5019C83.8901 52.9013 92.9887 56.6999 92.9887 60.7761L85.3044 81.7571C85.3044 84.1451 83.6116 87.0662 81.518 88.2658L31.9823 127.207C31.1582 127.684 22.5162 121.942 21.8925 121.786C20.9348 121.553 20.3223 120.62 20.3223 119.176Z" fill="url(#paint0_linear_469_21980)"/>
<path d="M34.3544 48.9695C33.2184 48.6029 32.4277 47.4145 32.2161 45.6374C31.7818 42.0387 32.7618 40.195 34.4212 38.6511C34.9112 26.6779 39.0095 14.3825 52.8189 6.42997C66.6283 -1.52258 70.7266 6.06344 71.2166 17.4702C72.8759 17.1037 73.945 18.4921 73.4216 21.9241C72.965 24.8786 71.6286 27.8663 69.624 29.6212C68.2431 34.1528 66.1271 38.8066 63.7216 42.9495C61.8952 46.1039 61.8173 49.4804 63.6771 50.4689C64.4901 50.9021 65.3476 51.2242 66.2608 51.4574C60.3695 61.5869 55.5919 72.3273 48.509 72.4606C46.6603 72.4939 40.9138 67.8179 39.377 66.9405C40.2234 65.752 41.0363 64.5191 41.7936 63.2641C43.6869 60.1208 43.7648 56.5555 41.9273 55.5003C39.7668 54.2564 38.0851 52.4792 36.7153 49.9691L34.3544 48.9695Z" fill="url(#paint1_linear_469_21980)"/>
<path d="M52.807 101.472L40.9799 80.5688L31.8145 74.7932L39.2648 66.2742L48.3301 72.0275L52.807 97.9955L65.4248 53.9233L66.3491 50.68L73.8106 50.6134L82.5083 55.978L52.807 101.472Z" fill="#5277F7"/>
<path d="M71.2055 17.4703C68.7109 18.9031 67.8423 23.1237 67.8423 23.1237C67.8423 23.1237 67.7309 19.4695 67.7309 16.815C67.7309 14.1604 66.6729 3.94205 58.9107 12.2056C51.026 20.5913 43.442 43.0606 43.4308 43.9492C43.4197 44.349 34.4102 38.6512 34.4102 38.6512C34.4102 38.6512 34.4102 33.4753 34.4102 26.9778C34.4102 20.4803 41.2926 4.24194 56.8282 1.06536C63.3876 -0.278579 66.9736 -0.445183 68.9114 1.10979C69.2344 1.36524 77.7205 6.37446 77.9543 6.71878C79.6248 9.18451 71.2055 9.35112 71.2055 17.4703Z" fill="url(#paint2_linear_469_21980)"/>
<path d="M39.3431 82.1903C42.6173 79.4025 45.6576 76.0482 48.2858 72.3496C55.7139 76.5702 67.7526 69.6395 75.1807 56.8666C77.809 57.533 80.8493 57.3997 84.1234 56.4112C89.9145 54.6674 94.2244 58.155 94.2244 65.2745V87.1773C94.2244 89.5653 92.5316 92.4864 90.4379 93.686L33.0287 126.74C30.935 127.94 29.2422 126.985 29.2422 124.585V102.683C29.2311 95.5631 33.5409 87.1107 39.3431 82.1903Z" fill="white"/>
<path d="M28.8848 124.119V102.216C28.8848 95.0964 33.1946 86.6441 38.9857 81.7237C42.2264 78.9692 45.2222 75.6593 47.8281 72.0052L61.3703 103.027L74.9124 56.4111C77.5184 57.0553 80.5252 56.9109 83.7549 55.9335C89.5459 54.1897 93.8558 57.6772 93.8558 64.7968V86.6996C93.8558 89.0876 92.163 92.0087 90.0693 93.2083L32.6601 126.262C30.5775 127.473 28.8848 126.507 28.8848 124.119Z" fill="white"/>
<path d="M29.2324 124.585V102.683C29.2324 95.5631 33.5423 87.1107 39.3333 82.1903C42.5741 79.4358 45.5698 76.126 48.1758 72.4718L61.7179 103.493L75.2601 56.8777C77.866 57.5219 80.8729 57.3775 84.1025 56.4001C89.8936 54.6563 94.2034 58.1439 94.2034 65.2634V87.1662C94.2034 89.5542 92.5107 92.4753 90.417 93.6749L33.0077 126.729C30.9363 127.94 29.2324 126.973 29.2324 124.585Z" fill="url(#paint3_linear_469_21980)"/>
<path d="M61.7302 106.881L40.7266 80.2022L48.1881 71.6721L49.1124 73.8491L61.7302 103.405L74.348 59.3212L75.2723 56.078L82.7339 56.0225L61.7302 106.881Z" fill="#66CCFF"/>
<path d="M47.817 72.3495C48.6634 71.1611 49.4764 69.9282 50.2337 68.6732C52.1269 65.5299 52.2049 61.9646 50.3673 60.9094C47.9618 59.5322 45.8458 57.3219 44.4649 54.3785C42.4603 54.9339 40.9791 53.59 40.6673 51.0576C40.233 47.4589 41.213 45.6152 42.8724 44.0713C43.3624 32.0981 47.4607 19.7916 61.2701 11.8502C75.0795 3.90871 79.1777 11.4836 79.6677 22.8904C81.3271 22.5239 82.3962 23.9123 81.8728 27.3443C81.4162 30.2988 80.0798 33.2865 78.0752 35.0414C76.6943 39.573 74.5783 44.2268 72.1728 48.3697C70.3464 51.5241 70.2684 54.9006 72.1283 55.8891C72.9412 56.3223 73.7987 56.6444 74.7119 56.8776C67.2838 69.6395 55.2451 76.5702 47.817 72.3495Z" fill="url(#paint4_radial_469_21980)"/>
<path d="M48.2858 72.3495C49.1322 71.1611 49.9451 69.9282 50.7024 68.6731C52.5956 65.5299 52.6736 61.9646 50.8361 60.9094C48.4306 59.5321 46.3146 57.3219 44.9337 54.3785C42.9291 54.9339 41.4479 53.5899 41.1361 51.0576C40.7017 47.4589 41.6818 45.6152 43.3411 44.0713C43.8311 32.0981 47.9294 19.7916 61.7388 11.8501C75.5482 3.89759 79.6465 11.4836 80.1365 22.8904C81.7959 22.5239 82.865 23.9123 82.3416 27.3443C81.8849 30.2987 80.5486 33.2865 78.544 35.0414C77.163 39.573 75.0471 44.2268 72.6416 48.3697C70.8152 51.524 70.7372 54.9006 72.597 55.8891C73.41 56.3222 74.2675 56.6443 75.1807 56.8776C67.7526 69.6394 55.7028 76.5701 48.2858 72.3495Z" fill="url(#paint5_linear_469_21980)"/>
<path d="M80.1254 22.8793C77.6308 24.3121 76.7622 28.5327 76.7622 28.5327C76.7622 28.5327 76.6508 24.8785 76.6508 22.224C76.6508 19.5694 75.5928 9.35106 67.8306 17.6146C59.9459 26.0003 58.32 29.9877 53.5646 31.7981C49.6 33.3087 46.6488 35.1524 46.6488 38.5956C46.6488 42.0498 46.6042 44.2934 46.6042 44.2934C46.6042 44.2934 44.8224 42.8828 43.3301 44.0491C43.3301 44.0491 43.3301 38.8732 43.3301 32.3757C43.3301 25.8782 50.2125 9.63984 65.7481 6.46326C80.9384 3.36443 80.1254 6.55212 80.1254 22.8793Z" fill="url(#paint6_linear_469_21980)"/>
<path d="M65.1713 6.24114C72.3767 4.76392 75.985 4.7195 77.778 6.8076C75.8513 5.19709 72.2654 5.35259 65.6391 6.70764C50.1035 9.87311 43.2099 26.1114 43.2099 32.6201C43.2099 37.6848 43.2099 41.9277 43.2099 43.5604C43.054 43.627 42.8981 43.7048 42.7422 43.827C42.7422 43.827 42.7422 38.6511 42.7422 32.1536C42.7533 25.6449 49.6358 9.41772 65.1713 6.24114Z" fill="url(#paint7_radial_469_21980)"/>
<defs>
<linearGradient id="paint0_linear_469_21980" x1="74.1406" y1="53.8042" x2="25.2722" y2="130.375" gradientUnits="userSpaceOnUse">
<stop stop-color="#407EEC"/>
<stop offset="0.3334" stop-color="#55AAF0"/>
<stop offset="0.5567" stop-color="#61C2F2"/>
<stop offset="1" stop-color="#3863F5"/>
</linearGradient>
<linearGradient id="paint1_linear_469_21980" x1="47.761" y1="45.6128" x2="26.1744" y2="89.0761" gradientUnits="userSpaceOnUse">
<stop offset="0.0354" stop-color="#FF9E6E"/>
<stop offset="0.0835" stop-color="#FFAD73"/>
<stop offset="0.1313" stop-color="#FFC17A"/>
<stop offset="0.2099" stop-color="#FFAC73"/>
<stop offset="0.2525" stop-color="#FF9E6E"/>
<stop offset="0.5303" stop-color="#FFBE78"/>
<stop offset="1" stop-color="#FFE585"/>
</linearGradient>
<linearGradient id="paint2_linear_469_21980" x1="39.8148" y1="41.3292" x2="65.7909" y2="-1.16874" gradientUnits="userSpaceOnUse">
<stop offset="0.0303" stop-color="#45108A"/>
<stop offset="0.4545" stop-color="#7C1DC9"/>
<stop offset="0.5253" stop-color="#8620DB"/>
<stop offset="0.6667" stop-color="#781CC5"/>
<stop offset="1" stop-color="#511398"/>
</linearGradient>
<linearGradient id="paint3_linear_469_21980" x1="32.6771" y1="84.7391" x2="138.427" y2="111.977" gradientUnits="userSpaceOnUse">
<stop offset="0.1818" stop-color="#61C2F2"/>
<stop offset="1" stop-color="#3863F5"/>
</linearGradient>
<radialGradient id="paint4_radial_469_21980" cx="0" cy="0" r="1" gradientUnits="userSpaceOnUse" gradientTransform="translate(41.2456 53.8039) rotate(180) scale(11.5207 11.49)">
<stop stop-color="white"/>
<stop offset="1"/>
</radialGradient>
<linearGradient id="paint5_linear_469_21980" x1="82.3962" y1="70.689" x2="51.912" y2="25.8012" gradientUnits="userSpaceOnUse">
<stop offset="0.0354" stop-color="#FF9E6E"/>
<stop offset="0.3036" stop-color="#FFAD73"/>
<stop offset="0.821" stop-color="#FFD680"/>
<stop offset="1" stop-color="#FFE585"/>
</linearGradient>
<linearGradient id="paint6_linear_469_21980" x1="68.6151" y1="37.8009" x2="52.5919" y2="12.3047" gradientUnits="userSpaceOnUse">
<stop offset="0.096" stop-color="#45108A"/>
<stop offset="1" stop-color="#7C1DC9"/>
</linearGradient>
<radialGradient id="paint7_radial_469_21980" cx="0" cy="0" r="1" gradientUnits="userSpaceOnUse" gradientTransform="translate(60.2616 24.5018) rotate(180) scale(18.47 18.4207)">
<stop stop-color="white"/>
<stop offset="1"/>
</radialGradient>
</defs>
</svg>
