<svg width="159" height="159" viewBox="0 0 159 159" fill="none" xmlns="http://www.w3.org/2000/svg">
<path d="M20.471 104.576C13.513 94.2655 11.8827 84.5411 14.8516 76.9564L17.7786 70.8103L17.8032 70.8111C14.9184 78.3788 16.5651 88.0497 23.4809 98.2995C38.2609 120.162 71.4459 136.4 97.6056 134.562C110.304 133.667 119.012 128.677 122.928 121.28L120.892 125.411C117.611 133.988 108.49 139.879 94.5853 140.857C68.4307 142.686 35.2458 126.448 20.471 104.576Z" fill="url(#paint0_linear_469_22125)"/>
<path d="M97.6051 134.561C123.765 132.723 132.999 113.493 118.239 91.6165C103.48 69.7402 70.2893 53.5114 44.1199 55.3447C17.955 57.193 8.72054 76.4226 23.4856 98.2893C38.2507 120.156 71.4454 136.4 97.6051 134.561Z" fill="url(#paint1_linear_469_22125)"/>
<path d="M23.18 98.9238C15.6874 87.8247 14.374 77.4226 18.3133 69.6139C14.7647 77.3469 16.2044 87.4926 23.4857 98.29C38.2604 120.162 71.4454 136.4 97.6052 134.562C110.501 133.649 119.282 128.523 123.101 120.937C119.452 128.878 110.549 134.274 97.2943 135.205C71.1346 137.044 37.9496 120.805 23.18 98.9238Z" fill="white"/>
<path d="M97.6051 134.561C123.765 132.723 132.999 113.493 118.239 91.6165C103.465 69.7446 70.2893 53.5114 44.1199 55.3447C17.955 57.193 8.72054 76.4226 23.4856 98.2893C38.2604 120.161 71.4454 136.4 97.6051 134.561Z" fill="url(#paint2_linear_469_22125)"/>
<path d="M120.344 119.394C128.136 103.616 112.297 79.8851 84.9678 66.3888C57.6383 52.8925 29.1671 54.742 21.3755 70.5197C13.5839 86.2974 29.4225 110.029 56.752 123.525C84.0815 137.021 112.553 135.172 120.344 119.394Z" fill="white"/>
<path d="M113.214 115.874C119.883 102.369 106.327 82.0575 82.9347 70.5058C59.5428 58.9541 35.1737 60.5369 28.5048 74.0413C21.8359 87.5456 35.3926 107.858 58.7844 119.409C82.1763 130.961 106.545 129.378 113.214 115.874Z" fill="#AFB6E5"/>
<path d="M105.19 111.91C110.594 100.967 99.6055 84.506 80.6461 75.1432C61.6868 65.7804 41.9365 67.0612 36.5326 78.0038C31.1288 88.9465 42.1176 105.407 61.077 114.77C80.0363 124.133 99.7866 122.852 105.19 111.91Z" fill="white"/>
<path d="M97.607 108.166C101.818 99.6383 93.2576 86.8114 78.4858 79.5166C63.7141 72.2218 48.3252 73.2215 44.1138 81.7495C39.9023 90.2775 48.4631 103.104 63.2349 110.399C78.0066 117.694 93.3955 116.694 97.607 108.166Z" fill="#AFB6E5"/>
<path d="M90.4786 104.643C93.5674 98.388 87.2885 88.9804 76.4545 83.6301C65.6204 78.2799 54.3338 79.013 51.245 85.2676C48.1563 91.5222 54.4351 100.93 65.2691 106.28C76.1032 111.63 87.3899 110.897 90.4786 104.643Z" fill="white"/>
<path d="M115.339 92.4318C101.371 71.7459 69.9857 56.3817 45.2395 58.1236C33.4229 58.9586 25.2639 63.5343 21.4651 70.345C25.0884 63.1895 33.3885 58.353 45.5697 57.4906C70.3158 55.7486 101.706 71.1032 115.669 91.7988C122.97 102.607 124.066 112.741 119.922 120.189C123.671 112.802 122.438 102.943 115.339 92.4318Z" fill="#AFB6E5"/>
<path d="M101.615 93.3969C91.9236 79.0468 70.1552 68.3883 52.9894 69.6C44.7587 70.1779 39.0917 73.3799 36.4801 78.1357C38.9311 73.0307 44.734 69.5776 53.3195 68.9669C70.4853 67.7552 92.2537 78.4137 101.946 92.7638C106.991 100.24 107.761 107.239 104.915 112.405C107.361 107.309 106.449 100.572 101.615 93.3969Z" fill="#CED3F4"/>
<path d="M88.2933 94.3406C82.7559 86.1355 70.3136 80.0504 60.5116 80.7395C55.9405 81.0628 52.7485 82.807 51.2001 85.3908C52.5834 82.4429 55.9114 80.4476 60.8418 80.1064C70.6535 79.4225 83.0957 85.5077 88.6331 93.7127C91.5873 98.0842 91.9801 102.181 90.2076 105.155C91.57 102.246 91.0457 98.4155 88.2933 94.3406Z" fill="#CED3F4"/>
<path d="M76.4444 103.216C81.8971 102.833 83.8309 98.8213 80.7456 94.2539C77.6602 89.6865 70.7376 86.3017 65.2849 86.6849C59.8322 87.068 57.8984 91.0793 60.9837 95.6467C64.0542 100.218 70.9864 103.608 76.4444 103.216Z" fill="url(#paint3_linear_469_22125)"/>
<path opacity="0.5" d="M71.1212 95.8628C71.5498 95.8325 71.7074 95.5181 71.4635 95.1613C71.2195 94.8045 70.6778 94.5362 70.2493 94.5665C69.8207 94.5969 69.6631 94.9112 69.907 95.268C70.151 95.6249 70.6927 95.8931 71.1212 95.8628Z" fill="url(#paint4_linear_469_22125)"/>
<path d="M60.9785 95.6555C59.5859 93.5904 59.2167 91.6422 59.7341 90.0863C59.4759 91.5326 59.9013 93.2616 61.1203 95.0703C64.2057 99.6377 71.1283 103.023 76.5809 102.639C79.5658 102.432 81.4953 101.128 82.1265 99.2467C81.726 101.44 79.7245 102.992 76.4294 103.219C70.9864 103.608 64.0541 100.218 60.9785 95.6555Z" fill="#BB6DF3"/>
<path d="M102.606 30.5121L101.68 26.0394C101.17 23.5902 97.6748 23.6094 97.1875 26.0557L92.0545 51.8518L102.606 30.5121Z" fill="url(#paint5_linear_469_22125)"/>
<path d="M102.181 30.7184L101.255 26.2457C100.932 24.697 99.4116 24.1366 98.2138 24.5498C99.4421 23.8034 101.319 24.282 101.685 26.0287L102.611 30.5014L92.0593 51.8411L92.2818 50.7377L102.181 30.7184Z" fill="#5277F7"/>
<path opacity="0.7" d="M101.38 26.1766L102.306 30.6493L92.2179 51.0408L92.2765 50.7478L102.181 30.7189L101.255 26.2462C100.932 24.6975 99.4115 24.137 98.2137 24.5503C98.2688 24.5177 98.3187 24.4947 98.3686 24.4717C99.556 24.0778 101.066 24.6331 101.38 26.1766Z" fill="#836DF3"/>
<path d="M70.2263 96.7714C70.3148 96.7693 70.3752 96.7271 70.4013 96.6788C70.4013 96.6788 72.4356 96.0814 75.2518 90.3247C79.2687 82.0958 77.0849 85.7844 77.0849 85.7844C77.1902 85.5666 76.9348 85.7156 76.7234 85.4139C76.3059 84.8008 75.3771 84.3479 74.6383 84.3977C74.2737 84.4251 74.2455 84.0851 74.1401 84.3029C74.1401 84.3029 75.7146 80.3094 71.6977 88.5384C68.8807 94.3196 69.656 96.3253 69.656 96.3253C69.6298 96.3736 69.6371 96.4525 69.6934 96.5329C69.807 96.6693 70.044 96.7851 70.2263 96.7714Z" fill="#AFB6E5"/>
<path d="M76.48 86.4419C77.3125 86.3804 77.6076 85.7659 77.1338 85.0723C76.66 84.3787 75.6056 83.858 74.773 83.9194C73.9405 83.9808 73.6453 84.5953 74.1192 85.2889C74.593 85.9825 75.6474 86.5033 76.48 86.4419Z" fill="#CED3F4"/>
<path d="M76.4963 86.1785C76.8854 86.1518 77.1558 85.9984 77.2663 85.771L105.159 28.9326C105.274 28.6955 104.994 28.8682 104.764 28.5315C104.314 27.8633 103.308 27.3686 102.514 27.4264C102.125 27.4531 102.098 27.0885 101.972 27.3204L74.0837 84.1982C73.9828 84.4308 74.0268 84.7419 74.2373 85.0682C74.6822 85.7461 75.6935 86.231 76.4963 86.1785Z" fill="url(#paint6_linear_469_22125)"/>
<path d="M104.389 29.3158C105.183 29.258 105.462 28.6725 105.022 28.0095C104.572 27.3412 103.565 26.8466 102.772 26.9044C101.979 26.9622 101.7 27.5477 102.14 28.2108C102.581 28.8738 103.596 29.3736 104.389 29.3158Z" fill="#361CAC"/>
<path d="M100.902 29.8752L90.3118 51.656L87.8268 35.4118C86.899 29.3271 93.6337 25.0295 98.7568 28.4394L100.902 29.8752Z" fill="#5277F7"/>
<path d="M100.857 30.2126L90.2668 51.9933L87.7819 35.7491C86.8541 29.6644 93.5888 25.3668 98.7119 28.7767L100.857 30.2126Z" fill="url(#paint7_linear_469_22125)"/>
<path opacity="0.7" d="M98.869 29.0865C93.7459 25.6766 87.0112 29.9743 87.939 36.0589L90.3558 51.8291L90.2766 51.9986L87.7916 35.7544C86.8638 29.6697 93.5985 25.3721 98.7216 28.782L100.872 30.2082L100.803 30.3583L98.869 29.0865Z" fill="#836DF3"/>
<path d="M103.449 31.0301L105.329 31.4106C110.357 32.4339 111.788 38.9281 107.664 41.9787L93.041 52.7971L103.449 31.0301Z" fill="#5277F7"/>
<path d="M103.203 31.3699L105.083 31.7504C110.111 32.7737 111.542 39.2678 107.418 42.3184L92.7949 53.1369L103.203 31.3699Z" fill="url(#paint8_linear_469_22125)"/>
<path opacity="0.7" d="M107.135 42.5168C111.259 39.4662 109.813 32.9764 104.8 31.9487L103.101 31.6036L103.217 31.3665L105.096 31.747C110.125 32.7703 111.555 39.2645 107.431 42.3151L92.8086 53.1335L92.8243 53.1045L107.135 42.5168Z" fill="#836DF3"/>
<defs>
<linearGradient id="paint0_linear_469_22125" x1="111.421" y1="140.084" x2="11.9464" y2="82.498" gradientUnits="userSpaceOnUse">
<stop offset="0.0909" stop-color="#4088EC"/>
<stop offset="0.5" stop-color="#388CD6"/>
<stop offset="0.691" stop-color="#4EC0EA"/>
<stop offset="0.798" stop-color="#58D9F3"/>
<stop offset="1" stop-color="#38A6F5"/>
</linearGradient>
<linearGradient id="paint1_linear_469_22125" x1="67.9535" y1="53.6696" x2="73.7683" y2="136.235" gradientUnits="userSpaceOnUse">
<stop stop-color="#311B61"/>
<stop offset="0.2031" stop-color="#290F52"/>
<stop offset="0.4949" stop-color="#200041"/>
<stop offset="1" stop-color="#0F001F"/>
</linearGradient>
<linearGradient id="paint2_linear_469_22125" x1="49.2327" y1="121.691" x2="95.8218" y2="64.0945" gradientUnits="userSpaceOnUse">
<stop stop-color="#00C7C5"/>
<stop offset="0.3301" stop-color="#2D9BE0"/>
<stop offset="0.6313" stop-color="#5277F7"/>
<stop offset="0.6913" stop-color="#5B76F7"/>
<stop offset="0.7887" stop-color="#7374F6"/>
<stop offset="0.9106" stop-color="#9A70F4"/>
<stop offset="1" stop-color="#BB6DF3"/>
</linearGradient>
<linearGradient id="paint3_linear_469_22125" x1="91.7916" y1="75.2917" x2="65.8875" y2="99.6266" gradientUnits="userSpaceOnUse">
<stop offset="0.00505051" stop-color="#836DF3"/>
<stop offset="0.0529" stop-color="#8C6DF3"/>
<stop offset="0.2205" stop-color="#A66DF3"/>
<stop offset="0.3713" stop-color="#B56DF3"/>
<stop offset="0.4899" stop-color="#BB6DF3"/>
<stop offset="1" stop-color="#F36DD4"/>
</linearGradient>
<linearGradient id="paint4_linear_469_22125" x1="70.6359" y1="94.5319" x2="70.7314" y2="95.8879" gradientUnits="userSpaceOnUse">
<stop stop-color="#311B61"/>
<stop offset="0.2031" stop-color="#290F52"/>
<stop offset="0.4949" stop-color="#200041"/>
<stop offset="1" stop-color="#0F001F"/>
</linearGradient>
<linearGradient id="paint5_linear_469_22125" x1="96.1523" y1="24.4406" x2="98.053" y2="51.4289" gradientUnits="userSpaceOnUse">
<stop offset="0.00505051" stop-color="#00C7C5"/>
<stop offset="0.399" stop-color="#5277F7"/>
<stop offset="0.5195" stop-color="#6176F6"/>
<stop offset="0.7529" stop-color="#8A72F5"/>
<stop offset="1" stop-color="#BB6DF3"/>
</linearGradient>
<linearGradient id="paint6_linear_469_22125" x1="87.803" y1="55.9823" x2="91.0888" y2="57.578" gradientUnits="userSpaceOnUse">
<stop offset="0.00505051" stop-color="#273B98"/>
<stop offset="0.2274" stop-color="#2F2BA2"/>
<stop offset="0.399" stop-color="#361CAC"/>
<stop offset="0.768" stop-color="#440B89"/>
<stop offset="1" stop-color="#4E0070"/>
</linearGradient>
<linearGradient id="paint7_linear_469_22125" x1="95.0457" y1="29.8403" x2="75.8123" y2="77.0556" gradientUnits="userSpaceOnUse">
<stop offset="0.00505051" stop-color="#00C7C5"/>
<stop offset="0.399" stop-color="#5277F7"/>
<stop offset="0.5195" stop-color="#6176F6"/>
<stop offset="0.7529" stop-color="#8A72F5"/>
<stop offset="1" stop-color="#BB6DF3"/>
</linearGradient>
<linearGradient id="paint8_linear_469_22125" x1="107.021" y1="35.2264" x2="77.0938" y2="64.3547" gradientUnits="userSpaceOnUse">
<stop offset="0.00505051" stop-color="#00C7C5"/>
<stop offset="0.399" stop-color="#5277F7"/>
<stop offset="0.5195" stop-color="#6176F6"/>
<stop offset="0.7529" stop-color="#8A72F5"/>
<stop offset="1" stop-color="#BB6DF3"/>
</linearGradient>
</defs>
</svg>
