<svg width="240" height="87" viewBox="0 0 240 87" fill="none" xmlns="http://www.w3.org/2000/svg">
<path d="M121.527 57.9705C121.527 58.8909 121.498 59.8112 121.54 60.7315C121.563 61.2192 121.385 61.3128 120.94 61.3096C119.047 61.287 117.152 61.2837 115.259 61.3128C114.791 61.3193 114.678 61.1901 114.678 60.7283C114.691 51.6153 114.688 42.5023 114.688 33.3892C114.688 30.8833 114.698 28.3806 114.678 25.8747C114.675 25.4678 114.798 25.3483 115.201 25.3128C117.265 25.1481 119.325 24.964 121.382 24.7477C121.876 24.696 121.925 24.8769 121.925 25.2902C121.915 30.2213 121.918 35.1524 121.918 40.0835C121.918 40.2095 121.918 40.3386 121.918 40.6164C122.432 39.8349 122.881 39.1955 123.484 38.6853C125.658 36.8607 128.183 36.5959 130.844 37.0932C134.031 37.6906 136.285 39.5668 137.38 42.5636C139.05 47.1201 139.101 51.7864 137.293 56.3139C134.758 62.6594 127.101 62.8144 123.72 60.344C122.845 59.7014 122.138 58.9231 121.527 57.9705ZM121.918 49.3225C121.905 50.4269 121.892 51.5281 122.141 52.6164C122.609 54.6702 124.111 56.0071 126.078 56.0911C128.616 56.1976 130.292 55.1772 130.87 52.9684C131.509 50.5335 131.503 48.0437 130.847 45.6088C130.343 43.7294 128.826 42.6508 126.865 42.5765C124.589 42.4926 123.139 43.3677 122.377 45.2988C121.87 46.6002 121.899 47.963 121.918 49.3225Z" fill="#4285F3"/>
<path d="M216 61.2966C215.099 61.2966 214.295 61.2966 213.494 61.2966C211.957 61.2966 210.417 61.2837 208.879 61.3063C208.476 61.3128 208.247 61.1804 208.033 60.8381C205.805 57.302 203.561 53.7789 201.316 50.2557C201.213 50.091 201.1 49.9328 200.881 49.6131C200.881 49.9812 200.881 50.1847 200.881 50.3849C200.881 53.8176 200.871 57.2471 200.893 60.6798C200.897 61.1513 200.806 61.3192 200.29 61.3096C198.258 61.2773 196.227 61.2837 194.196 61.3063C193.753 61.3128 193.64 61.1868 193.64 60.7444C193.653 49.1481 193.653 37.5485 193.644 25.9522C193.644 25.5162 193.737 25.3386 194.215 25.3031C196.279 25.1481 198.339 24.9673 200.396 24.7444C200.977 24.6831 200.884 25.006 200.884 25.3322C200.884 32.9048 200.884 40.4807 200.884 48.0534C200.884 48.2116 200.884 48.3666 200.884 48.5733C201.187 48.4796 201.242 48.2051 201.365 48.0114C203.483 44.64 205.598 41.2687 207.698 37.8876C207.93 37.513 208.175 37.3612 208.631 37.3677C210.953 37.3935 213.278 37.3806 215.713 37.3806C215.08 38.3817 214.498 39.3085 213.914 40.2321C212.118 43.0609 210.329 45.893 208.521 48.7154C208.298 49.0609 208.295 49.2966 208.521 49.6486C210.891 53.3009 213.242 56.9694 215.6 60.6346C215.709 60.8155 215.819 61.0028 216 61.2966Z" fill="#4285F3"/>
<path d="M59.3122 57.9802C57.7847 60.6347 55.4726 61.7358 52.5533 61.7811C50.0732 61.8198 47.8256 61.174 45.985 59.456C44.3413 57.9221 43.4144 55.9651 43.0334 53.7854C42.3972 50.175 42.3262 46.5615 43.5533 43.0448C45.394 37.7617 51.4941 35.2558 56.2831 37.7585C57.5813 38.4366 58.5113 39.4764 59.3154 40.7229C59.3154 39.7735 59.3316 38.8209 59.309 37.8715C59.2993 37.4904 59.4058 37.3645 59.803 37.3677C61.7955 37.3871 63.788 37.3903 65.7804 37.3645C66.2261 37.358 66.2874 37.5259 66.2842 37.9135C66.2713 41.7983 66.2745 45.6831 66.2745 49.5679C66.2745 53.2751 66.2648 56.9823 66.2874 60.6896C66.2907 61.1933 66.1357 61.3064 65.6609 61.2999C63.7266 61.2741 61.7955 61.2741 59.8612 61.2999C59.4058 61.3064 59.2896 61.1643 59.3025 60.7348C59.3316 59.8241 59.3122 58.9005 59.3122 57.9802ZM49.9376 49.287C49.9376 49.9748 49.8892 50.6691 49.9473 51.3537C50.0732 52.836 50.4381 54.2439 51.6717 55.2288C54.2455 57.2794 58.0689 55.9264 58.7761 52.668C59.2347 50.5561 59.2056 48.3925 58.8278 46.2676C58.2336 42.9156 55.5404 42.0437 52.8407 42.822C51.8429 43.1094 51.1357 43.7714 50.6513 44.682C49.8859 46.132 49.8795 47.7079 49.9376 49.287Z" fill="#4285F3"/>
<path d="M190.928 49.3322C190.983 51.1179 190.815 52.8714 190.243 54.5765C189.139 57.8736 186.937 60.0889 183.623 61.1223C180.572 62.0717 177.472 62.0749 174.426 61.1158C170.903 60.0082 168.633 57.5894 167.684 54.0404C166.828 50.8435 166.815 47.5883 167.748 44.4075C168.888 40.513 171.562 38.1556 175.505 37.2643C178.085 36.6798 180.681 36.6992 183.229 37.4258C187.44 38.6271 189.824 41.5173 190.679 45.7444C190.915 46.9263 190.957 48.1276 190.928 49.3322ZM183.698 49.4323C183.707 48.2116 183.733 47.1104 183.459 46.0254C182.897 43.8101 181.405 42.6056 179.135 42.5733C176.784 42.5378 175.243 43.6357 174.685 45.9059C174.136 48.1341 174.171 50.414 174.636 52.6454C175.066 54.7121 176.529 55.949 178.411 56.0846C180.833 56.259 182.364 55.4193 183.191 53.4463C183.746 52.119 183.73 50.7175 183.698 49.4323Z" fill="#4285F3"/>
<path d="M152.69 36.893C154.776 36.8672 156.675 37.1578 158.474 37.9425C161.519 39.273 163.421 41.611 164.222 44.7951C164.997 47.8822 165.023 51.0146 164.16 54.0889C162.985 58.2773 160.114 60.6928 155.897 61.5066C153.368 61.9974 150.833 61.9296 148.353 61.161C144.849 60.076 142.515 57.7671 141.53 54.2407C140.571 50.8112 140.558 47.33 141.688 43.9361C142.986 40.0319 145.867 37.9102 149.826 37.1384C150.811 36.9479 151.812 36.8639 152.69 36.893ZM148.156 49.3031C148.175 50.2881 148.117 51.273 148.305 52.2515C148.763 54.6282 150.265 56.02 152.49 56.0943C155.06 56.1847 156.694 55.0545 157.224 52.5905C157.699 50.3785 157.715 48.1148 157.175 45.9092C156.623 43.6487 155.112 42.5636 152.787 42.5701C150.484 42.5765 149.041 43.7068 148.414 45.9544C148.111 47.0588 148.172 48.1826 148.156 49.3031Z" fill="#4285F3"/>
<path d="M103.993 51.8414C101.664 51.8414 99.3359 51.8543 97.0108 51.8284C96.5103 51.822 96.3843 51.977 96.4973 52.4355C96.6007 52.8553 96.6297 53.2945 96.7525 53.7079C97.2821 55.4646 98.6093 56.2364 100.318 56.4366C103.408 56.7983 106.408 56.3462 109.314 55.2773C109.695 55.1352 109.802 55.1901 109.896 55.5809C110.219 56.9178 110.561 58.2547 110.945 59.5755C111.068 60.0017 110.955 60.1761 110.577 60.3279C108.92 60.9931 107.189 61.3645 105.43 61.5905C102.617 61.9555 99.8138 61.9813 97.0302 61.3193C92.5931 60.2601 89.8483 57.2278 89.3768 52.6648C89.1023 50.0168 88.9925 47.3462 89.5931 44.7208C90.5393 40.5776 93.633 37.7811 97.8407 37.1384C99.9462 36.8188 102.045 36.738 104.131 37.1933C108.171 38.0814 110.496 40.6681 111.346 44.653C111.82 46.8715 111.668 49.1288 111.688 51.3731C111.691 51.8091 111.371 51.8381 111.029 51.8381C108.685 51.8349 106.337 51.8381 103.993 51.8414C103.993 51.8381 103.993 51.8381 103.993 51.8414ZM100.783 47.1137C102.103 47.1137 103.424 47.1008 104.748 47.1201C105.116 47.1266 105.245 47.0071 105.207 46.6487C105.155 46.1578 105.152 45.6637 105.084 45.1761C104.822 43.3548 103.653 42.1632 101.855 41.9146C101.112 41.8112 100.36 41.8241 99.6201 41.9921C98.3122 42.2891 97.4015 43.0545 96.9139 44.3074C96.6233 45.047 96.507 45.822 96.4554 46.6132C96.4295 46.991 96.5426 47.1266 96.9398 47.1201C98.2185 47.0975 99.5006 47.1137 100.783 47.1137Z" fill="#4285F3"/>
<path d="M36.1066 52.2902C36.1066 55.1093 36.0969 57.9285 36.1163 60.7509C36.1195 61.1933 36.0033 61.3128 35.5609 61.3096C33.5296 61.2837 31.4984 61.2805 29.4672 61.3128C28.9537 61.3192 28.8601 61.1481 28.8601 60.6734C28.8762 55.1126 28.8601 49.5518 28.8859 43.9909C28.8892 43.4 28.718 43.2773 28.1658 43.2966C26.9258 43.3386 25.6825 43.2999 24.4392 43.316C24.1131 43.3193 23.9968 43.2321 24 42.8865C24.0162 41.1912 24.0162 39.4958 24 37.8004C23.9968 37.4517 24.1163 37.3709 24.4424 37.3742C25.7051 37.3903 26.9677 37.358 28.2272 37.3935C28.7277 37.4064 28.8956 37.3063 28.8892 36.7606C28.8698 35.1459 28.7987 33.5281 28.9796 31.9167C29.2444 29.5851 29.9387 27.4796 32.0086 26.0975C33.3585 25.1965 34.8956 24.8478 36.4812 24.738C38.2347 24.6153 39.9882 24.696 41.7385 24.8445C42.0775 24.8736 42.2616 24.9576 42.2519 25.3742C42.2229 26.9307 42.2293 28.4904 42.2455 30.0469C42.2487 30.4054 42.1454 30.5248 41.7772 30.5184C40.7309 30.499 39.6879 30.499 38.6416 30.5248C37.1109 30.5636 36.3714 31.2385 36.1841 32.7595C36.0065 34.1933 36.1454 35.6336 36.1001 37.0706C36.0872 37.471 36.3714 37.3774 36.5878 37.3774C38.2831 37.3806 39.9785 37.3838 41.6771 37.3742C41.9774 37.3709 42.1615 37.4 42.1163 37.781C41.929 39.4635 41.7481 41.1492 41.5964 42.8349C41.5576 43.2611 41.3639 43.3193 40.9925 43.3128C39.5329 43.2934 38.0732 43.3225 36.6136 43.2966C36.1906 43.2902 36.0905 43.4226 36.0937 43.8295C36.1131 46.6519 36.1066 49.471 36.1066 52.2902Z" fill="#4285F3"/>
<path d="M68.9871 49.3354C68.9354 47.4721 69.1001 45.6346 69.704 43.8553C70.6986 40.9296 72.6104 38.8596 75.5296 37.8327C79.2368 36.5281 82.9925 36.5248 86.7255 37.7358C88.3369 38.2589 88.3208 38.3106 87.8203 39.8994C87.4844 40.9683 87.1357 42.0372 86.8289 43.1158C86.7126 43.5291 86.5641 43.5711 86.1766 43.4096C84.478 42.7121 82.7148 42.3634 80.8676 42.57C78.3133 42.8542 76.7794 44.2428 76.3692 46.8165C76.0818 48.6314 76.0689 50.4721 76.4564 52.2869C76.9279 54.5119 78.5232 55.8714 80.7772 56.0975C82.6663 56.288 84.4683 55.9845 86.2024 55.2579C86.5608 55.1061 86.6965 55.1384 86.816 55.5356C87.2325 56.95 87.6814 58.3547 88.1464 59.753C88.2659 60.1115 88.1819 60.2794 87.8622 60.4473C86.3865 61.2191 84.7944 61.5614 83.1572 61.7035C80.5802 61.9263 78.0291 61.7939 75.5813 60.8768C71.9128 59.5076 69.9365 56.753 69.2358 52.9877C69.0065 51.7767 68.9548 50.5593 68.9871 49.3354Z" fill="#4285F3"/>
</svg>
