<svg width="240" height="87" viewBox="0 0 240 87" fill="none" xmlns="http://www.w3.org/2000/svg">
<path d="M68.182 35.8898C71.3365 35.8898 74.4909 35.8936 77.6454 35.8823C77.9352 35.8823 78.0369 35.965 78.0783 36.247C78.2815 37.7507 78.3455 39.2583 78.2552 40.7733C78.146 42.6418 77.8336 44.4689 77.2727 46.2584C75.8498 50.7847 72.9288 54.0893 68.8859 56.4653C66.5521 57.8375 64 58.5555 61.316 58.8713C56.8818 59.3901 52.6207 58.7924 48.6456 56.7397C42.3292 53.4803 38.2939 48.3937 36.984 41.3824C35.8396 35.2432 37.3378 29.6454 41.1848 24.728C44.4447 20.5663 48.7134 17.9046 53.8967 16.8332C58.8881 15.8031 63.7064 16.367 68.2498 18.773C69.9211 19.6565 71.4118 20.7919 72.797 22.0701C72.9513 22.2129 72.9401 22.2881 72.797 22.4272C71.5398 23.6716 70.2863 24.916 69.0441 26.1754C68.8634 26.3558 68.7768 26.2919 68.6262 26.1566C66.6538 24.3671 64.3915 23.0889 61.7678 22.5663C56.4602 21.5062 51.7323 22.6904 47.7535 26.4235C45.0959 28.916 43.5563 32.0251 43.131 35.6379C42.5099 40.8711 44.0382 45.3975 47.8514 49.0742C50.204 51.3411 53.0535 52.6645 56.3096 53.063C59.2871 53.4276 62.2006 53.1382 64.941 51.8637C67.6174 50.6193 69.8045 48.8035 71.0805 46.0666C71.6678 44.8072 71.999 43.4689 72.2249 42.1042C72.2776 41.7959 72.1872 41.7245 71.8786 41.7245C67.4819 41.7358 63.0853 41.732 58.6886 41.7395C58.3988 41.7395 58.2971 41.6869 58.3009 41.3673C58.3197 39.6681 58.3197 37.965 58.3009 36.2658C58.2971 35.9312 58.4063 35.8785 58.7075 35.8823C61.8694 35.8936 65.0238 35.8898 68.182 35.8898Z" fill="#4285F3"/>
<path d="M166.617 45.4726C166.617 49.5855 166.651 53.6983 166.606 57.8111C166.58 60.3563 166.094 62.8225 164.897 65.1045C163.485 67.7962 161.328 69.6421 158.438 70.582C155.151 71.6497 151.843 71.7098 148.598 70.4241C145.266 69.1008 142.929 66.7097 141.423 63.4766C141.329 63.2736 141.408 63.2172 141.577 63.1496C143.181 62.4879 144.781 61.8262 146.381 61.1533C146.588 61.0668 146.637 61.1533 146.712 61.3112C147.359 62.7022 148.285 63.8638 149.561 64.7323C151.157 65.8188 152.927 66.1158 154.813 65.8601C156.356 65.6533 157.737 65.0969 158.84 63.9541C159.875 62.8826 160.41 61.5706 160.689 60.1345C160.948 58.7999 160.873 57.4465 160.88 56.1006C160.88 56.0292 160.911 55.9352 160.805 55.9089C160.689 55.8825 160.625 55.969 160.561 56.0442C159.977 56.7096 159.3 57.2623 158.528 57.7021C156.687 58.751 154.711 59.1382 152.603 58.9991C146.941 58.6269 141.724 54.2021 140.539 48.1832C139.518 42.9951 141.024 38.5402 144.909 34.9274C146.591 33.3672 148.579 32.3333 150.83 31.8484C153.853 31.198 156.702 31.5852 159.292 33.371C159.755 33.6905 160.173 34.0627 160.545 34.4838C160.621 34.5665 160.692 34.668 160.817 34.6153C160.937 34.5665 160.877 34.4424 160.88 34.3522C160.884 33.792 160.892 33.2319 160.88 32.6755C160.877 32.4762 160.911 32.386 161.144 32.3897C162.879 32.401 164.618 32.401 166.354 32.386C166.655 32.3822 166.625 32.5439 166.625 32.7318C166.625 36.9763 166.625 41.2207 166.625 45.4651C166.625 45.4726 166.621 45.4726 166.617 45.4726ZM161.317 45.3636C161.328 43.826 160.982 42.2696 160.282 40.9613C159.081 38.7207 157.263 37.2657 154.688 37.0251C151.73 36.7507 149.403 37.965 147.747 40.4049C146.516 42.2207 146.121 44.2583 146.366 46.4238C146.622 48.6907 147.585 50.593 149.388 52.0291C152.373 54.4051 156.544 54.1231 159.108 51.3599C160.67 49.6757 161.287 47.6193 161.317 45.3636Z" fill="#4285F3"/>
<path d="M124.254 31.5552C132.046 31.5439 138.058 37.5214 138.065 45.2922C138.073 53.0367 132.05 59.0405 124.262 59.048C116.496 59.0556 110.439 53.0329 110.436 45.3035C110.439 37.5553 116.459 31.5665 124.254 31.5552ZM132.024 45.3073C132.024 44.6982 131.975 44.1005 131.858 43.5065C131.764 43.0215 131.632 42.5478 131.463 42.0854C129.49 36.7583 122.805 35.2432 118.864 39.232C115.849 42.2847 115.679 47.7246 118.503 50.9615C121.1 53.9427 125.372 54.5179 128.561 52.266C130.951 50.5742 131.967 48.1682 132.024 45.3073Z" fill="#FABB06"/>
<path d="M94.4678 31.5552C102.275 31.5665 108.268 37.5365 108.264 45.3035C108.26 53.0517 102.23 59.0518 94.4528 59.048C86.6721 59.0405 80.638 53.0254 80.6568 45.2885C80.6718 37.5102 86.6758 31.5439 94.4678 31.5552ZM94.5281 53.6344C96.8205 53.578 98.8042 52.6983 100.276 50.8637C102.418 48.1983 102.783 45.1757 101.62 42.0328C100.551 39.1455 98.4015 37.3936 95.3073 37.0402C92.4427 36.7094 90.0674 37.7733 88.3509 40.0891C86.6382 42.3974 86.3182 45.0178 87.0221 47.7584C87.9143 51.2284 91.0047 53.642 94.5281 53.6344Z" fill="#E94335"/>
<path d="M191.525 53.6156C194.83 53.6382 196.874 52.5893 198.478 50.6269C198.632 50.4389 198.786 50.2509 198.911 50.0479C199.031 49.8524 199.129 49.8449 199.321 49.9727C200.556 50.8073 201.802 51.6307 203.044 52.4577C203.281 52.6156 203.661 52.7547 203.699 52.9577C203.744 53.1983 203.416 53.4427 203.236 53.672C200.804 56.7285 197.68 58.5856 193.765 58.9541C189.519 59.3526 185.762 58.1759 182.672 55.1758C180.575 53.1382 179.318 50.6344 178.851 47.7659C178.301 44.3975 178.742 41.1568 180.413 38.1568C182.389 34.6079 185.412 32.4462 189.425 31.7507C194.635 30.8447 199.268 33.0477 202.125 37.6869C202.901 38.9463 203.413 40.3185 203.97 41.6756C204.075 41.9313 203.88 41.9238 203.759 41.9726C201.47 42.9238 199.182 43.8674 196.889 44.8148C193.23 46.3261 189.575 47.8411 185.913 49.3449C185.683 49.4389 185.645 49.5103 185.766 49.7359C187.132 52.281 189.278 53.5743 191.525 53.6156ZM191.883 36.8673C191.506 36.8598 191.134 36.9011 190.769 36.9763C187.121 37.7245 184.629 40.7884 184.633 44.5178C184.633 44.8824 184.633 44.8862 184.983 44.7396C187.625 43.6456 190.268 42.5516 192.91 41.4576C194.168 40.9388 195.417 40.4125 196.679 39.8974C196.897 39.811 196.938 39.717 196.825 39.5177C196.678 39.2583 196.535 39.0027 196.34 38.7771C195.162 37.4162 193.611 36.9312 191.883 36.8673Z" fill="#E94335"/>
<path d="M170.193 38.0553C170.193 31.4762 170.197 24.8972 170.186 18.3181C170.186 18.0099 170.25 17.9121 170.577 17.9159C172.313 17.9347 174.052 17.9309 175.787 17.9159C176.058 17.9121 176.111 17.9986 176.111 18.2505C176.103 31.4649 176.103 44.6794 176.111 57.8901C176.111 58.1307 176.054 58.2059 175.802 58.2021C174.044 58.1909 172.286 58.1909 170.528 58.2021C170.25 58.2059 170.19 58.127 170.19 57.8563C170.193 51.2584 170.193 44.6569 170.193 38.0553Z" fill="#35A854"/>
</svg>
