<svg width="77" height="48" viewBox="0 0 77 48" fill="none" xmlns="http://www.w3.org/2000/svg">
<g clip-path="url(#clip0_27_44)">
<path d="M60.4607 33.586C60.087 33.586 59.7859 33.586 59.7859 33.586H56.455H54.4714C52.492 33.586 50.8821 32.378 50.8821 30.8942V29.9661C50.8821 28.4823 52.492 27.2743 54.4714 27.2743H61.9788V23.7675H54.4714C50.4871 23.7675 47.2437 26.5478 47.2437 29.9661V30.8942C47.2437 34.3125 50.4849 37.0928 54.4714 37.0928H56.455H59.7859C61.8443 37.0928 63.3752 38.3009 63.3752 39.7846V40.7128C63.3752 42.1966 61.7653 43.8676 59.7859 43.8676H47.9718C46.4985 43.8676 45.2985 42.2501 45.2985 40.828V31.2647C45.2985 26.6425 40.8637 22.8826 35.4146 22.8826C32.0858 22.8826 29.1414 24.2902 27.3499 26.4346C25.5585 24.2882 22.614 22.8826 19.2852 22.8826C13.8362 22.8826 9.40134 26.6425 9.40134 31.2647V40.3177H13.0397V31.2647C13.0397 28.577 15.8411 26.3893 19.2852 26.3893C22.7293 26.3893 25.5307 28.577 25.5307 31.2647V40.2086V40.5193H29.1691V40.2086V31.2647C29.1691 28.577 31.9705 26.3893 35.4146 26.3893C38.8587 26.3893 41.6601 28.577 41.6601 31.2647V40.828C41.6601 44.1825 44.4914 47.3744 47.9718 47.3744H59.7859C63.7702 47.3744 67.0136 44.1311 67.0136 40.7128V39.7846C67.0136 36.5619 65.7111 33.586 60.4607 33.586Z" fill="white"/>
<path d="M66.6143 16.6902V27.2825L77 21.9853L66.6143 16.6902Z" fill="#F26C21"/>
<path d="M33.3435 11.4546V10.5368C33.3435 7.0403 31.1271 5.00086 27.5997 5.00086H5.30814V42.9971H27.5848C28.4175 42.9971 29.2097 42.8263 29.9229 42.5176C31.9257 41.6512 33.3264 39.7126 33.3264 37.4632L33.3242 34.1519C33.3541 32.8019 34.4794 31.6886 35.8822 31.6783C35.9015 31.6783 35.9228 31.6783 35.942 31.6783C37.3876 31.6844 38.5448 32.8678 38.5128 34.261L38.5149 37.4776C38.5149 43.9335 34.5114 48 27.5827 48H0V0H27.5997C34.5691 0 38.532 3.83399 38.532 10.5368V11.4546C38.532 12.8355 37.3705 13.9551 35.9377 13.9551C34.505 13.9551 33.3435 12.8355 33.3435 11.4546Z" fill="#F26C21"/>
<path d="M12.7536 16.6902C12.6319 16.6902 12.5465 16.7437 12.4995 16.8528L11.2184 19.8286L9.93728 16.8528C9.89244 16.7437 9.80703 16.6902 9.68319 16.6902C9.49742 16.6902 9.40561 16.7787 9.40561 16.9536C9.40561 16.9783 9.41629 17.0174 9.4355 17.0709L10.9707 20.5221C11.0156 20.6271 11.0988 20.6785 11.2205 20.6785C11.3422 20.6785 11.4255 20.6271 11.4704 20.5221L13.0056 17.0709C13.0269 17.0174 13.0376 16.9783 13.0376 16.9536C13.0355 16.7766 12.9415 16.6902 12.7536 16.6902Z" fill="white"/>
<path d="M18.871 16.6902C18.6724 16.6902 18.5742 16.7849 18.5742 16.9762V20.3925C18.5742 20.5818 18.6724 20.6785 18.871 20.6785C19.0632 20.6785 19.1593 20.5839 19.1593 20.3925V16.9762C19.1571 16.7849 19.061 16.6902 18.871 16.6902Z" fill="white"/>
<path d="M27.1279 20.1186H25.0823V18.8962H26.1841C26.3613 18.8962 26.451 18.8098 26.451 18.639C26.451 18.4682 26.3613 18.3817 26.1841 18.3817H25.0823V17.2498H27.0361C27.2218 17.2498 27.3136 17.1634 27.3136 16.9926C27.3136 16.8218 27.2218 16.7354 27.0361 16.7354H24.7962C24.5976 16.7354 24.4994 16.828 24.4994 17.0152V20.3512C24.4994 20.5385 24.5976 20.6311 24.7962 20.6311H27.1279C27.3136 20.6311 27.4054 20.5446 27.4054 20.3738C27.4054 20.203 27.3136 20.1186 27.1279 20.1186Z" fill="white"/>
<path d="M35.0004 16.7354H32.1349C31.9492 16.7354 31.8574 16.8259 31.8574 17.0029C31.8574 17.1737 31.9492 17.2601 32.1349 17.2601H33.2815V20.3903C33.2815 20.5796 33.3819 20.6764 33.5805 20.6764C33.7705 20.6764 33.8645 20.5817 33.8645 20.3903V17.2622H35.0004C35.1862 17.2622 35.278 17.1758 35.278 17.0049C35.2801 16.8259 35.1862 16.7354 35.0004 16.7354Z" fill="white"/>
<path d="M43.3085 16.6902C43.1206 16.6902 43.0266 16.7807 43.0266 16.9577V19.6434L40.7078 16.8013C40.6523 16.7272 40.5797 16.6902 40.4879 16.6902C40.2978 16.6902 40.2039 16.7807 40.2039 16.9577V20.4151C40.2039 20.59 40.2957 20.6785 40.4772 20.6785C40.663 20.6785 40.7548 20.59 40.7548 20.4151V17.7233L43.0822 20.5797C43.1377 20.6456 43.2103 20.6765 43.2978 20.6765C43.4857 20.6765 43.5797 20.588 43.5797 20.413V16.9577C43.5818 16.7787 43.49 16.6902 43.3085 16.6902Z" fill="white"/>
<path d="M50.8906 16.8528C50.8437 16.7437 50.7561 16.6902 50.6301 16.6902C50.5042 16.6902 50.4166 16.7437 50.3696 16.8528L48.7661 20.2978C48.7469 20.3431 48.7362 20.3822 48.7362 20.4151C48.7362 20.59 48.828 20.6785 49.0095 20.6785C49.1334 20.6785 49.2209 20.625 49.27 20.5159L49.6757 19.6619H51.5846L51.9903 20.5159C52.0394 20.625 52.1269 20.6785 52.2508 20.6785C52.4323 20.6785 52.5241 20.59 52.5241 20.4151C52.5241 20.3822 52.5134 20.3431 52.4942 20.2978L50.8906 16.8528ZM49.8892 19.1639L50.6301 17.5072L51.3711 19.1639H49.8892Z" fill="white"/>
<path d="M61.7098 16.6902C61.5923 16.6902 61.5069 16.7458 61.4493 16.8589L59.9119 19.8965L58.3767 16.8589C58.319 16.7458 58.2315 16.6902 58.1162 16.6902C57.9347 16.6902 57.8429 16.7787 57.8429 16.9536V20.411C57.8429 20.59 57.9347 20.6785 58.1162 20.6785C58.302 20.6785 58.3938 20.588 58.3938 20.411V18.0402L59.6557 20.5139C59.7091 20.623 59.7945 20.6765 59.9098 20.6765C60.0272 20.6765 60.1105 20.623 60.1639 20.5139L61.4258 18.0402V20.4089C61.4258 20.588 61.5197 20.6765 61.7076 20.6765C61.8891 20.6765 61.9809 20.5859 61.9809 20.4089V16.9515C61.9809 16.7766 61.8913 16.6902 61.7098 16.6902Z" fill="white"/>
</g>
<defs>
<clipPath id="clip0_27_44">
<rect width="77" height="48" fill="white"/>
</clipPath>
</defs>
</svg>
