<svg width="1398" height="228" viewBox="0 0 1398 228" fill="none" xmlns="http://www.w3.org/2000/svg">
<path d="M1519.56 125.665L1347.5 0L1214.92 96.8278L1132.11 49.48L848.486 211.66L558.658 0L372 136.316V228H819.911H870.855H1035.31H1444.3H1519.55L1519.56 125.665Z" fill="url(#paint0_linear_372_370)"/>
<path d="M908.214 139.816L753.999 228H1062.44L908.214 139.816Z" fill="url(#paint1_linear_372_370)"/>
<path d="M908.214 139.816L989.83 228H1062.44L908.214 139.816Z" fill="url(#paint2_linear_372_370)"/>
<path d="M618.206 103.681L400.796 228H835.616L618.206 103.681Z" fill="url(#paint3_linear_372_370)"/>
<path d="M618.206 103.681L763.011 228H835.616L618.206 103.681Z" fill="url(#paint4_linear_372_370)"/>
<path d="M1153.59 103.681L936.179 228H1371L1153.59 103.681Z" fill="url(#paint5_linear_372_370)"/>
<path d="M1153.59 103.681L1298.39 228H1371L1153.59 103.681Z" fill="url(#paint6_linear_372_370)"/>
<path d="M1021.24 139.816L867.023 228H1175.45L1021.24 139.816Z" fill="url(#paint7_linear_372_370)"/>
<path d="M1021.24 139.816L1102.85 228H1175.45L1021.24 139.816Z" fill="url(#paint8_linear_372_370)"/>
<path d="M754.001 69.2236L536.591 228H971.411L754.001 69.2236Z" fill="url(#paint9_linear_372_370)"/>
<path d="M754.001 69.2236L835.617 228H971.411L754.001 69.2236Z" fill="url(#paint10_linear_372_370)"/>
<path d="M354.41 103.681L137 228H571.82L354.41 103.681Z" fill="url(#paint11_linear_372_370)"/>
<path d="M354.41 103.681L499.215 228H571.82L354.41 103.681Z" fill="url(#paint12_linear_372_370)"/>
<path d="M491.47 139.816L337.255 228H645.685L491.47 139.816Z" fill="url(#paint13_linear_372_370)"/>
<path d="M491.469 139.816L573.085 228H645.684L491.469 139.816Z" fill="url(#paint14_linear_372_370)"/>
<defs>
<linearGradient id="paint0_linear_372_370" x1="945.783" y1="225.683" x2="945.783" y2="5.1223" gradientUnits="userSpaceOnUse">
<stop stop-color="#0D1270"/>
<stop offset="1" stop-color="#364987"/>
</linearGradient>
<linearGradient id="paint1_linear_372_370" x1="753.999" y1="183.908" x2="1062.43" y2="183.908" gradientUnits="userSpaceOnUse">
<stop stop-color="#0F1A33"/>
<stop offset="1" stop-color="#213061"/>
</linearGradient>
<linearGradient id="paint2_linear_372_370" x1="1017.62" y1="219.488" x2="929.073" y2="130.925" gradientUnits="userSpaceOnUse">
<stop stop-color="#0F1A33"/>
<stop offset="1" stop-color="#213061"/>
</linearGradient>
<linearGradient id="paint3_linear_372_370" x1="400.794" y1="165.84" x2="835.613" y2="165.84" gradientUnits="userSpaceOnUse">
<stop stop-color="#0F1A33"/>
<stop offset="1" stop-color="#213061"/>
</linearGradient>
<linearGradient id="paint4_linear_372_370" x1="774.755" y1="213.677" x2="649.929" y2="88.8245" gradientUnits="userSpaceOnUse">
<stop stop-color="#0F1A33"/>
<stop offset="1" stop-color="#213061"/>
</linearGradient>
<linearGradient id="paint5_linear_372_370" x1="936.179" y1="165.84" x2="1371" y2="165.84" gradientUnits="userSpaceOnUse">
<stop stop-color="#0F1A33"/>
<stop offset="1" stop-color="#213061"/>
</linearGradient>
<linearGradient id="paint6_linear_372_370" x1="1310.14" y1="213.677" x2="1185.31" y2="88.8245" gradientUnits="userSpaceOnUse">
<stop stop-color="#0F1A33"/>
<stop offset="1" stop-color="#213061"/>
</linearGradient>
<linearGradient id="paint7_linear_372_370" x1="867.021" y1="183.908" x2="1175.46" y2="183.908" gradientUnits="userSpaceOnUse">
<stop stop-color="#0F1A33"/>
<stop offset="1" stop-color="#213061"/>
</linearGradient>
<linearGradient id="paint8_linear_372_370" x1="1130.64" y1="219.488" x2="1042.09" y2="130.925" gradientUnits="userSpaceOnUse">
<stop stop-color="#0F1A33"/>
<stop offset="1" stop-color="#213061"/>
</linearGradient>
<linearGradient id="paint9_linear_372_370" x1="536.591" y1="148.612" x2="971.41" y2="148.612" gradientUnits="userSpaceOnUse">
<stop stop-color="#0F1A33"/>
<stop offset="1" stop-color="#213061"/>
</linearGradient>
<linearGradient id="paint10_linear_372_370" x1="896.078" y1="220.568" x2="758.665" y2="83.126" gradientUnits="userSpaceOnUse">
<stop stop-color="#0F1A33"/>
<stop offset="1" stop-color="#213061"/>
</linearGradient>
<linearGradient id="paint11_linear_372_370" x1="137" y1="165.84" x2="571.819" y2="165.84" gradientUnits="userSpaceOnUse">
<stop stop-color="#0F1A33"/>
<stop offset="1" stop-color="#213061"/>
</linearGradient>
<linearGradient id="paint12_linear_372_370" x1="510.961" y1="213.677" x2="386.136" y2="88.8245" gradientUnits="userSpaceOnUse">
<stop stop-color="#0F1A33"/>
<stop offset="1" stop-color="#213061"/>
</linearGradient>
<linearGradient id="paint13_linear_372_370" x1="337.252" y1="183.908" x2="645.687" y2="183.908" gradientUnits="userSpaceOnUse">
<stop stop-color="#0F1A33"/>
<stop offset="1" stop-color="#213061"/>
</linearGradient>
<linearGradient id="paint14_linear_372_370" x1="600.869" y1="219.488" x2="512.325" y2="130.925" gradientUnits="userSpaceOnUse">
<stop stop-color="#0F1A33"/>
<stop offset="1" stop-color="#213061"/>
</linearGradient>
</defs>
</svg>
