<svg width="128" height="110" viewBox="0 0 128 110" fill="none" xmlns="http://www.w3.org/2000/svg">
<path d="M16.2852 90.2741L16.3362 89.8524C17.4984 80.7526 21.6108 73.8128 21.6108 65.2754V43.3951L36.1574 34.9855L43.9863 39.6504C43.9863 39.6504 33.22 71.9213 34.4205 79.7813C34.4205 82.7336 32.326 86.3505 29.759 87.8331L29.6313 87.9097L28.2775 99.3611L18.0093 93.4182C16.962 93.0603 16.2852 91.9484 16.2852 90.2741Z" fill="url(#paint0_linear_469_22162)"/>
<path d="M32.312 99.5017L41.1243 94.4151C43.7041 92.9325 45.7858 89.3156 45.7858 86.3633C44.5853 78.5033 43.9978 70.1959 43.9978 61.5435V39.6504L29.4384 48.06V69.9403C29.4384 78.4649 28.851 87.3219 27.7015 96.4216L27.6504 96.8434C27.6377 99.7957 29.7322 100.984 32.312 99.5017Z" fill="url(#paint1_linear_469_22162)"/>
<path d="M34.2929 68.739L35.5445 78.8356L32.8242 77.2764V67.8571L34.2929 68.739Z" fill="url(#paint2_linear_469_22162)"/>
<path d="M34.293 68.7389L35.5318 78.8356L40.8447 75.8321L39.6059 65.6844L34.293 68.7389Z" fill="url(#paint3_linear_469_22162)"/>
<path d="M39.6058 65.6844L34.2929 68.7389L32.8242 67.8571L38.1499 64.8153L39.6058 65.6844Z" fill="url(#paint4_linear_469_22162)"/>
<path d="M32.312 99.5017L41.1243 94.4151C43.7041 92.9325 45.7858 89.3156 45.7858 86.3633C44.5853 78.5033 43.9978 70.1959 43.9978 61.5435V39.6504L29.4384 48.06V69.9403C29.4384 78.4649 28.851 87.3219 27.7015 96.4216L27.6504 96.8434C27.6377 99.7957 29.7322 100.984 32.312 99.5017Z" fill="url(#paint5_radial_469_22162)"/>
<path d="M0 30.18C0 35.2027 1.72414 38.7557 4.54662 40.4683C4.63602 40.5194 19.2337 49.1335 19.3231 49.1719C22.2478 50.8078 20.3832 47.0887 24.8276 44.5325C33.7676 39.3692 41.0217 26.857 41.0217 16.5815C41.0217 11.5076 45.7088 11.4565 42.8353 9.76944C42.7586 9.71832 27.5862 1.02754 27.5096 0.976417C24.5977 -0.608372 20.6003 -0.314419 16.2069 2.22891C7.25416 7.39225 0 19.9172 0 30.18Z" fill="url(#paint6_linear_469_22162)"/>
<path d="M15.1855 39.0241C15.1855 49.2997 22.4397 53.4278 31.3797 48.2645C40.3197 43.1011 47.5738 30.589 47.5738 20.3134C47.5738 10.0379 40.3197 5.90973 31.3797 11.0731C22.4397 16.2364 15.1855 28.7486 15.1855 39.0241Z" fill="url(#paint7_linear_469_22162)"/>
<path d="M17.6914 40.0722C17.6914 44.9416 19.3772 48.3923 22.1103 50.0666C22.1231 50.0793 24.6901 51.5619 28.33 53.6707C43.4896 62.4765 49.1601 78.0943 57.6148 97.3674C57.6403 97.4185 57.6531 97.4569 57.6531 97.4569C63.413 100.678 109.633 23.1507 103.975 19.815C103.975 19.815 103.962 19.815 103.949 19.815C83.7067 21.3742 67.4615 24.94 52.7872 16.5048C48.0235 13.7698 44.4347 11.7121 44.4092 11.6994C41.5739 10.1657 37.7042 10.4469 33.4258 12.9135C24.7412 17.9363 17.6914 30.0906 17.6914 40.0722Z" fill="url(#paint8_linear_469_22162)"/>
<path d="M53.168 82.069C53.168 92.549 56.7823 99.9745 62.6571 103.566C62.8359 103.668 68.3021 107.144 68.4809 107.247C74.5984 110.672 70.6903 102.901 79.9624 97.5462C98.6469 86.7594 113.781 60.6104 113.781 39.1647C113.781 28.5568 123.577 28.4673 117.574 24.9271C117.408 24.8249 110.767 21.1696 110.588 21.0802C104.496 17.7828 96.1565 18.3835 86.9739 23.6874C68.3148 34.4742 53.168 60.6232 53.168 82.069Z" fill="url(#paint9_linear_469_22162)"/>
<path d="M59.8477 86.0182C59.8477 107.464 74.9945 116.116 93.6663 105.317C112.338 94.5173 127.485 68.381 127.485 46.9353C127.485 25.4895 112.338 16.8371 93.6663 27.6366C74.9945 38.4362 59.8477 64.5724 59.8477 86.0182Z" fill="url(#paint10_linear_469_22162)"/>
<path d="M62.0566 84.7529C62.0566 104.806 76.2201 112.883 93.6786 102.799C111.137 92.7151 125.301 68.2659 125.301 48.2133C125.301 28.1606 111.137 20.0705 93.6786 30.1671C76.2073 40.251 62.0566 64.6874 62.0566 84.7529Z" fill="url(#paint11_linear_469_22162)"/>
<path d="M87.4583 100.179C104.917 90.0951 119.08 65.6459 119.08 45.5932C119.08 36.3529 116.066 29.6559 111.111 26.1029C119.655 27.6621 125.3 35.5477 125.3 48.2005C125.3 68.2532 111.137 92.6896 93.678 102.786C84.2655 108.231 75.8108 108.371 70.0254 104.23C75.019 105.151 81.0088 103.898 87.4583 100.179Z" fill="url(#paint12_linear_469_22162)"/>
<path d="M62.0566 84.7529C62.0566 104.806 76.2201 112.883 93.6786 102.799C111.137 92.7151 125.301 68.2659 125.301 48.2133C125.301 28.1606 111.137 20.0705 93.6786 30.1671C76.2073 40.251 62.0566 64.6874 62.0566 84.7529Z" fill="url(#paint13_radial_469_22162)"/>
<path d="M75.8642 46.5519C77.7671 48.1111 90.6918 58.6934 90.7173 58.7062C91.6368 59.243 90.1298 59.2558 90.1298 60.8789C90.1298 64.1635 87.8182 68.1638 84.9574 69.8125C83.5398 70.6304 84.14 71.819 83.195 71.295C83.1694 71.2823 69.7084 66.1317 66.043 64.7258C68.3929 58.3611 71.7645 52.1114 75.8642 46.5519Z" fill="url(#paint14_linear_469_22162)"/>
<path d="M81.8789 68.0743C81.8789 71.359 84.2033 72.6753 87.0513 71.0267C89.9121 69.378 92.2237 65.3777 92.2237 62.0931C92.2237 58.8085 89.8993 57.4921 87.0513 59.1407C84.1905 60.7894 81.8789 64.7897 81.8789 68.0743Z" fill="url(#paint15_linear_469_22162)"/>
<path d="M83.5 67.1286C83.5 69.3907 85.0964 70.2981 87.0632 69.1607C89.03 68.0232 90.6264 65.2754 90.6264 63.026C90.6264 60.7638 89.03 59.8564 87.0632 60.9939C85.0837 62.1314 83.5 64.8792 83.5 67.1286Z" fill="url(#paint16_linear_469_22162)"/>
<defs>
<linearGradient id="paint0_linear_469_22162" x1="13.9075" y1="90.8038" x2="36.5342" y2="51.0588" gradientUnits="userSpaceOnUse">
<stop stop-color="#CDD2F3"/>
<stop offset="0.0404" stop-color="white"/>
<stop offset="0.1668" stop-color="#EBEEFF"/>
<stop offset="0.202" stop-color="#E5E9FF"/>
<stop offset="0.3468" stop-color="#DBDFFA"/>
<stop offset="0.5933" stop-color="#C0C6ED"/>
<stop offset="0.7222" stop-color="#AFB6E5"/>
<stop offset="0.9091" stop-color="#AFB6E5"/>
<stop offset="1" stop-color="#AFB6E5"/>
</linearGradient>
<linearGradient id="paint1_linear_469_22162" x1="23.7337" y1="91.051" x2="47.4596" y2="52.3499" gradientUnits="userSpaceOnUse">
<stop stop-color="#E5E9FF"/>
<stop offset="0.2291" stop-color="#DBDFFA"/>
<stop offset="0.6192" stop-color="#C0C6ED"/>
<stop offset="0.8232" stop-color="#AFB6E5"/>
</linearGradient>
<linearGradient id="paint2_linear_469_22162" x1="35.7445" y1="73.8159" x2="25.1757" y2="70.6535" gradientUnits="userSpaceOnUse">
<stop offset="0.0354" stop-color="#5277F7"/>
<stop offset="0.2661" stop-color="#5686F8"/>
<stop offset="0.711" stop-color="#5FAFFC"/>
<stop offset="1" stop-color="#66CCFF"/>
</linearGradient>
<linearGradient id="paint3_linear_469_22162" x1="49.9987" y1="75.0519" x2="24.5905" y2="69.3603" gradientUnits="userSpaceOnUse">
<stop offset="0.0354" stop-color="#5277F7"/>
<stop offset="0.2661" stop-color="#5686F8"/>
<stop offset="0.711" stop-color="#5FAFFC"/>
<stop offset="1" stop-color="#66CCFF"/>
</linearGradient>
<linearGradient id="paint4_linear_469_22162" x1="34.6223" y1="63.7361" x2="36.4463" y2="67.2097" gradientUnits="userSpaceOnUse">
<stop offset="0.0354" stop-color="#5277F7"/>
<stop offset="0.2661" stop-color="#5686F8"/>
<stop offset="0.711" stop-color="#5FAFFC"/>
<stop offset="1" stop-color="#66CCFF"/>
</linearGradient>
<radialGradient id="paint5_radial_469_22162" cx="0" cy="0" r="1" gradientUnits="userSpaceOnUse" gradientTransform="translate(38.3072 49.2289) rotate(180) scale(22.5448 22.561)">
<stop stop-color="#AFB6E5"/>
<stop offset="1" stop-color="white"/>
</radialGradient>
<linearGradient id="paint6_linear_469_22162" x1="32.0178" y1="3.42913" x2="9.03278" y2="43.2118" gradientUnits="userSpaceOnUse">
<stop offset="0.0253" stop-color="#588FF9"/>
<stop offset="0.1384" stop-color="#5DA6FB"/>
<stop offset="0.298" stop-color="#66CCFF"/>
<stop offset="0.6414" stop-color="#5277F7"/>
<stop offset="0.8838" stop-color="#588FF9"/>
<stop offset="0.9747" stop-color="#5277F7"/>
</linearGradient>
<linearGradient id="paint7_linear_469_22162" x1="76.2349" y1="39.7268" x2="-15.4767" y2="19.1828" gradientUnits="userSpaceOnUse">
<stop offset="0.0354" stop-color="#5277F7"/>
<stop offset="0.2661" stop-color="#5686F8"/>
<stop offset="0.711" stop-color="#5FAFFC"/>
<stop offset="1" stop-color="#66CCFF"/>
</linearGradient>
<linearGradient id="paint8_linear_469_22162" x1="70.4336" y1="13.9051" x2="36.8846" y2="71.9722" gradientUnits="userSpaceOnUse">
<stop stop-color="#CDD2F3"/>
<stop offset="0.202" stop-color="#E5E9FF"/>
<stop offset="0.2756" stop-color="#EFF2FF"/>
<stop offset="0.3535" stop-color="white"/>
<stop offset="0.4622" stop-color="#EBEDF9"/>
<stop offset="0.6832" stop-color="#B9BFE8"/>
<stop offset="0.7222" stop-color="#AFB6E5"/>
<stop offset="0.9091" stop-color="#AFB6E5"/>
<stop offset="1" stop-color="#AFB6E5"/>
</linearGradient>
<linearGradient id="paint9_linear_469_22162" x1="107.693" y1="18.6521" x2="59.1328" y2="102.701" gradientUnits="userSpaceOnUse">
<stop offset="0.0253" stop-color="#588FF9"/>
<stop offset="0.1384" stop-color="#5DA6FB"/>
<stop offset="0.298" stop-color="#66CCFF"/>
<stop offset="0.6414" stop-color="#5277F7"/>
<stop offset="0.8838" stop-color="#588FF9"/>
<stop offset="0.9747" stop-color="#5277F7"/>
</linearGradient>
<linearGradient id="paint10_linear_469_22162" x1="187.372" y1="87.4974" x2="-4.19435" y2="44.5851" gradientUnits="userSpaceOnUse">
<stop offset="0.0354" stop-color="#5277F7"/>
<stop offset="0.2661" stop-color="#5686F8"/>
<stop offset="0.711" stop-color="#5FAFFC"/>
<stop offset="1" stop-color="#66CCFF"/>
</linearGradient>
<linearGradient id="paint11_linear_469_22162" x1="72.1368" y1="103.808" x2="116.464" y2="27.087" gradientUnits="userSpaceOnUse">
<stop stop-color="#CDD2F3"/>
<stop offset="0.202" stop-color="#E5E9FF"/>
<stop offset="0.2756" stop-color="#EFF2FF"/>
<stop offset="0.3535" stop-color="white"/>
<stop offset="0.4622" stop-color="#EBEDF9"/>
<stop offset="0.6832" stop-color="#B9BFE8"/>
<stop offset="0.7222" stop-color="#AFB6E5"/>
<stop offset="0.9091" stop-color="#AFB6E5"/>
<stop offset="1" stop-color="#AFB6E5"/>
</linearGradient>
<linearGradient id="paint12_linear_469_22162" x1="80.5034" y1="109.99" x2="124.603" y2="33.6615" gradientUnits="userSpaceOnUse">
<stop offset="0.0253" stop-color="#588FF9"/>
<stop offset="0.1384" stop-color="#5DA6FB"/>
<stop offset="0.298" stop-color="#66CCFF"/>
<stop offset="0.6414" stop-color="#5277F7"/>
<stop offset="0.8838" stop-color="#588FF9"/>
<stop offset="0.9747" stop-color="#5277F7"/>
</linearGradient>
<radialGradient id="paint13_radial_469_22162" cx="0" cy="0" r="1" gradientUnits="userSpaceOnUse" gradientTransform="translate(61.6454 50.4525) rotate(180) scale(52.3377 52.3752)">
<stop stop-color="#AFB6E5"/>
<stop offset="1" stop-color="white"/>
</radialGradient>
<linearGradient id="paint14_linear_469_22162" x1="84.5283" y1="51.5022" x2="74.6289" y2="69.3434" gradientUnits="userSpaceOnUse">
<stop offset="0.1212" stop-color="#361CAC"/>
<stop offset="0.3535" stop-color="#3830BD"/>
<stop offset="0.5237" stop-color="#3C26AD"/>
<stop offset="0.8537" stop-color="#480D84"/>
<stop offset="1" stop-color="#4E0070"/>
</linearGradient>
<linearGradient id="paint15_linear_469_22162" x1="92.2294" y1="65.0773" x2="81.8746" y2="65.0773" gradientUnits="userSpaceOnUse">
<stop offset="0.00505051" stop-color="#273B98"/>
<stop offset="0.2274" stop-color="#2F2BA2"/>
<stop offset="0.399" stop-color="#361CAC"/>
<stop offset="0.768" stop-color="#440B89"/>
<stop offset="1" stop-color="#4E0070"/>
</linearGradient>
<linearGradient id="paint16_linear_469_22162" x1="90.6086" y1="65.0773" x2="83.4937" y2="65.0773" gradientUnits="userSpaceOnUse">
<stop offset="0.00505051" stop-color="#836DF3"/>
<stop offset="0.0529" stop-color="#8C6DF3"/>
<stop offset="0.2205" stop-color="#A66DF3"/>
<stop offset="0.3713" stop-color="#B56DF3"/>
<stop offset="0.4899" stop-color="#BB6DF3"/>
<stop offset="1" stop-color="#F36DD4"/>
</linearGradient>
</defs>
</svg>
