<svg width="196" height="196" viewBox="0 0 196 196" fill="none" xmlns="http://www.w3.org/2000/svg">
<path d="M174.095 123.894L191.3 106.689C196.353 101.636 196.353 93.4478 191.3 88.3952L174.095 71.1933C171.671 68.769 170.308 65.4789 170.308 62.0465V37.7171C170.308 30.5741 164.516 24.7824 157.373 24.7824H133.043C129.614 24.7824 126.324 23.4188 123.897 20.9945L106.692 3.78949C101.639 -1.26316 93.4509 -1.26316 88.3983 3.78949L71.1933 20.9945C68.769 23.4188 65.4789 24.7824 62.0465 24.7824H37.7171C30.5741 24.7824 24.7824 30.5741 24.7824 37.7171V62.0465C24.7824 65.4758 23.4188 68.7659 20.9945 71.1933L3.78949 88.3983C-1.26316 93.4509 -1.26316 101.639 3.78949 106.692L20.9945 123.897C23.4188 126.321 24.7824 129.611 24.7824 133.043V157.373C24.7824 164.516 30.5741 170.308 37.7171 170.308H62.0465C65.4758 170.308 68.7659 171.671 71.1933 174.095L88.3983 191.3C93.4509 196.353 101.639 196.353 106.692 191.3L123.897 174.092C126.321 171.668 129.611 170.304 133.043 170.304H157.373C164.516 170.304 170.308 164.513 170.308 157.37V133.04C170.308 129.608 171.668 126.318 174.095 123.894Z" fill="url(#paint0_linear_467_1604)"/>
<path d="M167.596 121.655L183.338 105.912C187.961 101.29 187.961 93.7942 183.338 89.1744L167.596 73.432C165.376 71.2118 164.13 68.2 164.13 65.0614V42.7976C164.13 36.2607 158.83 30.9607 152.293 30.9607H130.029C126.89 30.9607 123.879 29.7145 121.658 27.4943L105.916 11.7519C101.293 7.12908 93.7976 7.12908 89.1779 11.7519L73.4324 27.4912C71.2122 29.7114 68.2035 30.9576 65.0618 30.9576H42.798C36.2611 30.9576 30.961 36.2576 30.961 42.7945V65.0583C30.961 68.1969 29.7149 71.2087 27.4947 73.4289L11.7523 89.1713C7.12945 93.7942 7.12945 101.29 11.7523 105.909L27.4947 121.652C29.7149 123.872 30.961 126.884 30.961 130.022V152.286C30.961 158.823 36.2611 164.123 42.798 164.123H65.0618C68.2004 164.123 71.2122 165.369 73.4324 167.589L89.1748 183.332C93.7976 187.955 101.293 187.955 105.913 183.332L121.655 167.589C123.875 165.369 126.884 164.123 130.026 164.123H152.29C158.827 164.123 164.127 158.823 164.127 152.286V130.022C164.13 126.887 165.379 123.875 167.596 121.655Z" fill="white"/>
<path d="M165.679 120.996L180.992 105.684C185.488 101.188 185.488 93.8993 180.992 89.4032L165.679 74.0906C163.521 71.9323 162.309 69.004 162.309 65.9489V44.2942C162.309 37.9366 157.154 32.782 150.796 32.782H129.142C126.09 32.782 123.161 31.5698 121 29.4115L105.687 14.0989C101.191 9.60282 93.9029 9.60282 89.4068 14.0989L74.0943 29.4084C71.9359 31.5667 69.0076 32.7789 65.9525 32.7789H44.2978C37.9403 32.7789 32.7856 37.9336 32.7856 44.2911V65.9458C32.7856 68.9978 31.5734 71.9261 29.4151 74.0876L14.1025 89.4001C9.60645 93.8962 9.60645 101.185 14.1025 105.681L29.4151 120.993C31.5734 123.151 32.7856 126.08 32.7856 129.135V150.79C32.7856 157.147 37.9403 162.302 44.2978 162.302H65.9525C69.0045 162.302 71.9328 163.514 74.0943 165.672L89.4068 180.985C93.9029 185.481 101.191 185.481 105.687 180.985L121 165.672C123.158 163.514 126.087 162.302 129.142 162.302H150.796C157.154 162.302 162.309 157.147 162.309 150.79V129.135C162.309 126.083 163.521 123.155 165.679 120.996Z" fill="url(#paint1_linear_467_1604)"/>
<path d="M174.064 90.0773L160.022 76.0356C158.043 74.0566 156.93 71.3695 156.93 68.5711V48.7129C156.93 42.8811 152.202 38.1562 146.374 38.1562H126.515C123.717 38.1562 121.03 37.043 119.051 35.064L105.009 21.0223C100.887 16.9004 94.2019 16.9004 90.08 21.0223L76.0383 35.064C74.0593 37.043 71.3722 38.1562 68.5738 38.1562H48.7157C42.8838 38.1562 38.1589 42.8842 38.1589 48.7129V68.5711C38.1589 71.3695 37.0457 74.0566 35.0667 76.0356L21.025 90.0773C16.9031 94.1992 16.9031 100.885 21.025 105.006L35.0667 119.048C37.0457 121.027 38.1589 123.714 38.1589 126.513V146.371C38.1589 152.203 42.8869 156.928 48.7157 156.928H68.5738C71.3722 156.928 74.0593 158.041 76.0383 160.02L90.08 174.061C94.2019 178.183 100.887 178.183 105.009 174.061L119.051 160.02C121.03 158.041 123.717 156.928 126.515 156.928H146.374C152.205 156.928 156.93 152.203 156.93 146.371V126.513C156.93 123.714 158.043 121.027 160.022 119.048L174.064 105.006C178.189 100.885 178.189 94.1992 174.064 90.0773ZM170.817 102.162L154.537 118.442C153.312 119.667 152.623 121.327 152.623 123.062V146.086C152.623 149.695 149.698 152.617 146.092 152.617H123.068C121.336 152.617 119.672 153.307 118.448 154.531L102.167 170.812C99.6164 173.363 95.4821 173.363 92.931 170.812L76.6506 154.531C75.4261 153.307 73.7656 152.617 72.0308 152.617H49.0063C45.3977 152.617 42.4756 149.692 42.4756 146.086V123.062C42.4756 121.33 41.786 119.667 40.5615 118.442L24.2811 102.162C21.73 99.6105 21.73 95.4763 24.2811 92.9252L40.5615 76.6448C41.786 75.4203 42.4756 73.7598 42.4756 72.025V49.0005C42.4756 45.3919 45.4008 42.4698 49.0063 42.4698H72.0308C73.7625 42.4698 75.4261 41.7802 76.6506 40.5557L92.931 24.2753C95.4821 21.7242 99.6164 21.7242 102.167 24.2753L118.448 40.5557C119.672 41.7802 121.333 42.4698 123.068 42.4698H146.092C149.701 42.4698 152.623 45.395 152.623 49.0005V72.025C152.623 73.7567 153.312 75.4203 154.537 76.6448L170.817 92.9252C173.368 95.4763 173.368 99.6105 170.817 102.162Z" fill="white"/>
<path opacity="0.3" d="M176.235 91.8492L161.795 77.4086C159.76 75.3739 158.616 72.6126 158.616 69.7307V49.3098C158.616 43.314 153.755 38.4531 147.759 38.4531H127.338C124.459 38.4531 121.698 37.309 119.66 35.2743L105.22 20.8337C100.98 16.5943 94.1063 16.5943 89.8669 20.8337L75.4263 35.2743C73.3916 37.309 70.6303 38.4531 67.7484 38.4531H47.3275C41.3317 38.4531 36.4708 43.314 36.4708 49.3098V69.7307C36.4708 72.6095 35.3267 75.3708 33.292 77.4086L18.8514 91.8492C14.612 96.0886 14.612 102.963 18.8514 107.202L33.292 121.643C35.3267 123.677 36.4708 126.439 36.4708 129.32V149.741C36.4708 155.737 41.3317 160.598 47.3275 160.598H67.7484C70.6272 160.598 73.3886 161.742 75.4263 163.777L89.8669 178.217C94.1063 182.457 100.98 182.457 105.22 178.217L119.66 163.777C121.695 161.742 124.456 160.598 127.338 160.598H147.759C153.755 160.598 158.616 155.737 158.616 149.741V129.317C158.616 126.439 159.76 123.677 161.795 121.639L176.235 107.199C180.475 102.963 180.475 96.0886 176.235 91.8492ZM172.896 104.274L156.151 121.018C154.893 122.276 154.185 123.986 154.185 125.768V149.445C154.185 153.155 151.176 156.161 147.468 156.161H123.791C122.01 156.161 120.3 156.869 119.042 158.127L102.298 174.872C99.6753 177.494 95.4205 177.494 92.7983 174.872L76.054 158.127C74.7955 156.869 73.0855 156.161 71.3044 156.161H47.6243C43.9137 156.161 40.9081 153.152 40.9081 149.445V125.768C40.9081 123.986 40.2 122.276 38.9414 121.018L22.1972 104.274C19.575 101.651 19.575 97.3966 22.1972 94.7744L38.9414 78.0301C40.2 76.7716 40.9081 75.0616 40.9081 73.2805V49.6005C40.9081 45.8898 43.9168 42.8842 47.6243 42.8842H71.3044C73.0855 42.8842 74.7955 42.1761 76.054 40.9176L92.7983 24.1733C95.4205 21.5511 99.6753 21.5511 102.298 24.1733L119.042 40.9176C120.3 42.1761 122.01 42.8842 123.791 42.8842H147.471C151.182 42.8842 154.188 45.8929 154.188 49.6005V73.2805C154.188 75.0616 154.896 76.7716 156.154 78.0301L172.899 94.7744C175.518 97.3997 175.518 101.651 172.896 104.274Z" fill="#1F1E21"/>
<path d="M176.232 89.8609L161.801 75.4296C159.767 73.3949 158.622 70.6336 158.622 67.7486V47.3339C158.622 41.3319 153.755 36.4741 147.763 36.4741H127.339C124.463 36.4741 121.702 35.3299 119.667 33.2953L105.223 18.8516C100.984 14.6122 94.1099 14.6122 89.8705 18.8516L75.4268 33.2953C73.3921 35.3299 70.6308 36.4741 67.7551 36.4741H47.3311C41.3384 36.4741 36.4805 41.3319 36.4805 47.3339V67.7486C36.4805 70.6336 35.3364 73.3949 33.2925 75.4296L18.8612 89.8609C14.6218 94.1003 14.6218 100.974 18.8612 105.214L33.2925 119.657C34.1119 120.477 34.7798 121.398 35.287 122.4C36.0662 123.918 36.4805 125.61 36.4805 127.338V147.753C36.4805 153.755 41.3384 158.613 47.3311 158.613H67.7551C70.6308 158.613 73.3921 159.757 75.4268 161.792L89.8705 176.235C94.1099 180.475 100.984 180.475 105.223 176.235L119.667 161.792C121.702 159.757 124.463 158.613 127.339 158.613H147.763C153.755 158.613 158.622 153.755 158.622 147.753V127.338C158.622 125.607 159.037 123.918 159.816 122.4C160.323 121.398 160.991 120.477 161.801 119.657L176.232 105.214C180.472 100.974 180.472 94.1034 176.232 89.8609ZM172.89 102.292L156.149 119.042C155.227 119.963 154.599 121.138 154.337 122.403C154.235 122.858 154.185 123.325 154.185 123.789V147.462C154.185 151.176 151.179 154.182 147.466 154.182H123.783C122.002 154.182 120.301 154.89 119.036 156.145L102.295 172.896C99.6727 175.518 95.4117 175.518 92.7926 172.896L76.0514 156.145C74.7867 154.89 73.086 154.182 71.3049 154.182H47.6248C43.9204 154.182 40.9055 151.176 40.9055 147.462V123.789C40.9055 123.322 40.856 122.858 40.754 122.403C40.4911 121.138 39.8634 119.963 38.9419 119.042L22.2008 102.292C19.5786 99.6693 19.5786 95.4207 22.2008 92.7985L38.9419 76.048C40.1974 74.7926 40.9055 73.0826 40.9055 71.3015V47.6183C40.9055 43.9139 43.9204 40.9083 47.6248 40.9083H71.308C73.0891 40.9083 74.7898 40.2002 76.0545 38.9354L92.7957 22.1943C95.4179 19.5721 99.6789 19.5721 102.298 22.1943L119.039 38.9354C120.304 40.2002 122.005 40.9083 123.786 40.9083H147.469C151.183 40.9083 154.188 43.9139 154.188 47.6183V71.3015C154.188 73.0826 154.896 74.7926 156.152 76.048L172.893 92.7985C175.521 95.4176 175.521 99.6693 172.89 102.292Z" fill="url(#paint2_linear_467_1604)"/>
<path d="M148.582 117.307V142.521C148.582 145.861 145.87 148.572 142.531 148.572H121.185C119.587 148.572 118.047 149.209 116.915 150.344L101.831 165.434C99.4625 167.794 95.6282 167.794 93.2689 165.434L78.1789 150.344C77.0441 149.209 75.5073 148.572 73.9086 148.572H52.5632C49.2329 148.572 46.5117 145.861 46.5117 142.521V117.307H148.582Z" fill="url(#paint3_linear_467_1604)"/>
<path d="M148.582 52.5566V77.3282H46.5117V52.5566C46.5117 49.2263 49.2329 46.5144 52.5632 46.5144H73.9086C75.5073 46.5144 77.0472 45.8774 78.1789 44.7333L93.2689 29.6527C95.6282 27.2933 99.4625 27.2933 101.831 29.6527L116.912 44.7333C118.047 45.8774 119.583 46.5144 121.182 46.5144H142.528C145.867 46.5144 148.582 49.2263 148.582 52.5566Z" fill="url(#paint4_linear_467_1604)"/>
<path d="M31.5089 102.489C34.2362 102.489 36.4533 100.269 36.4533 97.5419C36.4533 94.8146 34.2331 92.5975 31.5089 92.5975C28.7847 92.5975 26.5645 94.8146 26.5645 97.5419C26.5614 100.269 28.7816 102.489 31.5089 102.489Z" fill="white"/>
<path d="M28.127 97.5419C28.127 95.6742 29.6421 94.159 31.5098 94.159C33.3775 94.159 34.8927 95.6742 34.8927 97.5419C34.8927 99.4096 33.3775 100.925 31.5098 100.925C29.6421 100.925 28.127 99.4096 28.127 97.5419Z" fill="url(#paint5_linear_467_1604)"/>
<path d="M163.583 102.489C166.31 102.489 168.528 100.269 168.528 97.5419C168.528 94.8146 166.307 92.5975 163.583 92.5975C160.856 92.5975 158.639 94.8146 158.639 97.5419C158.639 100.269 160.856 102.489 163.583 102.489Z" fill="white"/>
<path d="M160.201 97.5419C160.201 95.6742 161.716 94.159 163.584 94.159C165.452 94.159 166.967 95.6742 166.967 97.5419C166.967 99.4096 165.452 100.925 163.584 100.925C161.716 100.925 160.201 99.4096 160.201 97.5419Z" fill="url(#paint6_linear_467_1604)"/>
<g opacity="0.5">
<path d="M137.652 66.3262L136.746 68.9669L133.991 68.9854C133.678 68.9885 133.545 69.3843 133.793 69.5761L135.994 71.2829L135.197 73.8866C135.107 74.1834 135.438 74.4308 135.698 74.2546L137.964 72.7146L140.231 74.2546C140.487 74.4308 140.821 74.1834 140.732 73.8866L139.934 71.2829L142.135 69.5761C142.383 69.3843 142.25 68.9885 141.938 68.9854L139.182 68.9669L138.276 66.3262C138.171 66.0293 137.754 66.0293 137.652 66.3262Z" fill="#1F1E21"/>
<path d="M126.183 66.3262L125.277 68.9669L122.522 68.9854C122.21 68.9885 122.077 69.3843 122.324 69.5761L124.526 71.2829L123.728 73.8866C123.638 74.1834 123.969 74.4308 124.229 74.2546L126.495 72.7146L128.762 74.2546C129.019 74.4308 129.353 74.1834 129.263 73.8866L128.465 71.2829L130.667 69.5761C130.914 69.3843 130.781 68.9885 130.469 68.9854L127.714 68.9669L126.808 66.3262C126.703 66.0293 126.282 66.0293 126.183 66.3262Z" fill="#1F1E21"/>
<path d="M114.71 66.3262L113.804 68.9669L111.049 68.9854C110.737 68.9885 110.604 69.3843 110.851 69.5761L113.053 71.2829L112.255 73.8866C112.166 74.1834 112.496 74.4308 112.756 74.2546L115.023 72.7146L117.289 74.2546C117.546 74.4308 117.88 74.1834 117.79 73.8866L116.992 71.2829L119.194 69.5761C119.441 69.3843 119.308 68.9885 118.996 68.9854L116.241 68.9669L115.335 66.3262C115.233 66.0293 114.812 66.0293 114.71 66.3262Z" fill="#1F1E21"/>
<path d="M103.242 66.3262L102.336 68.9669L99.5805 68.9854C99.2682 68.9885 99.1352 69.3843 99.3826 69.5761L101.584 71.2829L100.786 73.8866C100.697 74.1834 101.028 74.4308 101.287 74.2546L103.554 72.7146L105.821 74.2546C106.077 74.4308 106.411 74.1834 106.321 73.8866L105.524 71.2829L107.725 69.5761C107.973 69.3843 107.84 68.9885 107.527 68.9854L104.772 68.9669L103.866 66.3262C103.761 66.0293 103.341 66.0293 103.242 66.3262Z" fill="#1F1E21"/>
<path d="M91.7709 66.3262L90.8649 68.9669L88.1098 68.9854C87.7975 68.9885 87.6645 69.3843 87.9119 69.5761L90.1135 71.2829L89.3157 73.8866C89.2261 74.1834 89.5569 74.4308 89.8167 74.2546L92.0832 72.7146L94.3498 74.2546C94.6065 74.4308 94.9404 74.1834 94.8508 73.8866L94.053 71.2829L96.2546 69.5761C96.502 69.3843 96.369 68.9885 96.0567 68.9854L93.3016 68.9669L92.3956 66.3262C92.2935 66.0293 91.873 66.0293 91.7709 66.3262Z" fill="#1F1E21"/>
<path d="M80.3022 66.3262L79.3962 68.9669L76.641 68.9854C76.3287 68.9885 76.1957 69.3843 76.4431 69.5761L78.6448 71.2829L77.847 73.8866C77.7573 74.1834 78.0882 74.4308 78.3479 74.2546L80.6145 72.7146L82.8811 74.2546C83.1377 74.4308 83.4717 74.1834 83.382 73.8866L82.5842 71.2829L84.7859 69.5761C85.0332 69.3843 84.9003 68.9885 84.588 68.9854L81.8328 68.9669L80.9268 66.3262C80.8217 66.0293 80.4011 66.0293 80.3022 66.3262Z" fill="#1F1E21"/>
<path d="M68.8295 66.3262L67.9235 68.9669L65.1684 68.9854C64.8561 68.9885 64.7231 69.3843 64.9705 69.5761L67.1721 71.2829L66.3743 73.8866C66.2846 74.1834 66.6155 74.4308 66.8753 74.2546L69.1418 72.7146L71.4084 74.2546C71.6651 74.4308 71.999 74.1834 71.9094 73.8866L71.1116 71.2829L73.3132 69.5761C73.5606 69.3843 73.4276 68.9885 73.1153 68.9854L70.3602 68.9669L69.4542 66.3262C69.3521 66.0293 68.9316 66.0293 68.8295 66.3262Z" fill="#1F1E21"/>
<path d="M57.3608 66.3262L56.4548 68.9669L53.6996 68.9854C53.3873 68.9885 53.2543 69.3843 53.5017 69.5761L55.7034 71.2829L54.9056 73.8866C54.8159 74.1834 55.1468 74.4308 55.4065 74.2546L57.6731 72.7146L59.9397 74.2546C60.1963 74.4308 60.5303 74.1834 60.4406 73.8866L59.6428 71.2829L61.8445 69.5761C62.0918 69.3843 61.9589 68.9885 61.6466 68.9854L58.8914 68.9669L57.9854 66.3262C57.8803 66.0293 57.4628 66.0293 57.3608 66.3262Z" fill="#1F1E21"/>
</g>
<path d="M137.111 66.6817L136.205 69.3225L133.45 69.341C133.137 69.3441 133.004 69.7399 133.252 69.9316L135.453 71.6385L134.656 74.2422C134.566 74.539 134.897 74.7864 135.157 74.6101L137.423 73.0702L139.69 74.6101C139.946 74.7864 140.28 74.539 140.191 74.2422L139.393 71.6385L141.594 69.9316C141.842 69.7399 141.709 69.3441 141.397 69.341L138.641 69.3225L137.735 66.6817C137.63 66.3849 137.21 66.3849 137.111 66.6817Z" fill="white"/>
<path d="M125.638 66.6817L124.732 69.3225L121.977 69.341C121.665 69.3441 121.532 69.7399 121.779 69.9316L123.981 71.6385L123.183 74.2422C123.093 74.539 123.424 74.7864 123.684 74.6101L125.95 73.0702L128.217 74.6101C128.474 74.7864 128.808 74.539 128.718 74.2422L127.92 71.6385L130.122 69.9316C130.369 69.7399 130.236 69.3441 129.924 69.341L127.169 69.3225L126.263 66.6817C126.161 66.3849 125.74 66.3849 125.638 66.6817Z" fill="white"/>
<path d="M114.169 66.6817L113.263 69.3225L110.508 69.341C110.196 69.3441 110.063 69.7399 110.31 69.9316L112.512 71.6385L111.714 74.2422C111.624 74.539 111.955 74.7864 112.215 74.6101L114.482 73.0702L116.748 74.6101C117.005 74.7864 117.339 74.539 117.249 74.2422L116.451 71.6385L118.653 69.9316C118.9 69.7399 118.767 69.3441 118.455 69.341L115.7 69.3225L114.794 66.6817C114.689 66.3849 114.268 66.3849 114.169 66.6817Z" fill="white"/>
<path d="M102.699 66.6817L101.793 69.3225L99.0375 69.341C98.7252 69.3441 98.5922 69.7399 98.8396 69.9316L101.041 71.6385L100.243 74.2422C100.154 74.539 100.485 74.7864 100.744 74.6101L103.011 73.0702L105.278 74.6101C105.534 74.7864 105.868 74.539 105.779 74.2422L104.981 71.6385L107.182 69.9316C107.43 69.7399 107.297 69.3441 106.984 69.341L104.229 69.3225L103.323 66.6817C103.221 66.3849 102.801 66.3849 102.699 66.6817Z" fill="white"/>
<path d="M91.2241 66.6817L90.318 69.3225L87.5629 69.341C87.2506 69.3441 87.1176 69.7399 87.365 69.9316L89.5666 71.6385L88.7689 74.2422C88.6792 74.539 89.01 74.7864 89.2698 74.6101L91.5364 73.0702L93.803 74.6101C94.0596 74.7864 94.3936 74.539 94.3039 74.2422L93.5061 71.6385L95.7078 69.9316C95.9551 69.7399 95.8222 69.3441 95.5098 69.341L92.7547 69.3225L91.8487 66.6817C91.7435 66.3849 91.3261 66.3849 91.2241 66.6817Z" fill="white"/>
<path d="M79.7514 66.6817L78.8454 69.3225L76.0902 69.341C75.7779 69.3441 75.645 69.7399 75.8923 69.9316L78.094 71.6385L77.2962 74.2422C77.2065 74.539 77.5374 74.7864 77.7971 74.6101L80.0637 73.0702L82.3303 74.6101C82.587 74.7864 82.9209 74.539 82.8312 74.2422L82.0335 71.6385L84.2351 69.9316C84.4825 69.7399 84.3495 69.3441 84.0372 69.341L81.282 69.3225L80.376 66.6817C80.274 66.3849 79.8534 66.3849 79.7514 66.6817Z" fill="white"/>
<path d="M68.2846 66.6817L67.3786 69.3225L64.6234 69.341C64.3111 69.3441 64.1782 69.7399 64.4255 69.9316L66.6272 71.6385L65.8294 74.2422C65.7397 74.539 66.0706 74.7864 66.3303 74.6101L68.5969 73.0702L70.8635 74.6101C71.1202 74.7864 71.4541 74.539 71.3644 74.2422L70.5667 71.6385L72.7683 69.9316C73.0157 69.7399 72.8827 69.3441 72.5704 69.341L69.8152 69.3225L68.9092 66.6817C68.8041 66.3849 68.3867 66.3849 68.2846 66.6817Z" fill="white"/>
<path d="M56.81 66.6817L55.904 69.3225L53.1488 69.341C52.8365 69.3441 52.7036 69.7399 52.9509 69.9316L55.1526 71.6385L54.3548 74.2422C54.2651 74.539 54.596 74.7864 54.8557 74.6101L57.1223 73.0702L59.3889 74.6101C59.6455 74.7864 59.9795 74.539 59.8898 74.2422L59.092 71.6385L61.2937 69.9316C61.5411 69.7399 61.4081 69.3441 61.0958 69.341L58.3406 69.3225L57.4346 66.6817C57.3326 66.3849 56.912 66.3849 56.81 66.6817Z" fill="white"/>
<path d="M86.4936 95.3433H83.3457V82.4612H86.4936V95.3433Z" fill="#1581BB"/>
<path d="M87.7637 88.8837C87.7637 86.9882 88.3883 85.405 89.6592 84.1372C90.9486 82.8663 92.5844 82.2231 94.5727 82.2231C96.0075 82.2231 97.2598 82.5911 98.3266 83.3085L97.4423 86.0698C96.5393 85.4638 95.6209 85.1669 94.6809 85.1669C93.5585 85.1669 92.6555 85.5349 91.9752 86.2708C91.3506 86.9511 91.0352 87.8355 91.0352 88.8837C91.0352 89.932 91.3475 90.8164 91.9752 91.5152C92.6555 92.2697 93.5585 92.6377 94.6809 92.6377C95.655 92.6377 96.595 92.3439 97.4948 91.7348L98.3792 94.4961C97.3124 95.2135 96.0415 95.5814 94.5696 95.5814C92.5257 95.5814 90.8713 94.9383 89.6004 93.6488C88.3697 92.3996 87.7637 90.8164 87.7637 88.8837Z" fill="#1581BB"/>
<path d="M98.9883 88.8837C98.9883 86.9882 99.6129 85.405 100.847 84.1558C102.118 82.8663 103.735 82.2231 105.742 82.2231C107.748 82.2231 109.366 82.8663 110.637 84.1558C111.87 85.4081 112.495 86.9882 112.495 88.8837C112.495 90.8164 111.87 92.3996 110.637 93.6488C109.366 94.9383 107.748 95.5814 105.742 95.5814C103.735 95.5814 102.118 94.9383 100.847 93.6488C99.616 92.3996 98.9883 90.8164 98.9883 88.8837ZM102.266 88.8837C102.266 89.9691 102.597 90.872 103.24 91.5709C103.883 92.2883 104.731 92.6377 105.742 92.6377C106.753 92.6377 107.6 92.2883 108.243 91.5709C108.886 90.872 109.217 89.9691 109.217 88.8837C109.217 87.8169 108.905 86.9326 108.262 86.2337C107.6 85.5163 106.753 85.1669 105.742 85.1669C104.731 85.1669 103.883 85.5163 103.24 86.2337C102.597 86.9326 102.266 87.8169 102.266 88.8837Z" fill="#1581BB"/>
<path d="M67.2715 110.217L66.35 113.105H63.1836L67.6364 100.223H70.9481L75.4009 113.105H72.2345L71.313 110.217H67.2715ZM69.2938 103.556L68.0785 107.641H70.509L69.2938 103.556Z" fill="#1581BB"/>
<path d="M87.8462 111.321C87.0174 111.964 86.2258 112.443 85.5085 112.718C84.4787 113.142 83.3006 113.343 81.9555 113.343C80.0786 113.343 78.5139 112.737 77.2647 111.54C75.9567 110.269 75.2949 108.634 75.2949 106.627C75.2949 104.75 75.9195 103.185 77.1533 101.917C78.4242 100.628 80.06 99.9847 82.0297 99.9847C83.3717 99.9847 84.5313 100.26 85.5456 100.795C85.9321 100.996 86.2815 101.256 86.5938 101.531C86.8505 101.75 87.0731 101.992 87.2741 102.23L85.2858 104.292C85.193 104.181 85.0848 104.054 84.9178 103.924C84.7138 103.757 84.5128 103.593 84.2747 103.445C83.6315 103.077 82.9327 102.891 82.1782 102.891C81.0557 102.891 80.1713 103.241 79.5096 103.958C78.8664 104.639 78.5541 105.504 78.5541 106.571C78.5541 107.731 78.9035 108.686 79.6024 109.407C80.2826 110.087 81.1299 110.436 82.1782 110.436C82.877 110.436 83.5016 110.325 84.0737 110.124C84.2778 110.031 84.4602 109.942 84.6272 109.849C84.7571 109.775 84.8653 109.7 84.9209 109.648V108.507H82.6946V105.875H87.8462V111.321Z" fill="#1581BB"/>
<path d="M89.4121 113.105V100.223H96.2768V103.037H92.56V105.189H95.7264V107.984H92.56V110.285H96.4252V113.099H89.4121V113.105Z" fill="#1581BB"/>
<path d="M101.024 105.211V113.105H97.9316V100.223H101.132L105.841 108.21V100.223H108.934V113.105H105.804L101.024 105.211Z" fill="#1581BB"/>
<path d="M110.17 106.645C110.17 104.75 110.795 103.167 112.065 101.899C113.355 100.628 114.991 99.9847 116.979 99.9847C118.414 99.9847 119.666 100.353 120.733 101.07L119.849 103.831C118.946 103.225 118.027 102.929 117.087 102.929C115.965 102.929 115.062 103.296 114.382 104.032C113.757 104.713 113.441 105.597 113.441 106.645C113.441 107.694 113.754 108.578 114.382 109.277C115.062 110.031 115.965 110.399 117.087 110.399C118.061 110.399 119.001 110.106 119.901 109.496L120.785 112.258C119.719 112.975 118.448 113.343 116.976 113.343C114.932 113.343 113.278 112.7 112.007 111.41C110.776 110.161 110.17 108.578 110.17 106.645Z" fill="#1581BB"/>
<path d="M124.948 113.105V107.292L121.012 100.226H124.546L126.516 104.441L128.541 100.226H132.02L128.084 107.292V113.105H124.948Z" fill="#1581BB"/>
<path d="M97.7983 122.762C101.073 124.639 104.344 126.516 107.619 128.396C108.355 128.82 108.278 129.515 108.231 130.236C107.959 130.236 107.696 130.236 107.443 130.236C107.421 130.192 107.396 130.165 107.4 130.143C107.557 129.395 107.097 129.076 106.521 128.751C103.655 127.128 100.807 125.48 97.9622 123.823C97.622 123.625 97.3777 123.671 97.0654 123.85C94.1309 125.551 91.1933 127.252 88.2434 128.925C87.8105 129.169 87.594 129.444 87.6744 129.936C87.6868 130.019 87.6682 130.106 87.6621 130.226C87.3961 130.226 87.1364 130.226 86.8735 130.226C86.6416 129.262 86.8612 128.736 87.7177 128.241C90.68 126.531 93.6455 124.821 96.6109 123.114C96.8304 122.988 97.0592 122.876 97.2819 122.759C97.455 122.762 97.6282 122.762 97.7983 122.762Z" fill="white"/>
<path d="M107.446 139.636C107.702 139.636 107.94 139.636 108.178 139.636C108.441 140.554 108.203 141.157 107.405 141.618C104.39 143.353 101.372 145.084 98.3669 146.832C97.801 147.159 97.2908 147.172 96.7218 146.844C93.7749 145.134 90.8343 143.412 87.8596 141.751C86.9876 141.262 86.6567 140.635 86.8577 139.658C87.0989 139.658 87.3586 139.658 87.6184 139.658C87.6369 139.685 87.6648 139.713 87.6617 139.732C87.5411 140.431 87.9028 140.78 88.4904 141.111C91.3754 142.731 94.2326 144.395 97.0898 146.058C97.4206 146.25 97.668 146.235 97.9896 146.046C100.899 144.355 103.806 142.666 106.737 141.012C107.226 140.737 107.486 140.44 107.39 139.88C107.384 139.84 107.39 139.794 107.396 139.754C107.402 139.726 107.418 139.701 107.446 139.636Z" fill="white"/>
<path d="M107.35 138.461C107.35 136.102 107.35 133.773 107.35 131.318C108.63 131.392 109.91 131.346 111.134 131.575C112.405 131.81 113.126 132.768 113.417 134.021C113.797 135.644 113.197 137.277 111.904 138.006C111.518 138.226 111.06 138.418 110.624 138.442C109.551 138.501 108.469 138.461 107.35 138.461ZM108.351 132.175C108.351 134.045 108.351 135.87 108.351 137.716C109.016 137.716 109.644 137.75 110.269 137.71C111.465 137.629 112.272 136.828 112.47 135.579C112.708 134.095 112.17 132.833 111.088 132.382C110.841 132.28 110.569 132.196 110.306 132.187C109.666 132.156 109.026 132.175 108.351 132.175Z" fill="white"/>
<path d="M100.899 134.698C100.905 136.522 100.132 137.778 98.8181 138.313C97.4451 138.872 95.7815 138.551 94.8137 137.536C93.6541 136.321 93.5366 134.076 94.5539 132.66C95.4939 131.352 97.4297 130.897 98.985 131.652C100.352 132.311 100.859 133.492 100.899 134.698ZM94.8631 134.951C94.8662 136.971 96.3165 138.149 98.1656 137.635C99.2479 137.335 99.8911 136.371 99.9189 134.998C99.9622 132.948 98.4037 131.686 96.5484 132.267C95.4723 132.601 94.8631 133.575 94.8631 134.951Z" fill="white"/>
<path d="M81.9167 131.306C84.0009 131.306 85.4418 132.787 85.448 134.936C85.4542 137.085 84.0132 138.575 81.9322 138.575C79.8357 138.575 78.4133 137.11 78.4102 134.948C78.404 132.79 79.8326 131.306 81.9167 131.306ZM84.44 134.979C84.44 134.893 84.4431 134.809 84.44 134.722C84.3967 133.226 83.4752 132.218 82.0775 132.141C80.6304 132.06 79.6192 132.932 79.4306 134.453C79.3842 134.828 79.3997 135.223 79.4553 135.598C79.678 137.116 80.9551 137.994 82.4671 137.688C83.7164 137.441 84.4369 136.454 84.44 134.979Z" fill="white"/>
<path d="M121.672 135.585C121.672 136.544 121.672 137.493 121.672 138.47C121.342 138.47 121.051 138.47 120.732 138.47C120.732 136.117 120.732 133.776 120.732 131.33C121.79 131.389 122.832 131.383 123.852 131.525C124.703 131.643 125.216 132.255 125.309 132.997C125.426 133.937 125.089 134.664 124.319 135.09C124.121 135.202 123.905 135.279 123.682 135.378C124.425 136.389 125.173 137.4 125.946 138.455C125.29 138.566 124.799 138.541 124.437 137.926C124.069 137.305 123.556 136.77 123.181 136.148C122.829 135.557 122.359 135.424 121.672 135.585ZM121.694 134.908C122.381 134.815 123.024 134.794 123.627 134.624C124.174 134.469 124.394 133.974 124.394 133.411C124.394 132.892 124.174 132.502 123.676 132.308C123.033 132.054 122.368 132.162 121.694 132.141C121.694 133.062 121.694 133.912 121.694 134.908Z" fill="white"/>
<path d="M86.7871 131.402C87.0963 131.402 87.3777 131.402 87.7148 131.402C87.7148 132.444 87.7148 133.476 87.7148 134.534C89.0166 134.534 90.2627 134.534 91.5615 134.534C91.5615 133.492 91.5615 132.462 91.5615 131.408C91.9078 131.408 92.2016 131.408 92.5231 131.408C92.5231 133.764 92.5231 136.108 92.5231 138.473C92.2077 138.473 91.9171 138.473 91.5769 138.473C91.5769 137.413 91.5769 136.361 91.5769 135.282C90.2844 135.282 89.0351 135.282 87.7426 135.282C87.7426 136.334 87.7426 137.382 87.7426 138.464C87.4055 138.464 87.1118 138.464 86.7871 138.464C86.7871 136.133 86.7871 133.789 86.7871 131.402Z" fill="white"/>
<path d="M89.375 130.14C89.5605 129.995 89.7306 129.828 89.9316 129.71C92.226 128.38 94.5266 127.063 96.821 125.733C97.3158 125.446 97.7858 125.461 98.2744 125.746C100.556 127.066 102.845 128.38 105.124 129.701C105.334 129.821 105.513 129.995 105.68 130.196C105.031 130.245 104.434 130.332 103.825 129.967C101.895 128.804 99.9256 127.712 97.9837 126.575C97.6559 126.383 97.4085 126.392 97.0839 126.584C95.2038 127.685 93.2928 128.739 91.4282 129.871C90.7758 130.264 90.1326 130.298 89.375 130.14Z" fill="white"/>
<path d="M89.4399 139.63C90.0924 139.627 90.7108 139.583 91.3447 139.97C93.2433 141.126 95.1914 142.199 97.1117 143.322C97.4271 143.507 97.6652 143.495 97.9744 143.316C99.907 142.187 101.864 141.102 103.778 139.942C104.4 139.565 105.009 139.636 105.702 139.729C105.538 139.868 105.386 140.032 105.204 140.137C102.885 141.482 100.563 142.815 98.2434 144.157C97.7641 144.432 97.3034 144.429 96.8272 144.154C94.5328 142.827 92.2322 141.507 89.9378 140.177C89.7368 140.06 89.5636 139.896 89.375 139.75C89.3966 139.71 89.4183 139.67 89.4399 139.63Z" fill="white"/>
<path d="M115.838 137.725C116.97 137.725 118.068 137.725 119.194 137.725C119.194 137.982 119.194 138.214 119.194 138.473C117.753 138.473 116.321 138.473 114.861 138.473C114.861 136.12 114.861 133.779 114.861 131.414C116.302 131.414 117.737 131.414 119.197 131.414C119.197 131.655 119.197 131.887 119.197 132.159C118.08 132.159 116.973 132.159 115.835 132.159C115.835 132.957 115.835 133.718 115.835 134.531C116.723 134.531 117.613 134.531 118.532 134.531C118.532 134.8 118.532 135.019 118.532 135.288C117.62 135.288 116.729 135.288 115.838 135.288C115.838 136.126 115.838 136.915 115.838 137.725Z" fill="white"/>
<path d="M77.504 137.515C76.5268 138.804 74.1304 138.968 72.7822 137.836C71.2794 136.578 71.1557 133.807 72.541 132.351C73.815 131.009 76.2825 130.938 77.4916 132.205C77.1638 132.861 77.1391 132.867 76.5361 132.502C74.9622 131.55 72.943 132.45 72.6399 134.265C72.5626 134.719 72.5626 135.211 72.643 135.666C72.9863 137.604 75.1353 138.415 76.7124 137.227C77.0772 136.949 77.136 136.971 77.504 137.515Z" fill="white"/>
<path d="M102.258 131.405C102.561 131.405 102.842 131.405 103.17 131.405C103.17 133.476 103.17 135.545 103.17 137.672C104.218 137.672 105.22 137.672 106.25 137.672C106.25 137.963 106.25 138.198 106.25 138.467C104.933 138.467 103.615 138.467 102.258 138.467C102.258 136.129 102.258 133.792 102.258 131.405Z" fill="white"/>
<path d="M69.1426 131.411C69.4673 131.411 69.7579 131.411 70.0733 131.411C70.0733 133.773 70.0733 136.111 70.0733 138.476C69.7579 138.476 69.4642 138.476 69.1426 138.476C69.1426 136.126 69.1426 133.789 69.1426 131.411Z" fill="white"/>
<path d="M93.7773 130.217C94.9029 129.571 95.9233 128.949 96.9809 128.405C97.2592 128.263 97.7261 128.229 97.9951 128.365C99.0928 128.922 100.147 129.562 101.202 130.211C100.385 130.251 99.5536 130.427 98.8609 129.818C97.9827 129.045 97.154 129.092 96.2171 129.787C95.4069 130.393 95.0884 130.369 93.7773 130.217Z" fill="white"/>
<path d="M101.209 139.716C100.185 140.304 99.1773 140.922 98.1321 141.464C97.8508 141.609 97.3838 141.668 97.1179 141.535C96.0047 140.978 94.9379 140.332 93.8711 139.676C94.706 139.617 95.5502 139.478 96.2552 140.091C97.1117 140.833 97.959 140.857 98.8155 140.097C99.5174 139.469 100.368 139.624 101.209 139.716Z" fill="white"/>
<path d="M85.8075 46.7C85.8075 46.199 85.9868 45.6981 86.3424 45.1848C86.5991 44.8385 86.9887 44.4148 87.536 43.9139L87.8483 43.6232L88.1606 43.3326C88.3956 43.1223 88.5719 42.9429 88.7172 42.7852C89.0728 42.3832 89.2522 42.0276 89.2522 41.7153C89.2522 41.4247 89.1625 41.1928 88.9831 41.0134C88.8038 40.8464 88.5595 40.7568 88.2472 40.7568C87.6906 40.7568 87.3226 41.0567 87.1433 41.672L85.7734 41.2701C85.8848 40.7691 86.1198 40.3455 86.4754 39.9992C86.9423 39.5415 87.5576 39.3096 88.3152 39.3096C89.0728 39.3096 89.6851 39.5199 90.1551 39.9435C90.622 40.3795 90.857 40.9454 90.857 41.6504C90.857 42.442 90.3561 43.2676 89.3635 44.1242L89.0852 44.3684L88.7945 44.6034C88.5719 44.7828 88.4049 44.9281 88.2812 45.0394C87.9349 45.3641 87.7246 45.6424 87.669 45.8867H90.9467V47.2566H85.8075V46.7Z" fill="white"/>
<path d="M94.5707 47.4019C93.6245 47.4019 92.9319 47.0555 92.499 46.3753C92.0877 45.729 91.8867 44.724 91.8867 43.3542C91.8867 41.9843 92.0877 40.9794 92.499 40.3331C92.935 39.6528 93.6245 39.3065 94.5707 39.3065C95.5293 39.3065 96.222 39.6528 96.6549 40.3331C97.0661 40.9794 97.2671 41.9843 97.2671 43.3542C97.2671 44.724 97.0661 45.729 96.6549 46.3753C96.2189 47.0586 95.5293 47.4019 94.5707 47.4019ZM94.5707 45.93C95.016 45.93 95.3191 45.7073 95.486 45.2621C95.6097 44.9065 95.6747 44.2695 95.6747 43.3573C95.6747 42.442 95.6066 41.8081 95.486 41.4525C95.3191 41.0072 95.0191 40.7846 94.5707 40.7846C94.1224 40.7846 93.8224 41.0072 93.6678 41.4525C93.5441 41.8081 93.4792 42.4451 93.4792 43.3573C93.4792 44.2726 93.5472 44.9065 93.6678 45.2621C93.8224 45.7073 94.1224 45.93 94.5707 45.93Z" fill="white"/>
<path d="M98.2586 46.7C98.2586 46.199 98.438 45.6981 98.7936 45.1848C99.0502 44.8385 99.4398 44.4148 99.9872 43.9139L100.299 43.6232L100.612 43.3326C100.847 43.1223 101.023 42.9429 101.168 42.7852C101.524 42.3832 101.703 42.0276 101.703 41.7153C101.703 41.4247 101.614 41.1928 101.434 41.0134C101.255 40.8464 101.011 40.7568 100.698 40.7568C100.142 40.7568 99.7738 41.0567 99.5945 41.672L98.2246 41.2701C98.3359 40.7691 98.5709 40.3455 98.9265 39.9992C99.3935 39.5415 100.009 39.3096 100.766 39.3096C101.524 39.3096 102.136 39.5199 102.606 39.9435C103.073 40.3795 103.308 40.9454 103.308 41.6504C103.308 42.442 102.807 43.2676 101.815 44.1242L101.536 44.3684L101.246 44.6034C101.023 44.7828 100.856 44.9281 100.732 45.0394C100.386 45.3641 100.176 45.6424 100.12 45.8867H103.398V47.2566H98.2586V46.7Z" fill="white"/>
<path d="M104.213 45.4847L105.561 45.0611C105.75 45.6641 106.152 45.964 106.764 45.964C107.089 45.964 107.355 45.8651 107.556 45.6733C107.757 45.4723 107.856 45.2157 107.856 44.8941C107.856 44.5725 107.744 44.3251 107.531 44.1365C107.296 43.9355 106.984 43.8366 106.572 43.8366H105.713V42.6213L107.33 40.8371H104.51V39.4549H109.123V40.8371L107.484 42.5533C108.019 42.609 108.465 42.8223 108.833 43.212C109.244 43.6356 109.445 44.1705 109.445 44.8292C109.445 45.5775 109.188 46.199 108.687 46.6783C108.186 47.1576 107.562 47.4019 106.792 47.4019C106.022 47.4019 105.41 47.1916 104.943 46.7556C104.581 46.4217 104.333 45.998 104.213 45.4847Z" fill="white"/>
<path d="M69.1798 54.8417V62.2042H66.8792V54.8417H64.8477V52.7823H71.2145V54.8417H69.1798Z" fill="white"/>
<path d="M71.4258 57.4794C71.4258 56.0941 71.8834 54.9345 72.7863 54.0192C73.714 53.0761 74.8983 52.606 76.3671 52.606C77.8359 52.606 79.0202 53.0761 79.9479 54.0192C80.8508 54.9345 81.3084 56.091 81.3084 57.4794C81.3084 58.8925 80.8508 60.049 79.9479 60.9643C79.0202 61.9074 77.8359 62.3774 76.3671 62.3774C74.8983 62.3774 73.714 61.9074 72.7863 60.9643C71.8834 60.049 71.4258 58.8925 71.4258 57.4794ZM73.8222 57.4794C73.8222 58.2741 74.0634 58.9327 74.5365 59.446C75.0065 59.9717 75.6281 60.2252 76.3671 60.2252C77.1062 60.2252 77.7277 59.9686 78.1977 59.446C78.6677 58.9358 78.912 58.2741 78.912 57.4794C78.912 56.7001 78.6832 56.0539 78.2132 55.5405C77.7277 55.0149 77.1092 54.7613 76.3702 54.7613C75.6312 54.7613 75.0096 55.018 74.5396 55.5405C74.0665 56.0508 73.8222 56.697 73.8222 57.4794Z" fill="white"/>
<path d="M85.9084 58.9049H84.8045V62.2043H82.5039V52.7823H85.896C86.8515 52.7823 87.5937 53.0513 88.1317 53.6048C88.6698 54.1553 88.9388 54.8974 88.9388 55.825C88.9388 56.7403 88.6698 57.4794 88.1163 58.0452C87.5658 58.6235 86.8237 58.9049 85.9084 58.9049ZM84.8045 54.7613V56.929H85.559C86.2455 56.929 86.5825 56.5641 86.5825 55.825C86.5825 55.5035 86.5021 55.2468 86.3259 55.0582C86.1496 54.8572 85.896 54.7613 85.5868 54.7613H84.8045Z" fill="white"/>
<path d="M97.7268 58.1658C97.7144 58.1534 98.4411 59.4985 99.8944 62.2042H97.3496L95.6674 58.7193H94.9686V62.2042H92.668V52.7823H95.7385C97.934 52.7823 99.0379 53.7501 99.0379 55.6766C99.0379 56.2146 98.9297 56.7001 98.7163 57.1299C98.4813 57.5876 98.1442 57.937 97.7268 58.1658ZM94.9686 54.7613V56.7929H95.655C96.3415 56.7929 96.6786 56.4435 96.6786 55.757C96.6786 55.0983 96.3013 54.7613 95.5468 54.7613H94.9686Z" fill="white"/>
<path d="M103.043 60.0892L102.369 62.2011H100.053L103.309 52.7792H105.733L108.989 62.2011H106.673L105.999 60.0892H103.043ZM104.524 55.219L103.637 58.206H105.415L104.524 55.219Z" fill="white"/>
<path d="M112.858 54.8417V62.2043H110.557V54.8417H108.525V52.7823H114.892V54.8417H112.858Z" fill="white"/>
<path d="M115.977 62.2043V52.7823H120.998V54.8417H118.28V56.4157H120.596V58.4627H118.28V60.1448H121.107V62.2043H115.977Z" fill="white"/>
<path d="M125.28 52.7823C126.801 52.7823 128.013 53.1997 128.901 54.0346C129.803 54.8819 130.246 56.026 130.246 57.4948C130.246 58.9636 129.8 60.1077 128.901 60.955C128.013 61.7899 126.801 62.2073 125.28 62.2073H122.506V52.7854H125.28V52.7823ZM124.81 54.7737V60.2128H125.28C126.074 60.2128 126.693 59.984 127.15 59.5264C127.62 59.0564 127.849 58.3699 127.849 57.4948C127.849 56.6197 127.62 55.9332 127.15 55.4632C126.693 55.0056 126.074 54.7768 125.28 54.7768H124.81V54.7737Z" fill="white"/>
<defs>
<linearGradient id="paint0_linear_467_1604" x1="97.5458" y1="194.816" x2="97.5458" y2="0.23662" gradientUnits="userSpaceOnUse">
<stop stop-color="#3468A2"/>
<stop offset="1" stop-color="#83BAEE"/>
</linearGradient>
<linearGradient id="paint1_linear_467_1604" x1="97.5464" y1="183.748" x2="97.5464" y2="10.5348" gradientUnits="userSpaceOnUse">
<stop stop-color="#B7DBE8"/>
<stop offset="0.1437" stop-color="#BBDCE8" stop-opacity="0.8563"/>
<stop offset="1" stop-color="#CDE1E8" stop-opacity="0"/>
</linearGradient>
<linearGradient id="paint2_linear_467_1604" x1="97.5455" y1="178.876" x2="97.5455" y2="16.654" gradientUnits="userSpaceOnUse">
<stop stop-color="#3468A2"/>
<stop offset="1" stop-color="#83BAEE"/>
</linearGradient>
<linearGradient id="paint3_linear_467_1604" x1="97.5456" y1="167.49" x2="97.5456" y2="28.3115" gradientUnits="userSpaceOnUse">
<stop stop-color="#3468A2"/>
<stop offset="1" stop-color="#83BAEE"/>
</linearGradient>
<linearGradient id="paint4_linear_467_1604" x1="97.5456" y1="167.49" x2="97.5456" y2="28.3113" gradientUnits="userSpaceOnUse">
<stop stop-color="#3468A2"/>
<stop offset="1" stop-color="#83BAEE"/>
</linearGradient>
<linearGradient id="paint5_linear_467_1604" x1="31.5084" y1="100.833" x2="31.5084" y2="94.1657" gradientUnits="userSpaceOnUse">
<stop stop-color="#83BAEE"/>
<stop offset="1" stop-color="#3468A2"/>
</linearGradient>
<linearGradient id="paint6_linear_467_1604" x1="163.584" y1="100.833" x2="163.584" y2="94.1657" gradientUnits="userSpaceOnUse">
<stop stop-color="#83BAEE"/>
<stop offset="1" stop-color="#3468A2"/>
</linearGradient>
</defs>
</svg>
