<svg width="179" height="179" viewBox="0 0 179 179" fill="none" xmlns="http://www.w3.org/2000/svg">
<path d="M179.001 89.5019C179.001 83.6514 176.629 78.4098 172.878 74.8512C168.972 71.1462 167.455 65.5111 168.977 60.347C170.436 55.3869 169.859 49.6627 166.924 44.602C163.983 39.5299 159.287 36.181 154.243 34.9919C149.008 33.7569 144.869 29.6469 143.602 24.4168C142.382 19.382 139.001 14.7061 133.912 11.7967C128.888 8.92456 123.227 8.36163 118.313 9.79482C113.221 11.2797 107.724 9.82066 104.039 6.00362C100.483 2.32156 95.2874 0.00088501 89.503 0.00088501C83.6525 0.00088501 78.4108 2.37326 74.8523 6.12425C71.1472 10.0303 65.5121 11.5468 60.3481 10.0246C55.3879 8.56555 49.6638 9.14284 44.6031 12.0782C39.5309 15.0192 36.1821 19.7151 34.993 24.7586C33.758 29.9944 29.648 34.1332 24.4179 35.3998C19.383 36.6204 14.7072 40.0009 11.7978 45.0903C8.92563 50.1136 8.3627 55.7746 9.79588 60.6888C11.2808 65.7811 9.81886 71.2783 6.00468 74.9632C2.32263 78.5189 0.00195312 83.7146 0.00195312 89.5019C0.00195312 95.3524 2.37432 100.594 6.12531 104.153C10.0314 107.858 11.5479 113.493 10.0257 118.657C8.56662 123.617 9.14391 129.341 12.0792 134.402C15.0203 139.474 19.7162 142.823 24.7596 144.012C29.9955 145.247 34.1342 149.357 35.4008 154.587C36.6215 159.622 40.002 164.298 45.0914 167.207C50.1147 170.079 55.7757 170.642 60.6899 169.209C65.7821 167.724 71.2794 169.186 74.9643 173C78.52 176.682 83.7128 179.003 89.5001 179.003C95.3506 179.003 100.592 176.631 104.151 172.88C107.856 168.973 113.491 167.457 118.655 168.979C123.615 170.438 129.339 169.861 134.4 166.926C139.472 163.985 142.821 159.289 144.01 154.245C145.245 149.009 149.355 144.871 154.585 143.604C159.62 142.383 164.296 139.003 167.205 133.913C170.077 128.89 170.64 123.229 169.207 118.315C167.722 113.223 169.184 107.726 172.998 104.041C176.68 100.482 179.001 95.2864 179.001 89.5019Z" fill="url(#paint0_linear_461_1154)"/>
<path d="M176.14 89.5019C176.14 83.8381 173.846 78.763 170.215 75.3194C166.436 71.7321 164.968 66.2779 166.438 61.2804C167.851 56.4811 167.291 50.9379 164.451 46.0381C161.605 41.1296 157.058 37.887 152.175 36.7353C147.106 35.5405 143.102 31.5597 141.876 26.4991C140.696 21.6251 137.424 17.0986 132.496 14.2839C127.633 11.5037 122.153 10.9609 117.397 12.3453C112.465 13.7813 107.146 12.3682 103.579 8.67468C100.138 5.11038 95.1093 2.86438 89.5086 2.86438C83.8448 2.86438 78.7698 5.1592 75.3261 8.78957C71.7388 12.5693 66.2846 14.0369 61.2872 12.5664C56.4878 11.1533 50.9447 11.7134 46.0448 14.5539C41.1364 17.4002 37.8937 21.9468 36.742 26.8294C35.5472 31.8986 31.5665 35.9024 26.5058 37.1288C21.6318 38.3092 17.1053 41.5806 14.2906 46.5091C11.5104 51.3716 10.9676 56.8516 12.352 61.6079C13.788 66.5393 12.3749 71.8585 8.68139 75.4256C5.11709 78.8664 2.87109 83.8955 2.87109 89.4962C2.87109 95.16 5.16592 100.235 8.79628 103.679C12.576 107.266 14.0436 112.72 12.5731 117.718C11.16 122.517 11.7201 128.06 14.5606 132.96C17.4069 137.868 21.9535 141.111 26.8361 142.263C31.9054 143.458 35.9091 147.438 37.1384 152.499C38.3188 157.373 41.5902 161.899 46.5187 164.714C51.3812 167.494 56.8612 168.037 61.6175 166.653C66.5489 165.217 71.868 166.63 75.4352 170.323C78.876 173.888 83.9051 176.134 89.5057 176.134C95.1696 176.134 100.245 173.839 103.688 170.208C107.276 166.429 112.73 164.961 117.727 166.432C122.527 167.845 128.07 167.285 132.97 164.444C137.878 161.598 141.121 157.051 142.272 152.169C143.467 147.099 147.448 143.096 152.509 141.869C157.383 140.689 161.909 137.417 164.724 132.489C167.504 127.626 168.047 122.146 166.662 117.39C165.226 112.459 166.639 107.14 170.333 103.572C173.894 100.129 176.14 95.1025 176.14 89.5019Z" fill="url(#paint1_linear_461_1154)"/>
<path d="M163.702 110.127C161.887 116.635 159.178 123.011 155.534 129.091C133.665 165.561 86.3758 177.406 49.9085 155.538C32.2909 144.974 20.4147 128.479 15.3167 110.127C11.626 96.8287 11.4881 82.5571 15.2966 68.8744C17.1117 62.3661 19.8202 55.99 23.4649 49.9098C45.3303 13.4424 92.6198 1.59781 129.09 23.4633C146.708 34.0269 158.584 50.5215 163.682 68.8744C167.372 82.1723 167.51 96.4438 163.702 110.127Z" fill="white"/>
<path d="M89.5013 159.843C128.35 159.843 159.842 128.35 159.842 89.5019C159.842 50.6536 128.35 19.1608 89.5013 19.1608C50.6529 19.1608 19.1602 50.6536 19.1602 89.5019C19.1602 128.35 50.6529 159.843 89.5013 159.843Z" fill="url(#paint2_linear_461_1154)"/>
<path d="M89.4324 164.372C75.9334 164.372 62.647 160.684 51.0092 153.705C34.7874 143.98 22.9342 128.623 17.638 110.465C13.6285 96.6994 13.6228 82.2009 17.6237 68.5354C19.4072 62.4178 21.9922 56.5184 25.3037 51.004C38.751 28.5698 63.3794 14.6314 89.5731 14.6314C103.072 14.6314 116.359 18.3192 127.996 25.2985C144.218 35.0235 156.071 50.3807 161.37 68.5383C165.377 82.3043 165.383 96.8028 161.385 110.465C159.601 116.583 157.019 122.482 153.705 127.997C140.255 150.431 115.626 164.372 89.4324 164.372ZM89.5731 17.0498C64.2238 17.0498 40.391 30.5372 27.3745 52.2505C24.1692 57.5869 21.6676 63.2938 19.9443 69.2132C16.0756 82.4336 16.0813 96.4639 19.9616 109.788C25.0883 127.356 36.5567 142.217 52.2557 151.629C63.5173 158.381 76.3758 161.951 89.4353 161.951C114.785 161.951 138.617 148.464 151.634 126.75C154.839 121.414 157.341 115.707 159.064 109.788C162.933 96.5644 162.927 82.537 159.05 69.2132C153.92 51.6445 142.452 36.7841 126.753 27.3722C115.491 20.6198 102.633 17.0498 89.5731 17.0498Z" fill="url(#paint3_linear_461_1154)"/>
<path d="M127.487 65.4881C114.496 44.9036 87.3719 38.3724 66.3939 50.9494C60.1442 54.6976 55.1381 59.7209 51.502 65.4881H127.487Z" fill="url(#paint4_linear_461_1154)"/>
<path d="M127.487 113.513C114.496 134.097 87.3719 140.629 66.3939 128.052C60.1442 124.303 55.1381 119.28 51.502 113.513H127.487Z" fill="url(#paint5_linear_461_1154)"/>
<path d="M160.223 110.127H18.7967C14.9337 96.8632 14.7814 82.5428 18.7794 68.8773H160.206C164.069 82.1378 164.221 96.4582 160.223 110.127Z" fill="url(#paint6_linear_461_1154)"/>
<path d="M22.7621 93.4281C20.5965 93.4281 18.8359 91.6675 18.8359 89.5019C18.8359 87.3364 20.5965 85.5729 22.7621 85.5729C24.9277 85.5729 26.6883 87.3364 26.6883 89.5019C26.6912 91.6675 24.9277 93.4281 22.7621 93.4281Z" fill="white"/>
<path d="M25.447 89.5019C25.447 90.9839 24.2436 92.1873 22.7616 92.1873C21.2796 92.1873 20.0762 90.9839 20.0762 89.5019C20.0762 88.0199 21.2796 86.8165 22.7616 86.8165C24.2465 86.8165 25.447 88.017 25.447 89.5019Z" fill="url(#paint7_linear_461_1154)"/>
<path d="M156.235 93.4281C154.069 93.4281 152.309 91.6675 152.309 89.5019C152.309 87.3363 154.069 85.5728 156.235 85.5728C158.4 85.5728 160.161 87.3363 160.161 89.5019C160.161 91.6675 158.4 93.4281 156.235 93.4281Z" fill="white"/>
<path d="M156.234 92.1873C157.717 92.1873 158.92 90.985 158.92 89.5019C158.92 88.0188 157.717 86.8165 156.234 86.8165C154.751 86.8165 153.549 88.0188 153.549 89.5019C153.549 90.985 154.751 92.1873 156.234 92.1873Z" fill="url(#paint8_linear_461_1154)"/>
<path d="M50.0812 55.6568C49.6619 55.2547 49.3833 54.7033 49.2426 53.9939C49.1593 53.5027 49.1162 52.8364 49.1363 51.9748L49.1449 51.4807L49.1535 50.9867C49.165 50.622 49.1593 50.329 49.1449 50.082C49.0961 49.4616 48.941 49.0251 48.6796 48.7752C48.4384 48.5426 48.1684 48.4306 47.8783 48.4363C47.594 48.4507 47.324 48.5856 47.0741 48.847C46.626 49.3123 46.583 49.8637 46.9535 50.5042L45.5174 51.3285C45.1871 50.8316 45.0205 50.2974 45.0177 49.7201C45.0119 48.9619 45.3077 48.2611 45.9138 47.6264C46.5198 46.9916 47.1919 46.6498 47.9214 46.5981C48.6624 46.5551 49.3258 46.8164 49.9118 47.3794C50.5752 48.0141 50.8624 49.0969 50.7849 50.6162L50.7676 51.0471L50.7303 51.4779C50.7016 51.8082 50.6872 52.0638 50.6815 52.2562C50.6757 52.8048 50.7389 53.2069 50.8998 53.4481L53.5306 50.7053L54.6795 51.8053L50.5551 56.1077L50.0812 55.6568Z" fill="#1581BB"/>
<path d="M57.603 49.6024C56.7471 50.2917 55.8711 50.4812 54.9836 50.1825C54.1421 49.8982 53.2316 49.1371 52.235 47.8992C51.2384 46.6613 50.6898 45.6073 50.5922 44.7255C50.4916 43.795 50.865 42.9793 51.7209 42.2928C52.5883 41.5949 53.4614 41.4053 54.3489 41.704C55.1904 41.9884 56.1009 42.7495 57.0975 43.9874C58.0941 45.2253 58.6427 46.2793 58.7404 47.1611C58.8409 48.0916 58.4675 48.9073 57.603 49.6024ZM56.5317 48.2726C56.9338 47.948 57.0458 47.5287 56.8706 47.0031C56.7213 46.5924 56.3192 45.9691 55.6557 45.142C54.9922 44.3148 54.4695 43.7921 54.099 43.5566C53.6251 43.2751 53.1886 43.2923 52.7865 43.6169C52.3844 43.9414 52.2723 44.3608 52.4562 44.8777C52.6055 45.2885 53.0076 45.9117 53.6711 46.7389C54.3345 47.566 54.8573 48.0888 55.2278 48.3243C55.6959 48.6144 56.1296 48.5971 56.5317 48.2726Z" fill="#1581BB"/>
<path d="M60.1119 46.6096C59.8075 46.1128 59.6811 45.5096 59.7242 44.7858C59.7702 44.289 59.8994 43.6341 60.1378 42.807L60.2728 42.3302L60.4078 41.8534C60.5112 41.503 60.5801 41.2187 60.6289 40.9774C60.7381 40.3657 60.7007 39.9032 60.5112 39.5959C60.336 39.3087 60.1062 39.1306 59.8219 39.0617C59.5433 39.0043 59.2474 39.0646 58.9401 39.2513C58.3887 39.5873 58.2077 40.1072 58.4002 40.8223L56.8004 41.2531C56.608 40.6902 56.5821 40.1301 56.7286 39.5701C56.9153 38.8348 57.3806 38.2317 58.1302 37.775C58.8798 37.3183 59.6151 37.1546 60.3331 37.2925C61.0598 37.439 61.6342 37.8612 62.0592 38.5562C62.5389 39.3403 62.5389 40.4576 62.0765 41.908L61.9501 42.3187L61.8036 42.7265C61.6916 43.0367 61.6141 43.2809 61.5595 43.4675C61.413 43.996 61.3728 44.401 61.4647 44.6767L64.7073 42.6949L65.5345 44.0506L60.448 47.1553L60.1119 46.6096Z" fill="#1581BB"/>
<path d="M65.0525 41.9884L66.2789 40.8999C66.7643 41.4456 67.333 41.5748 67.9821 41.2819C68.3239 41.1268 68.5594 40.8941 68.68 40.5983C68.7978 40.291 68.7805 39.9722 68.6283 39.6304C68.4761 39.2886 68.2406 39.0818 67.9275 38.9813C67.5857 38.8808 67.2066 38.9238 66.77 39.1191L65.8624 39.527L65.2852 38.2432L66.1468 35.5893L63.1655 36.9306L62.5078 35.4687L67.3875 33.2744L68.0453 34.7363L67.1291 37.3298C67.7207 37.1345 68.2923 37.146 68.8696 37.3844C69.5072 37.6371 69.9725 38.1082 70.2855 38.8032C70.6417 39.5931 70.6675 40.3743 70.3631 41.121C70.0615 41.8678 69.5158 42.4221 68.703 42.7868C67.8902 43.1516 67.1405 43.2205 66.4397 42.9822C65.8854 42.8041 65.4259 42.4709 65.0525 41.9884Z" fill="#1581BB"/>
<path d="M70.5098 36.7353L73.9247 35.618L74.4245 37.1403L71.0095 38.2575L70.5098 36.7353Z" fill="#1581BB"/>
<path d="M75.7033 32.3926L73.6382 32.8636L73.2734 31.2639L79.1699 29.9197L79.5347 31.5195L77.4811 31.9876L79.1268 39.2081L77.349 39.6131L75.7033 32.3926Z" fill="#1581BB"/>
<path d="M80.5225 34.1532C80.4162 32.8263 80.7666 31.6832 81.5593 30.7268C82.3779 29.7531 83.475 29.2132 84.8393 29.104C86.2064 28.9949 87.3753 29.3568 88.3346 30.1897C89.2681 31.0111 89.7937 32.0824 89.8999 33.4122C90.0062 34.7535 89.6558 35.8937 88.8631 36.853C88.0446 37.8123 86.9589 38.3523 85.5803 38.4614C84.2017 38.5706 83.0442 38.2087 82.0849 37.3901C81.1543 36.5658 80.6287 35.4916 80.5225 34.1532ZM82.4152 34.0039C82.4841 34.8684 82.7972 35.5692 83.3716 36.0804C83.9432 36.5917 84.6354 36.8243 85.4482 36.7583C86.261 36.6922 86.9072 36.3562 87.3926 35.7616C87.878 35.1671 88.0762 34.4232 88.0101 33.5616C87.944 32.7114 87.6281 32.0221 87.0566 31.4965C86.4821 30.9709 85.7899 30.7412 84.98 30.8043C84.1701 30.8675 83.521 31.2064 83.0384 31.8153C82.5502 32.4242 82.3491 33.1509 82.4152 34.0039Z" fill="#1581BB"/>
<path d="M91.6202 29.0552L94.4951 29.2735C95.3855 29.3396 96.0748 29.6526 96.5774 30.1955C97.0915 30.7527 97.3127 31.4563 97.2466 32.3065C97.1834 33.1451 96.8474 33.8057 96.2529 34.294C95.6583 34.7822 94.9288 34.9977 94.0787 34.9345L93.0103 34.854L92.7575 38.2173L90.9395 38.0794L91.6202 29.0552ZM93.9408 33.3404C94.34 33.3692 94.6703 33.2801 94.9346 33.0647C95.1988 32.8378 95.351 32.5391 95.3769 32.1657C95.4056 31.7924 95.2993 31.485 95.0724 31.2352C94.8427 30.9968 94.544 30.8589 94.1562 30.8302L93.3176 30.767L93.128 33.2801L93.9408 33.3404Z" fill="#1581BB"/>
<path d="M102.515 30.3879L105.149 31.0945C106.074 31.3415 106.743 31.7895 107.142 32.4472C107.527 33.059 107.613 33.7368 107.41 34.4864C107.125 35.5462 106.485 36.1925 105.465 36.4395L106.508 40.8281L104.56 40.3053L103.782 36.428L102.846 36.1752L101.927 39.5959L100.166 39.122L102.515 30.3879ZM104.069 34.9144C104.405 35.0063 104.721 34.9833 104.985 34.8397C105.278 34.6903 105.485 34.4261 105.583 34.0642C105.678 33.7138 105.637 33.4094 105.471 33.1365C105.287 32.8723 105.003 32.6885 104.603 32.5822L103.868 32.384L103.248 34.6932L104.069 34.9144Z" fill="#1581BB"/>
<path d="M109.539 39.593L107.89 41.414L106.207 40.6844L112.747 33.6592L114.502 34.4204L113.844 43.996L112.161 43.2665L112.362 40.8194L109.539 39.593ZM112.847 35.8277L110.59 38.4011L112.523 39.2398L112.847 35.8277Z" fill="#1581BB"/>
<path d="M118.571 38.3293L116.745 37.2552L117.578 35.8392L122.793 38.9038L121.96 40.3197L120.142 39.2513L116.391 45.636L114.82 44.7141L118.571 38.3293Z" fill="#1581BB"/>
<path d="M124.166 39.8802L127.883 42.6806L126.895 43.9903L124.634 42.2871L123.419 43.8983L125.361 45.3603L124.387 46.6498L122.446 45.1879L121.153 46.9026L123.506 48.6776L122.526 49.9786L118.721 47.1036L124.166 39.8802Z" fill="#1581BB"/>
<path d="M129.602 44.0764L131.317 45.7623C132.377 46.8049 132.925 47.905 132.971 49.0768C133.026 50.2543 132.552 51.3458 131.564 52.351C130.559 53.3735 129.473 53.8675 128.296 53.833C127.144 53.8072 126.032 53.2586 124.972 52.216L123.258 50.5301L129.602 44.0764ZM126.124 51.1332C126.75 51.7507 127.411 52.0552 128.106 52.0494C128.838 52.0437 129.539 51.699 130.208 51.0183C130.869 50.3463 131.193 49.6483 131.188 48.9159C131.182 48.2037 130.866 47.5488 130.249 46.9399L129.789 46.4861L125.665 50.6794L126.124 51.1332Z" fill="#1581BB"/>
<path d="M43.8008 128.39C43.7261 128.589 43.6371 128.767 43.5337 128.928L42.1522 128.224C42.2843 127.962 42.3619 127.733 42.3676 127.526C42.3934 127.227 42.3044 126.943 42.1005 126.69C41.9282 126.475 41.7271 126.34 41.5002 126.305C41.2791 126.279 41.0751 126.334 40.8971 126.478C40.6616 126.667 40.5639 126.989 40.6185 127.443C40.6357 127.598 40.6702 127.819 40.7334 128.092L40.8224 128.454L40.9114 128.816C41.0493 129.43 41.0866 129.941 41.0321 130.341C40.9344 130.895 40.6702 131.354 40.2078 131.725C39.6132 132.199 38.9756 132.386 38.2978 132.291C37.597 132.187 36.9795 131.8 36.4367 131.122C35.9398 130.499 35.7158 129.829 35.7617 129.114C35.7761 128.841 35.8307 128.58 35.9369 128.31C36.003 128.103 36.1035 127.899 36.2184 127.715L37.6602 128.402C37.2926 129.083 37.3098 129.686 37.732 130.211C38.1456 130.728 38.5821 130.815 39.0359 130.453C39.2801 130.257 39.3777 129.933 39.3433 129.482C39.326 129.327 39.2829 129.097 39.2198 128.824L39.1393 128.471L39.0618 128.1C38.9239 127.483 38.9038 126.974 38.967 126.57C39.0647 126.015 39.3404 125.547 39.82 125.162C40.3772 124.717 40.9804 124.545 41.6295 124.645C42.2786 124.743 42.8472 125.108 43.3527 125.739C43.818 126.325 44.0306 126.957 43.9817 127.629C43.953 127.885 43.8984 128.143 43.8008 128.39Z" fill="#1581BB"/>
<path d="M41.9863 131.145C42.8565 130.257 43.8761 129.806 45.0365 129.778C46.2227 129.758 47.2738 130.2 48.1872 131.096C49.1005 131.992 49.5601 133.038 49.5629 134.221C49.5572 135.381 49.1235 136.409 48.2532 137.294C47.3744 138.19 46.3548 138.641 45.1944 138.67C44.0169 138.681 42.9743 138.248 42.0523 137.343C41.1304 136.438 40.6795 135.401 40.668 134.227C40.6737 133.066 41.1074 132.038 41.9863 131.145ZM43.25 132.386C42.6842 132.963 42.3826 133.612 42.3711 134.33C42.3597 135.048 42.6239 135.674 43.1638 136.208C43.7067 136.74 44.3385 136.99 45.0566 136.967C45.7717 136.944 46.418 136.631 46.9838 136.053C47.541 135.485 47.8339 134.844 47.854 134.117C47.8741 133.391 47.6099 132.765 47.0699 132.23C46.53 131.696 45.8952 131.449 45.1686 131.481C44.4419 131.512 43.8072 131.817 43.25 132.386Z" fill="#1581BB"/>
<path d="M51.7263 134.551L55.1384 137.199L54.1992 138.408L52.1313 136.803L50.9107 138.377L52.723 139.781L51.7924 140.982L49.9801 139.577L47.8949 142.266L46.5508 141.223L51.7263 134.551Z" fill="#1581BB"/>
<path d="M56.1801 139.73L54.5143 138.661L55.3414 137.372L60.0948 140.416L59.2676 141.706L57.6104 140.646L53.8824 146.468L52.4492 145.551L56.1801 139.73Z" fill="#1581BB"/>
<path d="M63.8922 145.244L60.0149 149.877L58.2715 149.075L59.7305 140.453L61.4193 141.229L60.1096 147.585L64.2713 142.539L65.6959 143.193L64.5844 149.638L68.5594 144.506L70.2367 145.276L64.6648 152.011L62.91 151.207L63.8922 145.244Z" fill="#1581BB"/>
<path d="M69.9895 151.517L68.677 153.395L67.0312 152.918L72.2585 145.646L73.9732 146.143L74.4901 155.087L72.8444 154.61L72.7439 152.321L69.9895 151.517ZM72.6118 147.642L70.8253 150.287L72.7123 150.836L72.6118 147.642Z" fill="#1581BB"/>
<path d="M77.1469 146.976L79.6571 147.395C80.5389 147.542 81.1994 147.898 81.6303 148.472C82.0438 149.007 82.1817 149.63 82.064 150.342C81.8945 151.353 81.3574 152.011 80.4355 152.332L81.7997 156.316L79.9443 156.006L78.8702 152.476L77.9769 152.327L77.4312 155.587L75.7539 155.305L77.1469 146.976ZM78.9994 151.04C79.3211 151.095 79.6112 151.043 79.8438 150.888C80.1023 150.724 80.2717 150.457 80.3292 150.112C80.3838 149.779 80.3206 149.501 80.1425 149.262C79.9472 149.035 79.6657 148.889 79.2866 148.826L78.5858 148.708L78.2182 150.908L78.9994 151.04Z" fill="#1581BB"/>
<path d="M83.5766 147.967L87.9078 148.257L87.8072 149.785L85.1706 149.61L85.0443 151.488L87.3075 151.637L87.207 153.142L84.9437 152.99L84.8116 154.989L87.5545 155.173L87.454 156.689L83.0137 156.394L83.5766 147.967Z" fill="#1581BB"/>
<path d="M93.9453 150.71L92.7534 156.632L90.8405 156.764L88 148.495L89.8525 148.369L91.7395 154.576L92.9803 148.156L94.5456 148.05L96.6508 154.242L97.6877 147.835L99.5287 147.708L97.8542 156.287L95.9299 156.419L93.9453 150.71Z" fill="#1581BB"/>
<path d="M100.233 151.738C99.9431 150.529 100.101 149.426 100.693 148.426C101.304 147.41 102.238 146.752 103.482 146.453C104.725 146.154 105.857 146.318 106.862 146.944C107.841 147.565 108.482 148.478 108.772 149.687C109.065 150.908 108.907 152.011 108.315 153.01C107.701 154.013 106.779 154.67 105.524 154.969C104.268 155.271 103.148 155.104 102.146 154.489C101.167 153.872 100.526 152.959 100.233 151.738ZM101.959 151.324C102.149 152.111 102.539 152.712 103.143 153.099C103.746 153.49 104.418 153.599 105.156 153.424C105.894 153.246 106.443 152.841 106.805 152.223C107.164 151.603 107.241 150.891 107.054 150.104C106.868 149.328 106.48 148.739 105.874 148.34C105.268 147.938 104.596 147.829 103.858 148.004C103.12 148.179 102.571 148.584 102.212 149.216C101.853 149.848 101.773 150.549 101.959 151.324Z" fill="#1581BB"/>
<path d="M108.26 145.327L110.638 144.42C111.471 144.101 112.223 144.072 112.884 144.351C113.51 144.604 113.947 145.069 114.205 145.744C114.57 146.7 114.441 147.539 113.806 148.286L116.997 151.031L115.239 151.703L112.528 149.202L111.683 149.523L112.864 152.611L111.275 153.217L108.26 145.327ZM111.913 147.895C112.218 147.78 112.442 147.591 112.565 147.335C112.706 147.062 112.714 146.749 112.591 146.422C112.47 146.106 112.275 145.896 111.999 145.784C111.715 145.686 111.399 145.704 111.04 145.841L110.377 146.094L111.172 148.179L111.913 147.895Z" fill="#1581BB"/>
<path d="M114.307 142.92L115.829 142.162L118.908 148.352L121.369 147.125L122.053 148.498L118.069 150.48L114.307 142.92Z" fill="#1581BB"/>
<path d="M118.715 140.735L120.61 139.534C121.782 138.793 122.9 138.526 123.971 138.733C125.054 138.931 125.947 139.595 126.648 140.706C127.366 141.838 127.584 142.926 127.3 143.992C127.03 145.032 126.297 145.925 125.125 146.669L123.23 147.869L118.715 140.735ZM124.393 145.393C125.085 144.954 125.505 144.42 125.645 143.785C125.795 143.119 125.631 142.409 125.154 141.654C124.683 140.91 124.117 140.468 123.451 140.318C122.802 140.172 122.138 140.321 121.458 140.755L120.949 141.077L123.888 145.712L124.393 145.393Z" fill="#1581BB"/>
<path d="M128.747 143.231C128.574 142.998 128.508 142.748 128.549 142.461C128.58 142.182 128.718 141.958 128.951 141.786C129.183 141.614 129.433 141.548 129.72 141.588C129.996 141.637 130.22 141.775 130.392 142.004C130.559 142.228 130.625 142.478 130.585 142.748C130.542 143.035 130.407 143.257 130.174 143.429C129.941 143.601 129.692 143.667 129.413 143.618C129.134 143.587 128.913 143.452 128.747 143.231Z" fill="#1581BB"/>
<path d="M128.966 138.963C128.147 138.029 127.762 136.969 127.84 135.795C127.917 134.62 128.437 133.603 129.388 132.768C130.123 132.124 130.916 131.765 131.783 131.693L132.407 133.135C132.096 133.167 131.783 133.247 131.479 133.356C131.077 133.5 130.729 133.71 130.439 133.962C129.868 134.465 129.563 135.085 129.54 135.809C129.517 136.536 129.776 137.193 130.298 137.791C130.833 138.4 131.459 138.747 132.171 138.81C132.883 138.874 133.541 138.652 134.113 138.15C134.42 137.88 134.673 137.547 134.888 137.15C135.043 136.852 135.167 136.553 135.238 136.251L136.58 137.05C136.505 137.42 136.37 137.779 136.175 138.127C135.913 138.581 135.58 138.986 135.164 139.35C134.184 140.209 133.107 140.591 131.933 140.516C130.784 140.433 129.802 139.916 128.966 138.963Z" fill="#1581BB"/>
<path d="M134.687 133.965C133.751 133.147 133.239 132.156 133.147 130.998C133.058 129.815 133.44 128.738 134.282 127.776C135.123 126.814 136.14 126.291 137.323 126.222C138.481 126.162 139.532 126.535 140.468 127.354C141.413 128.181 141.925 129.172 142.019 130.326C142.097 131.501 141.724 132.569 140.876 133.54C140.029 134.511 139.018 135.025 137.843 135.103C136.683 135.163 135.632 134.79 134.687 133.965ZM135.856 132.63C136.465 133.161 137.131 133.425 137.846 133.394C138.561 133.362 139.176 133.066 139.676 132.495C140.175 131.923 140.388 131.277 140.325 130.562C140.262 129.847 139.911 129.22 139.302 128.689C138.702 128.164 138.044 127.911 137.321 127.934C136.594 127.957 135.982 128.255 135.482 128.827C134.983 129.399 134.77 130.045 134.842 130.769C134.917 131.487 135.256 132.104 135.856 132.63Z" fill="#1581BB"/>
<path d="M65.5781 78.0708C65.5781 76.6692 66.0405 75.4974 66.9797 74.5554C67.9333 73.6162 69.1453 73.1394 70.6158 73.1394C71.6785 73.1394 72.6033 73.4123 73.3932 73.9436L72.7383 75.9857C72.072 75.5376 71.3913 75.3193 70.6962 75.3193C69.8662 75.3193 69.197 75.5922 68.6944 76.1379C68.232 76.6405 67.9993 77.2954 67.9993 78.0708C67.9993 78.8463 68.232 79.5012 68.6944 80.0181C69.197 80.5753 69.8662 80.8482 70.6962 80.8482C71.4171 80.8482 72.1122 80.6299 72.7814 80.1818L73.4362 82.2239C72.6464 82.7553 71.7072 83.0281 70.6158 83.0281C69.1051 83.0281 67.8787 82.5513 66.9395 81.5978C66.029 80.673 65.5781 79.5012 65.5781 78.0708Z" fill="white"/>
<path d="M79.4823 78.7659C79.468 78.7515 80.2032 80.1129 81.6766 82.8529H79.1032L77.4 79.3259H76.6906V82.8529H74.3613V73.3175H77.4661C79.6862 73.3175 80.8035 74.2969 80.8035 76.247C80.8035 76.7927 80.6943 77.281 80.4761 77.7176C80.2463 78.18 79.9045 78.5361 79.4823 78.7659ZM76.6906 75.3193V77.3758H77.3857C78.0807 77.3758 78.4196 77.0225 78.4196 76.3275C78.4196 75.6611 78.0376 75.3193 77.2765 75.3193H76.6906Z" fill="white"/>
<path d="M84.4816 82.8529V78.5476L81.5664 73.3175H84.1829L85.6391 76.4366L87.1383 73.3175H89.7117L86.7965 78.5476V82.8529H84.4816Z" fill="white"/>
<path d="M93.8137 79.5155H92.6965V82.8529H90.3672V73.3175H93.7994C94.7673 73.3175 95.514 73.5903 96.0597 74.1475C96.6054 74.7047 96.8783 75.4543 96.8783 76.3964C96.8783 77.3212 96.6054 78.0708 96.0482 78.6424C95.4882 79.2312 94.7386 79.5155 93.8137 79.5155ZM92.6965 75.3193V77.5136H93.4605C94.1555 77.5136 94.4944 77.146 94.4944 76.3964C94.4944 76.069 94.414 75.8105 94.2359 75.6209C94.0579 75.417 93.7994 75.3222 93.4863 75.3222H92.6965V75.3193Z" fill="white"/>
<path d="M101.511 75.4026V82.8529H99.1814V75.4026H97.125V73.3175H103.567V75.4026H101.511Z" fill="white"/>
<path d="M103.516 78.0708C103.516 76.6692 103.978 75.4974 104.891 74.5697C105.831 73.6162 107.031 73.1394 108.516 73.1394C110.001 73.1394 111.199 73.6162 112.138 74.5697C113.051 75.4974 113.513 76.6664 113.513 78.0708C113.513 79.5012 113.051 80.673 112.138 81.5978C111.199 82.5513 109.998 83.0281 108.516 83.0281C107.031 83.0281 105.833 82.5513 104.891 81.5978C103.978 80.673 103.516 79.5012 103.516 78.0708ZM105.94 78.0708C105.94 78.875 106.184 79.5414 106.661 80.0583C107.137 80.5897 107.763 80.8482 108.513 80.8482C109.263 80.8482 109.889 80.5897 110.366 80.0583C110.842 79.5414 111.087 78.8722 111.087 78.0708C111.087 77.281 110.854 76.6262 110.377 76.1092C109.886 75.5778 109.26 75.3193 108.51 75.3193C107.761 75.3193 107.134 75.5778 106.658 76.1092C106.187 76.629 105.94 77.281 105.94 78.0708Z" fill="white"/>
<path d="M57.6671 94.1518L55.5704 88.6776V94.9302H53.3359V85.3947H56.3603L58.7298 91.4291L61.1136 85.3947H64.138V94.9302H61.9035V88.6776L59.8068 94.1518H57.6671Z" fill="white"/>
<path d="M67.7919 92.7905L67.1112 94.9302H64.7676L68.0648 85.3947H70.5176L73.8148 94.9302H71.4711L70.7904 92.7905H67.7919ZM69.2883 87.859L68.3893 90.8834H70.1873L69.2883 87.859Z" fill="white"/>
<path d="M79.5858 90.8403C79.5715 90.8259 80.3067 92.1873 81.7801 94.9273H79.2067L77.5035 91.4004H76.7941V94.9273H74.4648V85.3919H77.5696C79.7898 85.3919 80.907 86.3713 80.907 88.3214C80.907 88.8671 80.7979 89.3554 80.5796 89.792C80.3498 90.2544 80.008 90.6105 79.5858 90.8403ZM76.7941 87.3966V89.4531H77.4892C78.1842 89.4531 78.5232 89.0998 78.5232 88.4047C78.5232 87.7384 78.1412 87.3966 77.38 87.3966H76.7941Z" fill="white"/>
<path d="M84.7638 89.0711L87.5411 85.3947H90.1433L86.5732 89.9585L90.2093 94.9302H87.5383L84.7609 91.0902V94.9302H82.4316V85.3947H84.7609V89.0711H84.7638Z" fill="white"/>
<path d="M90.8809 94.9273V85.3919H95.9616V87.477H93.2102V89.0711H95.5538V91.1419H93.2102V92.845H96.0708V94.9302H90.8809V94.9273Z" fill="white"/>
<path d="M101.019 87.477V94.9273H98.6892V87.477H96.6328V85.3919H103.075V87.477H101.019Z" fill="white"/>
<path d="M106.234 94.9273H103.904V85.3919H106.234V94.9273Z" fill="white"/>
<path d="M109.91 89.0854V94.9302H107.621V85.3947H109.991L113.477 91.3056V85.3947H115.766V94.9302H113.451L109.91 89.0854Z" fill="white"/>
<path d="M125.983 93.6061C125.371 94.0829 124.785 94.4362 124.254 94.6401C123.49 94.9532 122.62 95.1025 121.626 95.1025C120.236 95.1025 119.078 94.6516 118.153 93.767C117.186 92.8278 116.697 91.6158 116.697 90.1309C116.697 88.7408 117.16 87.5833 118.073 86.6441C119.012 85.6906 120.224 85.2138 121.683 85.2138C122.677 85.2138 123.536 85.4177 124.285 85.8141C124.573 85.9634 124.831 86.1559 125.061 86.3598C125.25 86.5235 125.414 86.7016 125.564 86.8768L124.093 88.4019C124.024 88.3214 123.944 88.2238 123.82 88.129C123.671 88.0055 123.521 87.8849 123.343 87.7757C122.867 87.5029 122.35 87.3679 121.79 87.3679C120.959 87.3679 120.305 87.6264 119.814 88.1577C119.337 88.6604 119.104 89.3008 119.104 90.0907C119.104 90.9494 119.363 91.656 119.88 92.1873C120.382 92.6899 121.011 92.9513 121.787 92.9513C122.304 92.9513 122.769 92.8709 123.188 92.7187C123.338 92.6497 123.475 92.5837 123.596 92.5147C123.691 92.4602 123.774 92.4056 123.814 92.3654V91.521H122.166V89.5737H125.98V93.6061H125.983Z" fill="white"/>
<path d="M67.0966 104.865L66.4159 107.005H64.0723L67.3695 97.4691H69.8223L73.1194 107.005H70.7758L70.0951 104.865H67.0966ZM68.593 99.9334L67.694 102.958H69.492L68.593 99.9334Z" fill="white"/>
<path d="M82.3266 105.681C81.7148 106.157 81.1289 106.511 80.5976 106.715C79.8336 107.028 78.9633 107.177 77.9696 107.177C76.5795 107.177 75.422 106.729 74.4972 105.841C73.5293 104.902 73.041 103.69 73.041 102.205C73.041 100.815 73.5034 99.6577 74.4168 98.7185C75.3559 97.765 76.568 97.2882 78.027 97.2882C79.0208 97.2882 79.8795 97.4921 80.6292 97.8885C80.9164 98.0378 81.1749 98.2303 81.4046 98.4342C81.5942 98.5979 81.7579 98.776 81.9073 98.9512L80.4367 100.476C80.3678 100.393 80.2874 100.298 80.1639 100.203C80.0145 100.08 79.8652 99.9593 79.6871 99.8501C79.2103 99.5773 78.6934 99.4423 78.1333 99.4423C77.3032 99.4423 76.6484 99.7008 76.1573 100.232C75.6805 100.735 75.4479 101.375 75.4479 102.165C75.4479 103.024 75.7063 103.73 76.2233 104.262C76.726 104.764 77.3549 105.026 78.1304 105.026C78.6474 105.026 79.1098 104.945 79.532 104.793C79.6814 104.724 79.8192 104.658 79.9398 104.589C80.0346 104.535 80.1179 104.48 80.1581 104.44V103.595H78.5095V101.648H82.3237V105.681H82.3266Z" fill="white"/>
<path d="M83.4844 107.002V97.4663H88.5652V99.5514H85.8137V101.145H88.1573V103.216H85.8137V104.919H88.6743V107.005H83.4844V107.002Z" fill="white"/>
<path d="M92.0762 101.16V107.002H89.7871V97.4663H92.1566L95.6434 103.377V97.4663H97.9353V107.002H95.6204L92.0762 101.16Z" fill="white"/>
<path d="M98.8496 102.223C98.8496 100.821 99.312 99.6491 100.251 98.707C101.205 97.7679 102.417 97.2911 103.887 97.2911C104.95 97.2911 105.875 97.5639 106.665 98.0953L106.01 100.137C105.343 99.6893 104.66 99.471 103.968 99.471C103.138 99.471 102.468 99.7439 101.966 100.29C101.503 100.792 101.271 101.447 101.271 102.223C101.271 102.998 101.503 103.653 101.966 104.17C102.468 104.727 103.138 105 103.968 105C104.689 105 105.384 104.782 106.053 104.334L106.708 106.376C105.918 106.907 104.979 107.18 103.887 107.18C102.377 107.18 101.15 106.703 100.211 105.749C99.2977 104.822 98.8496 103.653 98.8496 102.223Z" fill="white"/>
<path d="M109.788 107.002V102.696L106.873 97.4663H109.49L110.949 100.585L112.448 97.4663H115.021L112.106 102.696V107.002H109.788Z" fill="white"/>
<path d="M107.447 125.648L108.191 123.476L110.457 123.459C110.712 123.456 110.824 123.132 110.62 122.974L108.811 121.572L109.469 119.432C109.543 119.188 109.271 118.984 109.058 119.128L107.194 120.394L105.33 119.128C105.117 118.984 104.845 119.185 104.919 119.432L105.577 121.572L103.768 122.974C103.564 123.132 103.676 123.456 103.931 123.459L106.197 123.476L106.941 125.648C107.019 125.892 107.363 125.892 107.447 125.648Z" fill="white"/>
<path d="M72.4897 125.648L73.2336 123.476L75.4997 123.459C75.7553 123.456 75.8673 123.132 75.6634 122.974L73.854 121.572L74.5117 119.432C74.5864 119.188 74.3135 118.984 74.101 119.128L72.237 120.394L70.373 119.128C70.1604 118.984 69.8876 119.185 69.9622 119.432L70.62 121.572L68.8105 122.974C68.6066 123.132 68.7186 123.456 68.9742 123.459L71.2403 123.476L71.9842 125.648C72.0618 125.892 72.4064 125.892 72.4897 125.648Z" fill="white"/>
<g opacity="0.3">
<path d="M88.2767 50.8978L87.2168 53.9882L83.9943 54.0112C83.6296 54.014 83.4716 54.4764 83.7617 54.7005L86.338 56.6966L85.4045 59.741C85.2983 60.0886 85.6889 60.3758 85.9904 60.1719L88.6443 58.3682L91.2981 60.1719C91.5997 60.3758 91.9903 60.0886 91.884 59.741L90.9506 56.6966L93.5269 54.7005C93.817 54.4764 93.659 54.014 93.2942 54.0112L90.0717 53.9882L89.0119 50.8978C88.8884 50.5503 88.3973 50.5503 88.2767 50.8978Z" fill="#1F1E21"/>
<path d="M78.3006 53.6751L77.5567 55.8465L75.2906 55.8637C75.035 55.8666 74.923 56.1911 75.1269 56.3491L76.9364 57.7507L76.2787 59.8904C76.204 60.1345 76.4768 60.3385 76.6894 60.1948L78.5534 58.9282L80.4174 60.1948C80.6299 60.3385 80.9028 60.1345 80.8281 59.8904L80.1704 57.7507L81.9798 56.3491C82.1837 56.1911 82.0717 55.8666 81.8161 55.8637L79.55 55.8465L78.8061 53.6751C78.7286 53.431 78.3839 53.431 78.3006 53.6751Z" fill="#1F1E21"/>
<path d="M98.4627 53.6751L97.7188 55.8465L95.4527 55.8637C95.1971 55.8666 95.0851 56.1911 95.289 56.3491L97.0985 57.7507L96.4408 59.8904C96.3661 60.1345 96.6389 60.3385 96.8515 60.1948L98.7155 58.9282L100.579 60.1948C100.792 60.3385 101.065 60.1345 100.99 59.8904L100.332 57.7507L102.142 56.3491C102.346 56.1911 102.234 55.8666 101.978 55.8637L99.7121 55.8465L98.9682 53.6751C98.8907 53.431 98.546 53.431 98.4627 53.6751Z" fill="#1F1E21"/>
</g>
<path d="M88.2767 51.6704L87.2168 54.7608L83.9943 54.7838C83.6296 54.7867 83.4716 55.2491 83.7617 55.4731L86.338 57.4692L85.4045 60.5137C85.2983 60.8612 85.6889 61.1484 85.9904 60.9445L88.6443 59.1408L91.2981 60.9445C91.5997 61.1484 91.9903 60.8612 91.884 60.5137L90.9506 57.4692L93.5269 55.4731C93.817 55.2491 93.659 54.7867 93.2942 54.7838L90.0717 54.7608L89.0119 51.6704C88.8884 51.3229 88.3973 51.3229 88.2767 51.6704Z" fill="white"/>
<path d="M78.3006 54.4477L77.5567 56.619L75.2906 56.6363C75.035 56.6391 74.923 56.9637 75.1269 57.1217L76.9364 58.5233L76.2787 60.663C76.204 60.9071 76.4768 61.111 76.6894 60.9674L78.5534 59.7008L80.4174 60.9674C80.6299 61.111 80.9028 60.91 80.8281 60.663L80.1704 58.5233L81.9798 57.1217C82.1837 56.9637 82.0717 56.6391 81.8161 56.6363L79.55 56.619L78.8061 54.4477C78.7286 54.2036 78.3839 54.2036 78.3006 54.4477Z" fill="white"/>
<path d="M98.4627 54.4477L97.7188 56.619L95.4527 56.6363C95.1971 56.6391 95.0851 56.9637 95.289 57.1217L97.0985 58.5233L96.4408 60.663C96.3661 60.9071 96.6389 61.111 96.8515 60.9674L98.7155 59.7008L100.579 60.9674C100.792 61.111 101.065 60.91 100.99 60.663L100.332 58.5233L102.142 57.1217C102.346 56.9637 102.234 56.6391 101.978 56.6363L99.7121 56.619L98.9682 54.4477C98.8907 54.2036 98.546 54.2036 98.4627 54.4477Z" fill="white"/>
<path d="M96.8706 122.844C96.9367 123.017 96.8045 123.134 96.7385 123.261C95.6614 125.343 94.5758 127.42 93.4959 129.502C93.404 129.68 93.3264 129.829 93.0794 129.838C90.5835 129.938 88.0905 130.05 85.4941 130.165C86.2237 128.784 86.9331 127.451 87.6396 126.116V126.11C88.3347 126.142 89.0297 125.984 89.7162 126.044C90.6094 126.121 91.1321 125.797 91.4279 124.958C91.6663 124.283 92.1402 123.712 92.3528 123.017C93.8577 122.959 95.3627 122.902 96.8706 122.844Z" fill="#C7E065"/>
<path d="M96.872 122.844C95.3641 122.902 93.8591 122.959 92.3512 123.017L92.357 123.025C91.8486 122.218 91.3316 121.42 90.8434 120.604C90.6854 120.337 90.5016 120.271 90.2058 120.291C89.2838 120.351 88.3561 120.38 87.4313 120.423C87.3968 120.403 87.3595 120.383 87.325 120.363C86.5237 119.136 85.7224 117.91 84.8809 116.62C85.9751 116.563 86.9775 116.506 87.9827 116.457C89.4246 116.388 90.8664 116.333 92.3053 116.259C92.604 116.244 92.7792 116.328 92.9429 116.589C94.198 118.568 95.4675 120.538 96.7341 122.511C96.8002 122.612 96.8921 122.704 96.872 122.844Z" fill="#38B5FC"/>
<path d="M87.3232 120.36C87.3577 120.38 87.395 120.4 87.4295 120.42C87.395 120.61 87.5329 120.728 87.6162 120.863C88.1102 121.641 88.6099 122.416 89.1068 123.192C88.6157 124.163 88.1274 125.136 87.6363 126.107V126.113C87.0848 125.467 86.7373 124.68 86.2146 124.019C85.8297 123.531 85.8613 123.132 86.1658 122.612C86.5966 121.888 87.0216 121.153 87.3232 120.36Z" fill="#38B4FB"/>
<path d="M87.6367 126.11C88.1279 125.139 88.6161 124.166 89.1072 123.195C90.19 123.14 91.2728 123.083 92.3556 123.028L92.3499 123.02C92.1373 123.715 91.6634 124.286 91.425 124.961C91.1292 125.803 90.6065 126.127 89.7133 126.047C89.0297 125.984 88.3318 126.142 87.6367 126.11Z" fill="#043A70"/>
<path d="M92.3558 123.025C91.273 123.08 90.1902 123.137 89.1074 123.192C88.6105 122.416 88.1108 121.641 87.6168 120.863C87.5306 120.728 87.3928 120.61 87.4301 120.42C88.3549 120.38 89.2798 120.351 90.2046 120.288C90.5004 120.268 90.6842 120.337 90.8422 120.601C91.3304 121.42 91.8503 122.218 92.3558 123.025Z" fill="#C6E066"/>
<defs>
<linearGradient id="paint0_linear_461_1154" x1="89.5016" y1="177.925" x2="89.5016" y2="0.513012" gradientUnits="userSpaceOnUse">
<stop stop-color="#3468A2"/>
<stop offset="1" stop-color="#83BAEE"/>
</linearGradient>
<linearGradient id="paint1_linear_461_1154" x1="34.5095" y1="145.682" x2="146.586" y2="31.1873" gradientUnits="userSpaceOnUse">
<stop stop-color="#3468A2"/>
<stop offset="1" stop-color="#83BAEE"/>
</linearGradient>
<linearGradient id="paint2_linear_461_1154" x1="89.4999" y1="159.321" x2="89.4999" y2="19.9283" gradientUnits="userSpaceOnUse">
<stop stop-color="#CDE1E8"/>
<stop offset="1" stop-color="#CDE1E8" stop-opacity="0"/>
</linearGradient>
<linearGradient id="paint3_linear_461_1154" x1="89.5029" y1="179.269" x2="89.5029" y2="0.530768" gradientUnits="userSpaceOnUse">
<stop stop-color="#3468A2"/>
<stop offset="1" stop-color="#83BAEE"/>
</linearGradient>
<linearGradient id="paint4_linear_461_1154" x1="89.4935" y1="33.6842" x2="89.4935" y2="76.5124" gradientUnits="userSpaceOnUse">
<stop stop-color="#3468A2"/>
<stop offset="1" stop-color="#83BAEE"/>
</linearGradient>
<linearGradient id="paint5_linear_461_1154" x1="89.4935" y1="145.317" x2="89.4935" y2="102.489" gradientUnits="userSpaceOnUse">
<stop stop-color="#3468A2"/>
<stop offset="1" stop-color="#83BAEE"/>
</linearGradient>
<linearGradient id="paint6_linear_461_1154" x1="89.5011" y1="178.194" x2="89.5011" y2="0.087365" gradientUnits="userSpaceOnUse">
<stop stop-color="#3468A2"/>
<stop offset="1" stop-color="#83BAEE"/>
</linearGradient>
<linearGradient id="paint7_linear_461_1154" x1="22.7626" y1="91.8877" x2="22.7626" y2="86.7222" gradientUnits="userSpaceOnUse">
<stop stop-color="#83BAEE"/>
<stop offset="1" stop-color="#3468A2"/>
</linearGradient>
<linearGradient id="paint8_linear_461_1154" x1="156.234" y1="91.8877" x2="156.234" y2="86.7222" gradientUnits="userSpaceOnUse">
<stop stop-color="#83BAEE"/>
<stop offset="1" stop-color="#3468A2"/>
</linearGradient>
</defs>
</svg>
