<svg width="170" height="170" viewBox="0 0 170 170" fill="none" xmlns="http://www.w3.org/2000/svg">
<path d="M169.167 84.5837C169.167 79.0543 166.925 74.0989 163.381 70.737C159.689 67.236 158.258 61.91 159.694 57.0293C161.074 52.3416 160.526 46.9306 157.753 42.1477C154.973 37.3545 150.535 34.1882 145.77 33.0659C140.823 31.8997 136.912 28.0127 135.713 23.0727C134.56 18.3156 131.365 13.8956 126.554 11.1464C121.804 8.43314 116.455 7.90028 111.811 9.25432C106.997 10.6573 101.803 9.27749 98.3197 5.67101C94.9604 2.19324 90.0513 0 84.5837 0C79.0543 0 74.0989 2.24215 70.737 5.78685C67.236 9.47828 61.91 10.9095 57.0293 9.47313C52.3416 8.09335 46.9306 8.64166 42.1477 11.4141C37.3545 14.1942 34.1882 18.6322 33.0658 23.3971C31.8997 28.3447 28.0127 32.255 23.0727 33.4546C18.3156 34.6078 13.8956 37.8024 11.1464 42.6136C8.43314 47.3631 7.90028 52.7123 9.25432 57.3562C10.6573 62.17 9.27749 67.3648 5.67101 70.8477C2.19324 74.2045 0 79.1135 0 84.5837C0 90.1131 2.24214 95.0685 5.78685 98.4304C9.47828 101.931 10.9095 107.257 9.47313 112.138C8.09335 116.826 8.64165 122.237 11.4141 127.02C14.1942 131.813 18.6322 134.979 23.3971 136.102C28.3447 137.268 32.255 141.155 33.4546 146.095C34.6078 150.852 37.8024 155.272 42.6136 158.021C47.3631 160.734 52.7123 161.267 57.3562 159.913C62.17 158.51 67.3647 159.89 70.8477 163.496C74.207 166.977 79.1161 169.17 84.5863 169.17C90.1157 169.17 95.0711 166.928 98.433 163.383C101.934 159.692 107.26 158.26 112.141 159.697C116.828 161.077 122.239 160.528 127.022 157.756C131.815 154.976 134.982 150.538 136.104 145.773C137.27 140.825 141.157 136.915 146.097 135.715C150.854 134.562 155.274 131.368 158.024 126.556C160.737 121.807 161.27 116.458 159.916 111.814C158.513 107 159.892 101.805 163.499 98.3223C166.974 94.9604 169.167 90.0539 169.167 84.5837Z" fill="url(#paint0_linear_467_1491)"/>
<path d="M166.461 84.5837C166.461 79.2319 164.291 74.4361 160.86 71.1797C157.287 67.7895 155.899 62.6359 157.29 57.9122C158.626 53.3764 158.095 48.1379 155.41 43.5069C152.72 38.8681 148.424 35.8022 143.811 34.7159C139.02 33.5858 135.236 29.8249 134.075 25.042C132.958 20.4367 129.866 16.1584 125.21 13.4966C120.612 10.8709 115.435 10.3561 110.938 11.6664C106.279 13.0255 101.251 11.6895 97.8791 8.19888C94.6253 4.8318 89.8759 2.70807 84.5807 2.70807C79.2289 2.70807 74.4331 4.87814 71.1767 8.30957C67.7865 11.8826 62.6329 13.2701 57.9092 11.88C53.3734 10.544 48.1349 11.0743 43.5039 13.7592C38.8651 16.4493 35.7992 20.7456 34.7129 25.3586C33.5828 30.1493 29.8219 33.9334 25.039 35.0943C20.4337 36.2115 16.1554 39.3032 13.4936 43.9599C10.8679 48.5575 10.3531 53.7342 11.6634 58.2288C13.02 62.8882 11.6865 67.9156 8.19589 71.2879C4.82881 74.5391 2.70508 79.2911 2.70508 84.5863C2.70508 89.9381 4.87515 94.7339 8.30658 97.9902C11.8796 101.38 13.2671 106.534 11.8744 111.258C10.5384 115.794 11.0687 121.032 13.7536 125.663C16.4437 130.302 20.7401 133.368 25.3531 134.454C30.1437 135.584 33.9278 139.345 35.0888 144.128C36.206 148.733 39.2976 153.012 43.9544 155.673C48.5519 158.299 53.7287 158.814 58.2258 157.504C62.8852 156.144 67.9126 157.48 71.2849 160.971C74.5387 164.338 79.2881 166.462 84.5833 166.462C89.9351 166.462 94.7309 164.292 97.9872 160.86C101.377 157.287 106.531 155.9 111.255 157.29C115.791 158.626 121.029 158.096 125.66 155.411C130.299 152.721 133.365 148.424 134.451 143.811C135.581 139.021 139.342 135.237 144.125 134.076C148.73 132.958 153.009 129.867 155.67 125.21C158.299 120.612 158.811 115.436 157.501 110.939C156.144 106.279 157.477 101.252 160.968 97.8796C164.338 94.6283 166.461 89.8789 166.461 84.5837Z" fill="url(#paint1_linear_467_1491)"/>
<path d="M154.711 104.076C152.997 110.226 150.435 116.252 146.991 121.997C126.325 156.464 81.6343 167.656 47.1681 146.991C30.518 137.01 19.2944 121.418 14.478 104.076C10.9874 91.511 10.8587 78.022 14.4549 65.0917C16.1693 58.9419 18.7307 52.9157 22.175 47.17C42.8408 12.7038 87.5318 1.50852 121.998 22.1744C138.648 32.1572 149.872 47.7467 154.688 65.0917C158.179 77.6565 158.31 91.1454 154.711 104.076Z" fill="white"/>
<path d="M84.5808 151.063C121.296 151.063 151.06 121.299 151.06 84.5837C151.06 47.8682 121.296 18.1045 84.5808 18.1045C47.8653 18.1045 18.1016 47.8682 18.1016 84.5837C18.1016 121.299 47.8653 151.063 84.5808 151.063Z" fill="url(#paint2_linear_467_1491)"/>
<path d="M84.5193 155.341C71.7615 155.341 59.2045 151.856 48.2048 145.261C32.8754 136.068 21.6749 121.557 16.6681 104.395C12.8788 91.3848 12.8737 77.6823 16.6526 64.77C18.3387 58.9883 20.7791 53.4151 23.9094 48.2023C36.6208 26.9985 59.8969 13.8262 84.6506 13.8262C97.4085 13.8262 109.966 17.3117 120.965 23.9068C136.297 33.0994 147.498 47.6102 152.504 64.77C156.291 77.7801 156.296 91.4827 152.517 104.395C150.834 110.177 148.391 115.75 145.261 120.963C132.549 142.169 109.276 155.341 84.5193 155.341ZM84.6506 16.1121C60.6949 16.1121 38.1705 28.8596 25.8683 49.3787C22.8385 54.4216 20.4753 59.8172 18.8459 65.411C15.1905 77.9062 15.1956 91.166 18.8613 103.757C23.706 120.36 34.5435 134.405 49.3813 143.299C60.0257 149.681 72.176 153.055 84.5193 153.055C108.475 153.055 130.999 140.308 143.302 119.786C146.331 114.743 148.695 109.348 150.324 103.754C153.982 91.2587 153.977 77.9989 150.309 65.4084C145.464 48.8047 134.624 34.7597 119.789 25.8658C109.147 19.4843 96.9966 16.1121 84.6506 16.1121Z" fill="url(#paint3_linear_467_1491)"/>
<path d="M120.48 61.8894C108.204 42.436 82.5698 36.263 62.7432 48.1508C56.8379 51.6955 52.1065 56.4423 48.6699 61.8894H120.48Z" fill="url(#paint4_linear_467_1491)"/>
<path d="M120.48 107.275C108.204 126.729 82.5698 132.902 62.7432 121.014C56.8379 117.472 52.1065 112.723 48.6699 107.275H120.48Z" fill="url(#paint5_linear_467_1491)"/>
<path d="M151.421 104.076H17.7627C14.1125 91.5418 13.9683 78.0066 17.7473 65.0917H151.403C155.056 77.6256 155.2 91.1609 151.421 104.076Z" fill="url(#paint6_linear_467_1491)"/>
<path d="M21.5148 88.2957C19.4683 88.2957 17.8027 86.6302 17.8027 84.5837C17.8027 82.5372 19.4683 80.8717 21.5148 80.8717C23.5613 80.8717 25.2268 82.5372 25.2268 84.5837C25.2268 86.6302 23.5613 88.2957 21.5148 88.2957Z" fill="white"/>
<path d="M24.0529 84.5837C24.0529 85.9841 22.9177 87.1219 21.5147 87.1219C20.1144 87.1219 18.9766 85.9867 18.9766 84.5837C18.9766 83.1808 20.1118 82.0455 21.5147 82.0455C22.9151 82.0455 24.0529 83.1808 24.0529 84.5837Z" fill="url(#paint7_linear_467_1491)"/>
<path d="M147.653 88.2957C145.607 88.2957 143.941 86.6302 143.941 84.5837C143.941 82.5372 145.607 80.8717 147.653 80.8717C149.7 80.8717 151.365 82.5372 151.365 84.5837C151.365 86.6302 149.7 88.2957 147.653 88.2957Z" fill="white"/>
<path d="M147.653 87.1219C149.055 87.1219 150.192 85.9855 150.192 84.5837C150.192 83.1819 149.055 82.0455 147.653 82.0455C146.252 82.0455 145.115 83.1819 145.115 84.5837C145.115 85.9855 146.252 87.1219 147.653 87.1219Z" fill="url(#paint8_linear_467_1491)"/>
<path d="M47.0242 52.9414C46.62 52.5604 46.3497 52.0353 46.2081 51.3583C46.1232 50.8898 46.0794 50.2514 46.0897 49.4302L46.0923 48.9591L46.0949 48.488C46.1026 48.1379 46.0949 47.8599 46.0794 47.6231C46.0279 47.031 45.8761 46.614 45.6238 46.3772C45.3895 46.1558 45.1321 46.0502 44.8541 46.058C44.5838 46.0734 44.3264 46.2047 44.087 46.457C43.6622 46.9074 43.6262 47.4326 43.984 48.0427L42.6171 48.8433C42.2979 48.3722 42.1331 47.8599 42.1254 47.3116C42.1126 46.5857 42.3906 45.9138 42.9672 45.3037C43.5438 44.6936 44.1797 44.359 44.8773 44.3023C45.5852 44.256 46.221 44.498 46.7873 45.0334C47.4257 45.6358 47.7089 46.668 47.6471 48.1199L47.6343 48.5318L47.6034 48.9437C47.5776 49.2603 47.5673 49.5048 47.5648 49.6876C47.5622 50.2127 47.6265 50.5937 47.781 50.8254L50.2728 48.1817L51.3797 49.2242L47.4721 53.3687L47.0242 52.9414Z" fill="#1581BB"/>
<path d="M54.1697 47.0979C53.3562 47.7621 52.5196 47.95 51.6701 47.6694C50.8618 47.4043 49.9866 46.6835 49.0264 45.5045C48.0662 44.3281 47.5359 43.3241 47.4355 42.4798C47.3325 41.5917 47.6826 40.8091 48.4961 40.145C49.3198 39.4731 50.1539 39.2852 51.0059 39.5658C51.8143 39.8309 52.6895 40.5517 53.6497 41.7307C54.6099 42.9071 55.1401 43.9111 55.2405 44.7554C55.3435 45.6435 54.9908 46.4261 54.1697 47.0979ZM53.1374 45.834C53.521 45.5225 53.6214 45.1184 53.454 44.619C53.3099 44.2277 52.9212 43.633 52.2802 42.8505C51.6392 42.0653 51.1372 41.5659 50.782 41.3471C50.3264 41.082 49.9119 41.1 49.5283 41.4141C49.1448 41.7255 49.0444 42.1297 49.222 42.6214C49.3662 43.0127 49.7549 43.6073 50.3959 44.3924C51.0368 45.1776 51.5388 45.677 51.8941 45.8958C52.3394 46.1661 52.7538 46.1455 53.1374 45.834Z" fill="#1581BB"/>
<path d="M56.5401 44.2251C56.2466 43.7514 56.123 43.1748 56.1591 42.4849C56.2003 42.0087 56.3187 41.3832 56.5426 40.5903L56.6688 40.1347L56.7949 39.679C56.8927 39.3418 56.9571 39.0715 57.0008 38.8398C57.1038 38.2529 57.0626 37.8127 56.8824 37.5193C56.7125 37.2464 56.4937 37.0765 56.2209 37.0121C55.9557 36.9581 55.6725 37.0173 55.3791 37.2001C54.8539 37.5244 54.6815 38.0238 54.872 38.706L53.3455 39.1282C53.1575 38.5901 53.1318 38.0547 53.2657 37.5218C53.4407 36.8191 53.8809 36.2399 54.5965 35.7971C55.3122 35.3543 56.0123 35.1973 56.6997 35.3235C57.3947 35.4599 57.9456 35.8589 58.3549 36.5205C58.8157 37.267 58.826 38.3353 58.3909 39.7254L58.2725 40.1192L58.1361 40.5079C58.0305 40.8065 57.9559 41.0408 57.907 41.2158C57.7705 41.723 57.7319 42.1091 57.822 42.3717L60.9111 40.4616L61.7117 41.7539L56.867 44.7502L56.5401 44.2251Z" fill="#1581BB"/>
<path d="M61.2428 39.7768L62.4089 38.7317C62.8775 39.2517 63.4206 39.3727 64.0384 39.0895C64.3654 38.9402 64.5893 38.7163 64.7052 38.4331C64.8158 38.1396 64.8004 37.8333 64.6511 37.5064C64.5018 37.1795 64.2778 36.9838 63.9766 36.8886C63.6497 36.7933 63.2868 36.8345 62.8723 37.025L62.0048 37.4189L61.4462 36.1935L62.2596 33.6528L59.4126 34.9476L58.7793 33.5524L63.4361 31.4364L64.0693 32.8316L63.2044 35.3157C63.7707 35.1252 64.3164 35.1355 64.8673 35.3595C65.4774 35.5989 65.9253 36.0468 66.2265 36.7084C66.5689 37.4626 66.5972 38.2091 66.3115 38.9248C66.0257 39.6378 65.5083 40.1733 64.7309 40.5259C63.9535 40.8786 63.2378 40.9455 62.566 40.7216C62.0434 40.5543 61.6032 40.2376 61.2428 39.7768Z" fill="#1581BB"/>
<path d="M66.4395 34.7339L69.701 33.6528L70.1824 35.1072L66.9208 36.1884L66.4395 34.7339Z" fill="#1581BB"/>
<path d="M71.3896 30.5663L69.4152 31.0219L69.0625 29.4928L74.6975 28.1954L75.0501 29.7245L73.0886 30.1776L74.6769 37.0765L72.9805 37.4678L71.3896 30.5663Z" fill="#1581BB"/>
<path d="M76.0076 32.2369C75.9072 30.9679 76.2419 29.8764 76.9987 28.96C77.7813 28.0307 78.829 27.5132 80.1341 27.4077C81.4392 27.3022 82.559 27.6471 83.478 28.4425C84.3713 29.2277 84.8732 30.2522 84.9762 31.5213C85.0792 32.8033 84.7445 33.8947 83.9877 34.8112C83.2051 35.7276 82.1677 36.245 80.8497 36.3505C79.5317 36.4561 78.4248 36.1111 77.5084 35.3286C76.6126 34.5434 76.1106 33.5189 76.0076 32.2369ZM77.8173 32.0928C77.8842 32.9191 78.1854 33.5884 78.7312 34.0775C79.2795 34.5666 79.941 34.788 80.7159 34.7262C81.4907 34.6644 82.1111 34.3427 82.5745 33.7712C83.0378 33.1997 83.2283 32.4918 83.164 31.6655C83.0996 30.852 82.7984 30.1956 82.2501 29.6936C81.7018 29.1916 81.0402 28.9728 80.2628 29.0346C79.4854 29.0964 78.8676 29.4182 78.4068 29.9999C77.946 30.5817 77.753 31.2793 77.8173 32.0928Z" fill="#1581BB"/>
<path d="M86.6147 27.3614L89.3614 27.5725C90.2109 27.6368 90.8699 27.9354 91.3513 28.4554C91.8429 28.9883 92.0514 29.6627 91.9897 30.4762C91.9279 31.2768 91.6061 31.91 91.0398 32.3734C90.4709 32.8393 89.7733 33.0453 88.9598 32.9835L87.9378 32.9063L87.6907 36.1215L85.9531 35.9876L86.6147 27.3614ZM88.8311 31.4595C89.2121 31.4879 89.5287 31.4003 89.781 31.197C90.0333 30.9807 90.18 30.695 90.2057 30.3372C90.234 29.9794 90.1311 29.6859 89.9148 29.4465C89.696 29.22 89.4103 29.0861 89.0396 29.0578L88.239 28.996L88.0563 31.3978L88.8311 31.4595Z" fill="#1581BB"/>
<path d="M97.0387 28.6485L99.5538 29.3333C100.437 29.5727 101.075 30.0026 101.456 30.6307C101.822 31.2176 101.901 31.8663 101.708 32.5819C101.433 33.5962 100.818 34.2088 99.8446 34.4457L100.831 38.6442L98.9694 38.1397L98.2358 34.4302L97.3425 34.1882L96.4544 37.4549L94.7734 36.9967L97.0387 28.6485ZM98.5112 32.9809C98.833 33.0685 99.1342 33.0479 99.389 32.9114C99.6696 32.7699 99.8678 32.5176 99.9605 32.1701C100.051 31.8354 100.015 31.5445 99.8549 31.2845C99.6799 31.0323 99.407 30.8546 99.026 30.7517L98.3233 30.5612L97.7235 32.7673L98.5112 32.9809Z" fill="#1581BB"/>
<path d="M103.721 37.4703L102.138 39.2054L100.531 38.5L106.812 31.8096L108.488 32.5433L107.819 41.6972L106.213 40.9919L106.416 38.6519L103.721 37.4703ZM106.9 33.8845L104.732 36.3351L106.578 37.1434L106.9 33.8845Z" fill="#1581BB"/>
<path d="M112.364 36.3068L110.624 35.2694L111.427 33.9205L116.395 36.8783L115.592 38.2272L113.862 37.1975L110.24 43.2804L108.742 42.3897L112.364 36.3068Z" fill="#1581BB"/>
<path d="M117.712 37.823L121.247 40.5259L120.294 41.7719L118.145 40.1269L116.974 41.6586L118.819 43.0693L117.882 44.2972L116.037 42.8865L114.791 44.516L117.028 46.2278L116.083 47.4635L112.461 44.6936L117.712 37.823Z" fill="#1581BB"/>
<path d="M122.876 41.8723L124.503 43.4966C125.507 44.5005 126.024 45.5585 126.058 46.6757C126.102 47.8033 125.638 48.8432 124.686 49.7957C123.715 50.7662 122.675 51.2295 121.55 51.1858C120.449 51.1523 119.393 50.6194 118.387 49.6129L116.76 47.9886L122.876 41.8723ZM119.496 48.591C120.091 49.1856 120.719 49.4816 121.383 49.4816C122.081 49.4816 122.755 49.1573 123.401 48.5112C124.04 47.8728 124.354 47.2086 124.354 46.511C124.354 45.8288 124.055 45.2007 123.471 44.6138L123.033 44.1762L119.059 48.1533L119.496 48.591Z" fill="#1581BB"/>
<path d="M53.9071 83.953H50.9004V75.7953H53.8144C54.6407 75.7953 55.2946 75.9807 55.7605 76.3668C56.2265 76.7504 56.4607 77.2884 56.4607 77.986C56.4607 78.3464 56.3783 78.6733 56.2265 78.9771C56.0643 79.2911 55.8429 79.5254 55.5726 79.6772C56.3294 79.9913 56.7156 80.6091 56.7156 81.5178C56.7156 82.3107 56.4478 82.9285 55.8995 83.3584C55.3976 83.7548 54.7334 83.953 53.9071 83.953ZM52.88 77.4969V78.9771H53.7295C54.1954 78.9771 54.4296 78.7196 54.4296 78.2202C54.4296 77.7414 54.1851 77.4969 53.7063 77.4969H52.88ZM52.88 80.5731V82.2386H53.8479C54.1053 82.2386 54.3035 82.1562 54.4528 81.994C54.5918 81.8422 54.6613 81.6439 54.6613 81.3994C54.6613 80.8511 54.3936 80.5731 53.8582 80.5731H52.88Z" fill="white"/>
<path d="M57.5039 83.953V75.7953H59.4963V82.1691H61.9444V83.953H57.5039Z" fill="white"/>
<path d="M61.7363 79.8626C61.7363 78.663 62.1328 77.659 62.9127 76.8662C63.7159 76.0502 64.743 75.6434 66.0121 75.6434C67.2838 75.6434 68.3083 76.0502 69.1115 76.8662C69.8915 77.659 70.2879 78.6604 70.2879 79.8626C70.2879 81.0853 69.8915 82.0893 69.1115 82.8821C68.3083 83.6982 67.2812 84.1049 66.0121 84.1049C64.743 84.1049 63.7159 83.6982 62.9127 82.8821C62.1328 82.0893 61.7363 81.0879 61.7363 79.8626ZM63.8111 79.8626C63.8111 80.5499 64.0197 81.1214 64.429 81.5641C64.8357 82.0198 65.3737 82.2412 66.0147 82.2412C66.6557 82.2412 67.1911 82.0198 67.6004 81.5641C68.0071 81.1214 68.2182 80.5499 68.2182 79.8626C68.2182 79.1856 68.02 78.627 67.6133 78.1842C67.1937 77.7285 66.6582 77.5072 66.0173 77.5072C65.3763 77.5072 64.8408 77.7285 64.4315 78.1842C64.0222 78.627 63.8111 79.1881 63.8111 79.8626Z" fill="white"/>
<path d="M70.6855 79.8626C70.6855 78.663 71.082 77.659 71.8851 76.8559C72.7012 76.0527 73.7386 75.6434 74.9974 75.6434C75.9061 75.6434 76.6989 75.8777 77.3759 76.3307L76.8173 78.0786C76.2459 77.6951 75.6641 77.5072 75.0694 77.5072C74.359 77.5072 73.7875 77.7414 73.355 78.2074C72.9586 78.6372 72.7604 79.1984 72.7604 79.8626C72.7604 80.5267 72.9586 81.0853 73.355 81.5281C73.7875 82.0069 74.3564 82.2386 75.0694 82.2386C75.6873 82.2386 76.2819 82.0532 76.8534 81.6671L77.412 83.415C76.735 83.8706 75.9318 84.1023 74.9999 84.1023C73.7077 84.1023 72.6574 83.6956 71.8542 82.8796C71.0691 82.0893 70.6855 81.0879 70.6855 79.8626Z" fill="white"/>
<path d="M80.1949 78.9436L82.5735 75.7979H84.8002L81.7472 79.703L84.8594 83.9556H82.5761L80.1975 80.6683V83.9556H78.2051V75.7979H80.1975V78.9436H80.1949Z" fill="white"/>
<path d="M85.0176 79.8626C85.0176 78.663 85.414 77.659 86.2172 76.8559C87.0332 76.0527 88.0706 75.6434 89.3294 75.6434C90.2381 75.6434 91.031 75.8777 91.708 76.3307L91.1494 78.0786C90.5779 77.6951 89.9961 77.5072 89.4015 77.5072C88.691 77.5072 88.1195 77.7414 87.687 78.2074C87.2906 78.6372 87.0924 79.1984 87.0924 79.8626C87.0924 80.5267 87.2906 81.0853 87.687 81.5281C88.1169 82.0069 88.6884 82.2386 89.4015 82.2386C90.0193 82.2386 90.6139 82.0532 91.1854 81.6671L91.744 83.415C91.067 83.8706 90.2638 84.1023 89.332 84.1023C88.0371 84.1023 86.9894 83.6956 86.1863 82.8796C85.4011 82.0893 85.0176 81.0879 85.0176 79.8626Z" fill="white"/>
<path d="M99.4315 83.953H97.439V80.761H94.5276V83.953H92.5352V75.7953H94.5276V78.9642H97.4416V75.7953H99.4341V83.953H99.4315Z" fill="white"/>
<path d="M102.577 82.1253L101.996 83.9556H99.9902L102.812 75.7979H104.91L107.731 83.9556H105.726L105.144 82.1253H102.577ZM103.859 77.9062L103.09 80.4933H104.629L103.859 77.9062Z" fill="white"/>
<path d="M110.28 83.953H108.287V75.7953H110.28V83.953Z" fill="white"/>
<path d="M113.428 78.9539V83.953H111.469V75.7953H113.497L116.481 80.8537V75.7953H118.44V83.953H116.458L113.428 78.9539Z" fill="white"/>
<path d="M34.6203 93.3875L32.8261 88.7024V94.0517H30.916V85.894H33.5031L35.5316 91.0579L37.5704 85.894H40.1575V94.0517H38.2474V88.7024L36.4532 93.3875H34.6203Z" fill="white"/>
<path d="M43.2804 92.2214L42.6987 94.0517H40.6934L43.5147 85.894H45.6127L48.434 94.0517H46.4287L45.8469 92.2214H43.2804ZM44.5624 88.0023L43.7927 90.5894H45.3321L44.5624 88.0023Z" fill="white"/>
<path d="M53.3696 90.5559C53.3567 90.5456 53.9874 91.7091 55.2462 94.0517H53.0427L51.5857 91.0321H50.9807V94.0517H48.9883V85.894H51.6449C53.5446 85.894 54.4997 86.7332 54.4997 88.3987C54.4997 88.8646 54.407 89.2842 54.2191 89.6575C54.0209 90.0539 53.73 90.3577 53.3696 90.5559ZM50.9807 87.6058V89.3666H51.5754C52.17 89.3666 52.4609 89.0628 52.4609 88.4682C52.4609 87.8967 52.134 87.6058 51.4827 87.6058H50.9807Z" fill="white"/>
<path d="M57.7985 89.0397L60.177 85.894H62.4037L59.3507 89.7991L62.463 94.0517H60.1796L57.801 90.7644V94.0517H55.8086V85.894H57.801V89.0397H57.7985Z" fill="white"/>
<path d="M63.0273 94.0517V85.894H67.3752V87.6779H65.0198V89.0422H67.0251V90.8133H65.0198V92.2703H67.4679V94.0543H63.0273V94.0517Z" fill="white"/>
<path d="M71.6985 87.6753V94.0491H69.7061V87.6753H67.9453V85.8914H73.4567V87.6753H71.6985Z" fill="white"/>
<path d="M76.1604 94.0517H74.168V85.894H76.1604V94.0517Z" fill="white"/>
<path d="M79.3105 89.0525V94.0517H77.3516V85.894H79.38L82.3636 90.9523V85.894H84.3225V94.0517H82.3404L79.3105 89.0525Z" fill="white"/>
<path d="M93.0579 92.9216C92.5328 93.3283 92.0334 93.6321 91.5778 93.8071C90.9239 94.0748 90.18 94.2036 89.3279 94.2036C88.1386 94.2036 87.1475 93.82 86.3572 93.0606C85.5309 92.2575 85.1113 91.22 85.1113 89.9484C85.1113 88.7591 85.5078 87.768 86.2877 86.9649C87.0909 86.1488 88.1283 85.7421 89.3768 85.7421C90.2263 85.7421 90.9625 85.9171 91.6035 86.2544C91.8481 86.3831 92.0694 86.5453 92.2677 86.7203C92.4298 86.8593 92.5714 87.0112 92.6976 87.1631L91.4388 88.4682C91.3796 88.3987 91.3101 88.3163 91.2045 88.2339C91.0758 88.1284 90.9471 88.0254 90.7978 87.9302C90.3911 87.6959 89.9483 87.5801 89.4695 87.5801C88.759 87.5801 88.2004 87.8015 87.7808 88.2571C87.3741 88.687 87.1759 89.2353 87.1759 89.9123C87.1759 90.646 87.3972 91.2535 87.84 91.7066C88.2699 92.1365 88.8079 92.3604 89.4721 92.3604C89.9148 92.3604 90.3113 92.2909 90.6716 92.1622C90.8004 92.103 90.9162 92.0464 91.0217 91.9872C91.1041 91.9408 91.1736 91.8945 91.2071 91.8584V91.1351H89.7964V89.4696H93.0605V92.9216H93.0579Z" fill="white"/>
<path d="M98.0344 92.2214L97.4526 94.0517H95.4473L98.2686 85.894H100.367L103.188 94.0517H101.183L100.601 92.2214H98.0344ZM99.3163 88.0023L98.5466 90.5894H100.086L99.3163 88.0023Z" fill="white"/>
<path d="M111.062 92.9216C110.537 93.3283 110.037 93.6321 109.582 93.8071C108.928 94.0748 108.184 94.2036 107.332 94.2036C106.143 94.2036 105.151 93.82 104.361 93.0606C103.535 92.2575 103.115 91.22 103.115 89.9484C103.115 88.7591 103.512 87.768 104.292 86.9649C105.095 86.1488 106.132 85.7421 107.381 85.7421C108.23 85.7421 108.966 85.9171 109.607 86.2544C109.852 86.3831 110.073 86.5453 110.272 86.7203C110.434 86.8593 110.575 87.0112 110.701 87.1631L109.443 88.4682C109.383 88.3987 109.314 88.3163 109.208 88.2339C109.08 88.1284 108.951 88.0254 108.802 87.9302C108.395 87.6959 107.952 87.5801 107.473 87.5801C106.763 87.5801 106.204 87.8015 105.785 88.2571C105.378 88.687 105.18 89.2353 105.18 89.9123C105.18 90.646 105.401 91.2535 105.844 91.7066C106.274 92.1365 106.812 92.3604 107.476 92.3604C107.919 92.3604 108.315 92.2909 108.676 92.1622C108.804 92.103 108.92 92.0464 109.026 91.9872C109.108 91.9408 109.178 91.8945 109.211 91.8584V91.1351H107.8V89.4696H111.064V92.9216H111.062Z" fill="white"/>
<path d="M112.051 94.0517V85.894H116.399V87.6779H114.046V89.0422H116.051V90.8133H114.046V92.2703H116.494V94.0543H112.051V94.0517Z" fill="white"/>
<path d="M119.404 89.0525V94.0517H117.445V85.894H119.474L122.457 90.9523V85.894H124.416V94.0517H122.434L119.404 89.0525Z" fill="white"/>
<path d="M125.193 89.9612C125.193 88.7617 125.59 87.7577 126.393 86.9546C127.209 86.1514 128.246 85.7421 129.505 85.7421C130.414 85.7421 131.207 85.9764 131.884 86.4294L131.325 88.1773C130.754 87.7938 130.172 87.6058 129.577 87.6058C128.867 87.6058 128.295 87.8401 127.863 88.306C127.466 88.7359 127.268 89.2971 127.268 89.9612C127.268 90.6254 127.466 91.184 127.863 91.6268C128.293 92.1056 128.864 92.3373 129.577 92.3373C130.195 92.3373 130.79 92.1519 131.361 91.7658L131.92 93.5137C131.243 93.9693 130.44 94.201 129.508 94.201C128.213 94.201 127.165 93.7943 126.362 92.9782C125.579 92.1879 125.193 91.184 125.193 89.9612Z" fill="white"/>
<path d="M134.551 94.0517V90.368L132.057 85.894H134.294L135.54 88.5634L136.822 85.894H139.025L136.531 90.368V94.0517H134.551Z" fill="white"/>
<g opacity="0.3">
<path d="M84.9216 49.5923L85.905 52.4626L88.8962 52.4832C89.236 52.4858 89.3802 52.9157 89.1125 53.1242L86.721 54.9776L87.5885 57.8041C87.6863 58.1259 87.3259 58.3936 87.0454 58.2057L84.5818 56.5324L82.1183 58.2057C81.8403 58.3962 81.4773 58.1285 81.5751 57.8041L82.4427 54.9776L80.0512 53.1242C79.7835 52.9157 79.9276 52.4858 80.2674 52.4832L83.2587 52.4626L84.242 49.5923C84.3553 49.2706 84.8109 49.2706 84.9216 49.5923Z" fill="#1F1E21"/>
<path d="M94.1824 52.1717L94.8723 54.1873L96.9754 54.2028C97.2148 54.2054 97.3152 54.5065 97.1273 54.6533L95.4463 55.9558L96.0564 57.9431C96.1259 58.1697 95.8711 58.3576 95.6755 58.2237L93.9456 57.0473L92.2157 58.2237C92.0201 58.3576 91.7652 58.1697 91.8347 57.9431L92.4448 55.9558L90.7638 54.6533C90.5759 54.5065 90.6763 54.2054 90.9157 54.2028L93.0189 54.1873L93.7087 52.1717C93.7834 51.9452 94.1052 51.9452 94.1824 52.1717Z" fill="#1F1E21"/>
<path d="M75.4637 52.1717L76.1535 54.1873L78.2567 54.2028C78.4961 54.2054 78.5965 54.5065 78.4086 54.6533L76.7276 55.9558L77.3377 57.9431C77.4072 58.1697 77.1523 58.3576 76.9567 58.2237L75.2268 57.0473L73.497 58.2237C73.3013 58.3576 73.0465 58.1697 73.116 57.9431L73.7261 55.9558L72.0451 54.6533C71.8572 54.5065 71.9576 54.2054 72.197 54.2028L74.3001 54.1873L74.99 52.1717C75.0646 51.9452 75.3864 51.9452 75.4637 52.1717Z" fill="#1F1E21"/>
</g>
<path d="M84.9216 49.0029L85.905 51.8732L88.8962 51.8937C89.236 51.8963 89.3802 52.3262 89.1125 52.5347L86.721 54.3882L87.5885 57.2147C87.6863 57.5364 87.3259 57.8042 87.0454 57.6162L84.5818 55.943L82.1183 57.6162C81.8403 57.8067 81.4773 57.539 81.5751 57.2147L82.4427 54.3882L80.0512 52.5347C79.7835 52.3262 79.9276 51.8963 80.2674 51.8937L83.2587 51.8732L84.242 49.0029C84.3553 48.6811 84.8109 48.6811 84.9216 49.0029Z" fill="white"/>
<path d="M94.1824 51.5823L94.8723 53.5979L96.9754 53.6133C97.2148 53.6159 97.3152 53.9171 97.1273 54.0638L95.4463 55.3664L96.0564 57.3537C96.1259 57.5802 95.8711 57.7681 95.6755 57.6342L93.9456 56.4578L92.2157 57.6342C92.0201 57.7681 91.7652 57.5802 91.8347 57.3537L92.4448 55.3664L90.7638 54.0638C90.5759 53.9171 90.6763 53.6159 90.9157 53.6133L93.0189 53.5979L93.7087 51.5823C93.7834 51.3557 94.1052 51.3557 94.1824 51.5823Z" fill="white"/>
<path d="M75.4637 51.5823L76.1535 53.5979L78.2567 53.6133C78.4961 53.6159 78.5965 53.9171 78.4086 54.0638L76.7276 55.3664L77.3377 57.3537C77.4072 57.5802 77.1523 57.7681 76.9567 57.6342L75.2268 56.4578L73.497 57.6342C73.3013 57.7681 73.0465 57.5802 73.116 57.3537L73.7261 55.3664L72.0451 54.0638C71.8572 53.9171 71.9576 53.6159 72.197 53.6133L74.3001 53.5979L74.99 51.5823C75.0646 51.3557 75.3864 51.3557 75.4637 51.5823Z" fill="white"/>
<path d="M98.7641 116.018C97.8632 116.018 96.9622 116.005 96.0612 116.023C95.4769 116.036 95.2066 115.788 95.2117 115.196C95.222 113.539 95.2272 111.883 95.2091 110.226C95.2014 109.585 95.4897 109.348 96.1101 109.353C97.8837 109.368 99.6548 109.371 101.428 109.353C102.082 109.345 102.394 109.6 102.386 110.274C102.371 111.873 102.365 113.472 102.389 115.07C102.399 115.796 102.072 116.051 101.38 116.025C100.509 115.992 99.6368 116.018 98.7641 116.018ZM99.3124 114.105C99.2841 114.035 99.2532 113.966 99.2249 113.896C99.5621 113.582 99.9406 113.302 100.229 112.946C100.744 112.318 100.715 111.605 100.373 110.905C100.062 110.272 99.4978 109.963 98.8208 109.968C98.1154 109.973 97.5079 110.269 97.199 110.941C97.0549 111.253 96.7511 111.749 97.1578 111.935C97.5002 112.089 98.136 112.329 98.3729 111.595C98.4681 111.299 98.7332 111.204 99.0061 111.338C99.333 111.497 99.3253 111.814 99.2069 112.092C99.1322 112.267 98.9598 112.406 98.8156 112.547C98.2982 113.055 97.7911 113.572 97.2505 114.053C96.8772 114.388 96.9364 114.808 97.0317 115.178C97.1218 115.534 97.5208 115.397 97.7911 115.402C98.5144 115.418 99.2404 115.387 99.9637 115.415C100.453 115.433 100.625 115.25 100.62 114.759C100.615 114.282 100.484 114.046 99.974 114.102C99.7578 114.125 99.5338 114.105 99.3124 114.105Z" fill="#FD5A05"/>
<path d="M99.3122 114.105C99.5336 114.105 99.7601 114.125 99.9789 114.1C100.489 114.041 100.62 114.28 100.625 114.756C100.63 115.25 100.46 115.431 99.9686 115.413C99.2453 115.387 98.5193 115.415 97.796 115.4C97.5257 115.395 97.1293 115.531 97.0366 115.176C96.9413 114.808 96.8821 114.385 97.2554 114.051C97.796 113.569 98.3031 113.052 98.8205 112.545C98.9647 112.403 99.1372 112.264 99.2118 112.089C99.3302 111.811 99.3379 111.495 99.011 111.335C98.7381 111.201 98.473 111.296 98.3778 111.592C98.1409 112.326 97.5025 112.087 97.1627 111.932C96.756 111.747 97.0598 111.253 97.2039 110.939C97.5128 110.267 98.1203 109.971 98.8257 109.966C99.5027 109.96 100.066 110.269 100.378 110.903C100.72 111.603 100.749 112.316 100.234 112.944C99.9455 113.297 99.567 113.58 99.2298 113.894C99.253 113.966 99.2813 114.035 99.3122 114.105Z" fill="#FEF8F6"/>
<path d="M67.6254 114.257C67.7799 114.455 67.8571 114.681 67.8571 114.934C67.8571 115.299 67.7284 115.59 67.4736 115.804C67.2187 116.017 66.8609 116.126 66.4027 116.126H64.3613V111.742H66.3332C66.7785 111.742 67.126 111.845 67.3783 112.048C67.6306 112.251 67.7567 112.529 67.7567 112.88C67.7567 113.137 67.6898 113.353 67.5534 113.523C67.4169 113.693 67.2393 113.811 67.0128 113.878C67.265 113.935 67.471 114.059 67.6254 114.257ZM65.4271 113.518H66.1272C66.3023 113.518 66.4361 113.479 66.5288 113.402C66.6215 113.325 66.6704 113.212 66.6704 113.062C66.6704 112.913 66.6241 112.797 66.5288 112.72C66.4361 112.64 66.2997 112.602 66.1272 112.602H65.4271V113.518ZM66.6292 115.145C66.727 115.062 66.7759 114.947 66.7759 114.792C66.7759 114.638 66.7245 114.517 66.6241 114.429C66.5211 114.342 66.3821 114.298 66.2019 114.298H65.4271V115.266H66.2148C66.3924 115.266 66.5314 115.225 66.6292 115.145Z" fill="white"/>
<path d="M71.9134 112.643V116.126H70.8451V115.652C70.737 115.806 70.5903 115.93 70.4049 116.023C70.2196 116.115 70.0136 116.164 69.7897 116.164C69.5245 116.164 69.2877 116.105 69.0843 115.987C68.881 115.868 68.7214 115.696 68.6107 115.472C68.4974 115.248 68.4434 114.983 68.4434 114.679V112.643H69.5039V114.535C69.5039 114.769 69.5631 114.949 69.6841 115.078C69.8051 115.207 69.9673 115.271 70.1707 115.271C70.3792 115.271 70.5439 115.207 70.6649 115.078C70.7859 114.949 70.8451 114.766 70.8451 114.535V112.643H71.9134Z" fill="white"/>
<path d="M73.287 116.02C73.0502 115.917 72.8623 115.773 72.7258 115.593C72.5894 115.413 72.5122 115.209 72.4941 114.983H73.5496C73.5624 115.104 73.6191 115.201 73.7169 115.276C73.8147 115.351 73.9383 115.389 74.085 115.389C74.2189 115.389 74.3218 115.364 74.3939 115.312C74.466 115.261 74.502 115.194 74.502 115.109C74.502 115.008 74.4505 114.936 74.345 114.887C74.242 114.839 74.0721 114.787 73.8405 114.728C73.5908 114.669 73.3822 114.609 73.2149 114.542C73.0476 114.478 72.906 114.375 72.785 114.236C72.664 114.097 72.6048 113.909 72.6048 113.67C72.6048 113.469 72.6589 113.289 72.7696 113.124C72.8803 112.959 73.0424 112.831 73.2561 112.733C73.4698 112.638 73.7246 112.589 74.0207 112.589C74.4583 112.589 74.8032 112.697 75.0529 112.913C75.3052 113.129 75.4493 113.418 75.488 113.775H74.502C74.4866 113.654 74.4325 113.559 74.3424 113.487C74.2523 113.418 74.1365 113.382 73.9898 113.382C73.8636 113.382 73.7684 113.405 73.7015 113.454C73.6345 113.502 73.6011 113.567 73.6011 113.649C73.6011 113.75 73.6551 113.824 73.7607 113.873C73.8662 113.922 74.0335 113.974 74.2575 114.022C74.5149 114.089 74.726 114.154 74.8882 114.218C75.0503 114.282 75.1919 114.388 75.3155 114.53C75.439 114.674 75.5008 114.867 75.506 115.106C75.506 115.31 75.4493 115.492 75.3335 115.652C75.2177 115.812 75.0555 115.938 74.8393 116.03C74.6256 116.123 74.3759 116.167 74.0927 116.167C73.7967 116.177 73.5238 116.126 73.287 116.02Z" fill="white"/>
<path d="M76.246 112.115C76.1276 112.004 76.0684 111.868 76.0684 111.706C76.0684 111.538 76.1276 111.402 76.246 111.291C76.3644 111.181 76.5163 111.126 76.7042 111.126C76.887 111.126 77.0388 111.181 77.1572 111.291C77.2757 111.402 77.3349 111.541 77.3349 111.706C77.3349 111.868 77.2757 112.004 77.1572 112.115C77.0388 112.226 76.887 112.28 76.7042 112.28C76.5163 112.282 76.3644 112.226 76.246 112.115ZM77.2345 112.643V116.126H76.1662V112.643H77.2345Z" fill="white"/>
<path d="M81.1085 113.003C81.3531 113.268 81.474 113.631 81.474 114.092V116.128H80.4135V114.236C80.4135 114.002 80.3543 113.822 80.2333 113.693C80.1123 113.564 79.9501 113.5 79.7467 113.5C79.5434 113.5 79.3812 113.564 79.2602 113.693C79.1392 113.822 79.08 114.004 79.08 114.236V116.128H78.0117V112.645H79.08V113.106C79.1881 112.952 79.3349 112.831 79.5176 112.741C79.7004 112.65 79.9063 112.607 80.1354 112.607C80.5396 112.607 80.8665 112.738 81.1085 113.003Z" fill="white"/>
<path d="M85.4811 114.64H83.0639C83.0793 114.857 83.1488 115.021 83.2724 115.137C83.3959 115.253 83.5452 115.31 83.7254 115.31C83.9932 115.31 84.1759 115.196 84.2815 114.972H85.4167C85.3575 115.201 85.2545 115.407 85.1027 115.59C84.9508 115.773 84.7603 115.917 84.5312 116.02C84.3021 116.123 84.0472 116.177 83.7641 116.177C83.4217 116.177 83.1179 116.105 82.8528 115.958C82.5851 115.812 82.3791 115.606 82.2298 115.335C82.0805 115.065 82.0059 114.748 82.0059 114.385C82.0059 114.022 82.0805 113.706 82.2272 113.436C82.374 113.165 82.5825 112.957 82.8476 112.81C83.1154 112.663 83.4191 112.591 83.7666 112.591C84.1039 112.591 84.4025 112.663 84.665 112.802C84.9276 112.944 85.131 113.145 85.2803 113.407C85.427 113.67 85.5017 113.976 85.5017 114.326C85.5017 114.429 85.4939 114.532 85.4811 114.64ZM84.4076 114.048C84.4076 113.865 84.3458 113.719 84.2197 113.611C84.0936 113.502 83.9391 113.448 83.7512 113.448C83.571 113.448 83.4217 113.5 83.2981 113.605C83.1746 113.708 83.0999 113.858 83.069 114.048H84.4076Z" fill="white"/>
<path d="M86.6679 116.02C86.431 115.917 86.2431 115.773 86.1067 115.593C85.9702 115.413 85.893 115.209 85.875 114.983H86.9304C86.9433 115.104 86.9999 115.201 87.1003 115.276C87.2007 115.351 87.3217 115.389 87.4684 115.389C87.6023 115.389 87.7053 115.364 87.7773 115.312C87.8494 115.261 87.8855 115.194 87.8855 115.109C87.8855 115.008 87.834 114.936 87.7284 114.887C87.6255 114.839 87.4556 114.787 87.2239 114.728C86.9742 114.669 86.7657 114.609 86.6009 114.542C86.4336 114.478 86.2894 114.375 86.171 114.236C86.05 114.097 85.9908 113.909 85.9908 113.67C85.9908 113.469 86.0449 113.289 86.1556 113.124C86.2663 112.959 86.4285 112.831 86.6421 112.733C86.8558 112.635 87.1106 112.589 87.4067 112.589C87.8443 112.589 88.1892 112.697 88.4389 112.913C88.6912 113.129 88.8354 113.418 88.874 113.775H87.888C87.8726 113.654 87.8185 113.559 87.7284 113.487C87.6383 113.418 87.5225 113.382 87.3758 113.382C87.2522 113.382 87.1544 113.405 87.0875 113.454C87.0205 113.502 86.9871 113.567 86.9871 113.649C86.9871 113.75 87.0411 113.824 87.1467 113.873C87.2522 113.922 87.417 113.974 87.6435 114.022C87.9009 114.089 88.112 114.154 88.2742 114.218C88.4363 114.282 88.5779 114.388 88.7015 114.53C88.8251 114.674 88.8868 114.867 88.892 115.106C88.892 115.31 88.8353 115.492 88.7195 115.652C88.6037 115.812 88.4415 115.938 88.2253 116.03C88.0116 116.123 87.7619 116.167 87.4787 116.167C87.175 116.177 86.9047 116.126 86.6679 116.02Z" fill="white"/>
<path d="M90.1503 116.02C89.9134 115.917 89.7255 115.773 89.5891 115.593C89.4527 115.413 89.3754 115.209 89.3574 114.983H90.4128C90.4257 115.104 90.4824 115.201 90.5827 115.276C90.6831 115.351 90.8041 115.389 90.9509 115.389C91.0847 115.389 91.1877 115.364 91.2598 115.312C91.3318 115.261 91.3679 115.194 91.3679 115.109C91.3679 115.008 91.3164 114.936 91.2109 114.887C91.1079 114.839 90.938 114.787 90.7063 114.728C90.4566 114.669 90.2481 114.609 90.0833 114.542C89.916 114.478 89.7719 114.375 89.6535 114.236C89.5325 114.097 89.4733 113.909 89.4733 113.67C89.4733 113.469 89.5273 113.289 89.638 113.124C89.7487 112.959 89.9109 112.831 90.1245 112.733C90.3382 112.635 90.593 112.589 90.8891 112.589C91.3267 112.589 91.6716 112.697 91.9213 112.913C92.1736 113.129 92.3178 113.418 92.3564 113.775H91.3705C91.355 113.654 91.301 113.559 91.2109 113.487C91.1208 113.418 91.0049 113.382 90.8582 113.382C90.7346 113.382 90.6368 113.405 90.5699 113.454C90.5029 113.502 90.4695 113.567 90.4695 113.649C90.4695 113.75 90.5235 113.824 90.6291 113.873C90.7346 113.922 90.8994 113.974 91.1259 114.022C91.3833 114.089 91.5944 114.154 91.7566 114.218C91.9188 114.282 92.0603 114.388 92.1839 114.53C92.3075 114.674 92.3693 114.867 92.3744 115.106C92.3744 115.31 92.3178 115.492 92.2019 115.652C92.0861 115.812 91.9239 115.938 91.7077 116.03C91.494 116.123 91.2443 116.167 90.9612 116.167C90.66 116.177 90.3897 116.126 90.1503 116.02Z" fill="white"/>
<path d="M71.7804 118.296C71.94 118.023 72.1563 117.812 72.4291 117.66C72.702 117.508 73.0032 117.431 73.3275 117.431C73.7008 117.431 74.0303 117.523 74.3212 117.706C74.6121 117.889 74.8231 118.149 74.9519 118.484H74.262C74.1719 118.298 74.0457 118.162 73.8836 118.072C73.7214 117.982 73.536 117.935 73.3249 117.935C73.0933 117.935 72.8873 117.987 72.7046 118.092C72.5244 118.195 72.3828 118.345 72.2798 118.54C72.1768 118.736 72.1254 118.962 72.1254 119.22C72.1254 119.477 72.1768 119.704 72.2798 119.899C72.3828 120.095 72.5244 120.244 72.7046 120.35C72.8848 120.455 73.0933 120.51 73.3249 120.51C73.536 120.51 73.7214 120.463 73.8836 120.373C74.0457 120.283 74.1693 120.144 74.262 119.961H74.9519C74.8206 120.296 74.6095 120.556 74.3212 120.736C74.0329 120.916 73.6982 121.009 73.3275 121.009C72.998 121.009 72.6994 120.932 72.4265 120.78C72.1537 120.628 71.94 120.414 71.7804 120.144C71.6208 119.874 71.541 119.565 71.541 119.222C71.541 118.88 71.6208 118.569 71.7804 118.296Z" fill="white"/>
<path d="M76.1171 120.839C75.906 120.721 75.7387 120.553 75.6177 120.334C75.4967 120.118 75.4375 119.866 75.4375 119.583C75.4375 119.3 75.4993 119.05 75.6228 118.834C75.7464 118.615 75.9163 118.448 76.1325 118.329C76.3462 118.211 76.5882 118.154 76.8533 118.154C77.1185 118.154 77.3579 118.213 77.5741 118.329C77.7903 118.445 77.9577 118.615 78.0838 118.834C78.2074 119.053 78.2691 119.302 78.2691 119.583C78.2691 119.863 78.2048 120.116 78.0786 120.332C77.9499 120.551 77.7775 120.718 77.5587 120.836C77.3398 120.955 77.0953 121.014 76.8302 121.014C76.565 121.019 76.3308 120.96 76.1171 120.839ZM77.242 120.414C77.3707 120.345 77.4763 120.239 77.5561 120.098C77.6359 119.956 77.6771 119.786 77.6771 119.585C77.6771 119.385 77.6385 119.215 77.5612 119.073C77.484 118.934 77.381 118.829 77.2549 118.759C77.1288 118.69 76.9898 118.653 76.843 118.653C76.6963 118.653 76.5599 118.69 76.4337 118.759C76.3076 118.829 76.2072 118.934 76.1351 119.073C76.0605 119.212 76.0244 119.382 76.0244 119.585C76.0244 119.884 76.1016 120.116 76.2535 120.278C76.4054 120.44 76.5985 120.522 76.8302 120.522C76.9769 120.52 77.1133 120.486 77.242 120.414Z" fill="white"/>
<path d="M82.7784 118.291C82.9509 118.381 83.0873 118.514 83.1851 118.692C83.2829 118.87 83.3344 119.083 83.3344 119.336V120.97H82.7655V119.421C82.7655 119.173 82.7037 118.983 82.5802 118.849C82.4566 118.718 82.2867 118.651 82.0731 118.651C81.8594 118.651 81.6869 118.718 81.5634 118.849C81.4372 118.983 81.3755 119.171 81.3755 119.421V120.97H80.8065V119.421C80.8065 119.173 80.7448 118.983 80.6212 118.849C80.4976 118.718 80.3277 118.651 80.1115 118.651C79.8978 118.651 79.7254 118.718 79.6018 118.849C79.4757 118.983 79.4139 119.171 79.4139 119.421V120.97H78.8398V118.198H79.4139V118.515C79.5066 118.401 79.6276 118.311 79.7717 118.247C79.9159 118.182 80.0703 118.152 80.2351 118.152C80.4564 118.152 80.6547 118.198 80.8297 118.293C81.0048 118.388 81.1386 118.522 81.2313 118.7C81.3162 118.533 81.445 118.399 81.6252 118.301C81.8053 118.203 81.9933 118.152 82.1992 118.152C82.4103 118.154 82.6059 118.2 82.7784 118.291Z" fill="white"/>
<path d="M88.0075 118.291C88.18 118.381 88.3164 118.514 88.4143 118.692C88.5121 118.87 88.5636 119.083 88.5636 119.336V120.97H87.9947V119.421C87.9947 119.173 87.9329 118.983 87.8093 118.849C87.6858 118.718 87.5159 118.651 87.3022 118.651C87.0885 118.651 86.9161 118.718 86.7899 118.849C86.6638 118.983 86.602 119.171 86.602 119.421V120.97H86.0331V119.421C86.0331 119.173 85.9713 118.983 85.8478 118.849C85.7242 118.718 85.5543 118.651 85.3406 118.651C85.127 118.651 84.9545 118.718 84.8284 118.849C84.7022 118.983 84.6405 119.171 84.6405 119.421V120.97H84.0664V118.198H84.6405V118.515C84.7357 118.401 84.8541 118.311 84.9983 118.247C85.1424 118.182 85.2969 118.152 85.4616 118.152C85.683 118.152 85.8812 118.198 86.0563 118.293C86.2313 118.388 86.3652 118.522 86.4579 118.7C86.5428 118.533 86.6715 118.399 86.8491 118.301C87.0268 118.203 87.2173 118.152 87.4232 118.152C87.6394 118.154 87.8351 118.2 88.0075 118.291Z" fill="white"/>
<path d="M91.8058 118.2V120.973H91.2317V120.646C91.1416 120.759 91.0232 120.849 90.8765 120.916C90.7297 120.981 90.5753 121.014 90.4105 121.014C90.1917 121.014 89.9961 120.968 89.8236 120.878C89.6511 120.788 89.5147 120.654 89.4169 120.476C89.3191 120.298 89.2676 120.082 89.2676 119.833V118.2H89.8365V119.745C89.8365 119.992 89.8983 120.185 90.0218 120.316C90.1454 120.448 90.3153 120.515 90.529 120.515C90.7426 120.515 90.9151 120.448 91.0412 120.316C91.1674 120.185 91.2291 119.995 91.2291 119.745V118.2H91.8058Z" fill="white"/>
<path d="M94.5472 118.291C94.7197 118.381 94.8561 118.514 94.9514 118.692C95.0492 118.87 95.0981 119.083 95.0981 119.336V120.97H94.5292V119.421C94.5292 119.173 94.4674 118.983 94.3439 118.849C94.2203 118.718 94.0504 118.651 93.8367 118.651C93.6231 118.651 93.4506 118.718 93.3245 118.849C93.1983 118.983 93.1365 119.171 93.1365 119.421V120.97H92.5625V118.198H93.1365V118.515C93.2318 118.401 93.3502 118.311 93.4969 118.247C93.6437 118.182 93.7981 118.152 93.9629 118.152C94.1791 118.154 94.3747 118.2 94.5472 118.291Z" fill="white"/>
<path d="M95.8575 117.727C95.788 117.657 95.752 117.57 95.752 117.464C95.752 117.359 95.788 117.274 95.8575 117.202C95.927 117.132 96.0145 117.096 96.1201 117.096C96.2205 117.096 96.3054 117.132 96.3775 117.202C96.447 117.271 96.483 117.359 96.483 117.464C96.483 117.57 96.447 117.655 96.3775 117.727C96.308 117.796 96.2205 117.832 96.1201 117.832C96.0171 117.832 95.9296 117.796 95.8575 117.727ZM96.4007 118.2V120.973H95.8266V118.2H96.4007Z" fill="white"/>
<path d="M97.828 118.669V120.203C97.828 120.306 97.8512 120.381 97.9001 120.427C97.949 120.473 98.0314 120.494 98.1498 120.494H98.5024V120.973H98.0494C97.792 120.973 97.5937 120.914 97.4547 120.793C97.3183 120.672 97.2488 120.476 97.2488 120.203V118.669H96.9219V118.2H97.2488V117.511H97.828V118.2H98.5024V118.669H97.828Z" fill="white"/>
<path d="M101.525 118.2L99.8235 122.278H99.2289L99.7926 120.929L98.7012 118.2H99.3396L100.12 120.314L100.93 118.2H101.525Z" fill="white"/>
<g opacity="0.3">
<path d="M85.1563 147.567L86.8038 142.761L91.8132 142.725C92.3821 142.72 92.6241 142.002 92.1762 141.654L88.1707 138.552L89.6226 133.818C89.7873 133.278 89.1824 132.83 88.7139 133.146L84.59 135.95L80.4635 133.146C79.995 132.83 79.3875 133.278 79.5548 133.818L81.0067 138.552L77.0012 141.654C76.5507 142.002 76.7952 142.723 77.3641 142.725L82.3736 142.761L84.0211 147.567C84.209 148.108 84.971 148.108 85.1563 147.567Z" fill="#1581BB"/>
<path d="M100.662 143.25L101.82 139.873L105.342 139.847C105.741 139.844 105.913 139.337 105.597 139.093L102.783 136.912L103.805 133.584C103.921 133.203 103.496 132.889 103.167 133.113L100.268 135.082L97.3695 133.113C97.04 132.889 96.6153 133.206 96.7311 133.584L97.7531 136.912L94.9394 139.093C94.6228 139.337 94.7953 139.844 95.1943 139.847L98.7158 139.873L99.8742 143.25C99.9952 143.629 100.531 143.629 100.662 143.25Z" fill="#1581BB"/>
<path d="M69.3162 143.25L70.4746 139.873L73.9962 139.847C74.3952 139.844 74.5676 139.337 74.251 139.093L71.4374 136.912L72.4594 133.584C72.5752 133.203 72.1504 132.889 71.8209 133.113L68.9224 135.082L66.0238 133.113C65.6943 132.889 65.2696 133.206 65.3854 133.584L66.4074 136.912L63.5937 139.093C63.2771 139.337 63.4496 139.844 63.8486 139.847L67.3701 139.873L68.5285 143.25C68.6521 143.629 69.1875 143.629 69.3162 143.25Z" fill="#1581BB"/>
</g>
<path d="M85.1563 146.368L86.8038 141.562L91.8132 141.526C92.3821 141.52 92.6241 140.802 92.1762 140.455L88.1707 137.353L89.6226 132.619C89.7873 132.078 89.1824 131.63 88.7139 131.947L84.59 134.75L80.4635 131.947C79.995 131.63 79.3875 132.078 79.5548 132.619L81.0067 137.353L77.0012 140.455C76.5507 140.802 76.7952 141.523 77.3641 141.526L82.3736 141.562L84.0211 146.368C84.209 146.908 84.971 146.908 85.1563 146.368Z" fill="#1581BB"/>
<path d="M100.662 142.051L101.82 138.673L105.342 138.648C105.741 138.645 105.913 138.138 105.597 137.893L102.783 135.713L103.805 132.384C103.921 132.004 103.496 131.689 103.167 131.913L100.268 133.883L97.3695 131.913C97.04 131.689 96.6153 132.006 96.7311 132.384L97.7531 135.713L94.9394 137.893C94.6228 138.138 94.7953 138.645 95.1943 138.648L98.7158 138.673L99.8742 142.051C99.9952 142.429 100.531 142.429 100.662 142.051Z" fill="#1581BB"/>
<path d="M69.3162 142.051L70.4746 138.673L73.9962 138.648C74.3952 138.645 74.5676 138.138 74.251 137.893L71.4374 135.713L72.4594 132.384C72.5752 132.004 72.1504 131.689 71.8209 131.913L68.9224 133.883L66.0238 131.913C65.6943 131.689 65.2696 132.006 65.3854 132.384L66.4074 135.713L63.5937 137.893C63.2771 138.138 63.4496 138.645 63.8486 138.648L67.3701 138.673L68.5285 142.051C68.6521 142.429 69.1875 142.429 69.3162 142.051Z" fill="#1581BB"/>
<defs>
<linearGradient id="paint0_linear_467_1491" x1="84.5834" y1="168.151" x2="84.5834" y2="0.483976" gradientUnits="userSpaceOnUse">
<stop stop-color="#3468A2"/>
<stop offset="1" stop-color="#83BAEE"/>
</linearGradient>
<linearGradient id="paint1_linear_467_1491" x1="32.609" y1="137.679" x2="138.529" y2="29.4734" gradientUnits="userSpaceOnUse">
<stop stop-color="#3468A2"/>
<stop offset="1" stop-color="#83BAEE"/>
</linearGradient>
<linearGradient id="paint2_linear_467_1491" x1="84.5805" y1="150.569" x2="84.5805" y2="18.8328" gradientUnits="userSpaceOnUse">
<stop stop-color="#CDE1E8"/>
<stop offset="1" stop-color="#CDE1E8" stop-opacity="0"/>
</linearGradient>
<linearGradient id="paint3_linear_467_1491" x1="84.5861" y1="169.421" x2="84.5861" y2="0.500851" gradientUnits="userSpaceOnUse">
<stop stop-color="#3468A2"/>
<stop offset="1" stop-color="#83BAEE"/>
</linearGradient>
<linearGradient id="paint4_linear_467_1491" x1="84.575" y1="31.8331" x2="84.575" y2="72.3087" gradientUnits="userSpaceOnUse">
<stop stop-color="#3468A2"/>
<stop offset="1" stop-color="#83BAEE"/>
</linearGradient>
<linearGradient id="paint5_linear_467_1491" x1="84.575" y1="137.334" x2="84.575" y2="96.8581" gradientUnits="userSpaceOnUse">
<stop stop-color="#3468A2"/>
<stop offset="1" stop-color="#83BAEE"/>
</linearGradient>
<linearGradient id="paint6_linear_467_1491" x1="84.5841" y1="168.405" x2="84.5841" y2="0.0816775" gradientUnits="userSpaceOnUse">
<stop stop-color="#3468A2"/>
<stop offset="1" stop-color="#83BAEE"/>
</linearGradient>
<linearGradient id="paint7_linear_467_1491" x1="21.5142" y1="86.8395" x2="21.5142" y2="81.9578" gradientUnits="userSpaceOnUse">
<stop stop-color="#83BAEE"/>
<stop offset="1" stop-color="#3468A2"/>
</linearGradient>
<linearGradient id="paint8_linear_467_1491" x1="147.654" y1="86.8395" x2="147.654" y2="81.9578" gradientUnits="userSpaceOnUse">
<stop stop-color="#83BAEE"/>
<stop offset="1" stop-color="#3468A2"/>
</linearGradient>
</defs>
</svg>
