<svg width="210" height="210" viewBox="0 0 210 210" fill="none" xmlns="http://www.w3.org/2000/svg">
<path d="M53.7653 109.024V152.361H3.27466C3.21465 152.046 3.18164 151.713 3.18164 151.371C3.18164 143.533 18.8566 130.703 18.8656 130.694C18.8566 130.685 1.78937 116.711 3.27466 109.024H53.7653Z" fill="url(#paint0_linear_461_1259)"/>
<path opacity="0.3" d="M53.7653 109.024V152.361H28.6205C28.5695 152.295 28.5275 152.229 28.4794 152.154C18.7486 137.529 19.9668 109.024 19.9668 109.024H53.7653Z" fill="#1F1E21"/>
<path d="M155.895 109.024V152.361H206.388C206.445 152.043 206.481 151.71 206.481 151.368C206.481 143.531 190.806 130.7 190.797 130.691C190.806 130.682 207.873 116.708 206.388 109.021H155.895V109.024Z" fill="url(#paint1_linear_461_1259)"/>
<path opacity="0.3" d="M155.895 109.024V152.361H181.039C181.09 152.295 181.132 152.229 181.18 152.154C190.911 137.53 189.693 109.024 189.693 109.024H155.895Z" fill="#1F1E21"/>
<path d="M104.831 189.796C68.3406 189.796 35.9794 166.581 24.3101 132.026C21.3606 123.292 19.8633 114.14 19.8633 104.829C19.8633 95.5183 21.3606 86.3665 24.3101 77.6319C35.9824 43.0772 68.3406 19.8618 104.831 19.8618C141.327 19.8618 173.682 43.0772 185.345 77.6319C188.295 86.3665 189.792 95.5153 189.792 104.829C189.792 114.143 188.295 123.292 185.345 132.026C173.682 166.581 141.327 189.796 104.831 189.796Z" fill="url(#paint2_linear_461_1259)"/>
<path d="M185.626 104.829C185.626 113.876 184.141 122.571 181.398 130.691C170.617 162.632 140.411 185.629 104.836 185.629C69.2609 185.629 39.0511 162.635 28.261 130.694C25.5185 122.574 24.0332 113.876 24.0332 104.832C24.0332 95.7883 25.5185 87.0897 28.261 78.9701C39.0511 47.026 69.2579 24.0296 104.833 24.0296C140.408 24.0296 170.617 47.026 181.395 78.9671C184.141 87.0867 185.626 95.7823 185.626 104.829Z" fill="white"/>
<path d="M184.042 104.829C184.042 113.885 182.524 122.589 179.725 130.691C169.004 161.741 139.529 184.035 104.836 184.035C70.1436 184.035 40.663 161.741 29.9479 130.691C27.1394 122.586 25.6211 113.882 25.6211 104.829C25.6211 95.7733 27.1394 87.0687 29.9479 78.9671C40.66 47.9172 70.1406 25.6139 104.833 25.6139C139.526 25.6139 169.007 47.9172 179.722 78.9671C182.524 87.0717 184.042 95.7763 184.042 104.829Z" fill="url(#paint3_linear_461_1259)"/>
<path d="M104.831 178.955C145.77 178.955 178.958 145.768 178.958 104.829C178.958 63.8903 145.77 30.7029 104.831 30.7029C63.8925 30.7029 30.7051 63.8903 30.7051 104.829C30.7051 145.768 63.8925 178.955 104.831 178.955Z" fill="url(#paint4_linear_461_1259)"/>
<path opacity="0.3" d="M157.244 157.244C186.192 128.296 186.192 81.3625 157.244 52.4146C128.296 23.4668 81.3625 23.4668 52.4146 52.4146C23.4668 81.3625 23.4668 128.296 52.4146 157.244C81.3625 186.192 128.296 186.192 157.244 157.244Z" fill="#1F1E21"/>
<path d="M104.829 175.25C143.721 175.25 175.249 143.721 175.249 104.829C175.249 65.9369 143.721 34.4086 104.829 34.4086C65.9365 34.4086 34.4082 65.9369 34.4082 104.829C34.4082 143.721 65.9365 175.25 104.829 175.25Z" fill="url(#paint5_linear_461_1259)"/>
<path opacity="0.5" d="M104.831 171.73C141.779 171.73 171.731 141.777 171.731 104.829C171.731 67.8808 141.779 37.9283 104.831 37.9283C67.8822 37.9283 37.9297 67.8808 37.9297 104.829C37.9297 141.777 67.8822 171.73 104.831 171.73Z" fill="url(#paint6_linear_461_1259)"/>
<path d="M185.626 104.829C185.626 113.876 184.141 122.571 181.398 130.691H28.261C25.5185 122.571 24.0332 113.873 24.0332 104.829C24.0332 95.7853 25.5185 87.0867 28.261 78.9671H181.398C184.141 87.0867 185.626 95.7823 185.626 104.829Z" fill="white"/>
<path d="M184.042 104.829C184.042 113.885 182.523 122.589 179.724 130.691H29.944C27.1355 122.586 25.6172 113.882 25.6172 104.829C25.6172 95.7733 27.1355 87.0687 29.944 78.9671H179.721C182.523 87.0717 184.042 95.7763 184.042 104.829Z" fill="url(#paint7_linear_461_1259)"/>
<g opacity="0.3">
<path d="M105.301 168.987L106.661 165.021L110.798 164.991C111.266 164.988 111.467 164.393 111.098 164.105L107.792 161.543L108.992 157.633C109.13 157.186 108.629 156.817 108.242 157.078L104.836 159.392L101.431 157.078C101.043 156.817 100.542 157.186 100.68 157.633L101.881 161.543L98.574 164.105C98.2019 164.393 98.403 164.988 98.8741 164.991L103.012 165.021L104.371 168.987C104.518 169.431 105.148 169.431 105.301 168.987Z" fill="#1F1E21"/>
<path d="M118.101 165.42L119.058 162.632L121.966 162.611C122.296 162.608 122.437 162.191 122.176 161.99L119.853 160.19L120.696 157.441C120.792 157.126 120.441 156.868 120.168 157.051L117.774 158.677L115.379 157.051C115.109 156.868 114.755 157.126 114.851 157.441L115.694 160.19L113.372 161.99C113.111 162.191 113.252 162.611 113.582 162.611L116.489 162.632L117.447 165.42C117.552 165.735 117.996 165.735 118.101 165.42Z" fill="#1F1E21"/>
<path d="M92.2219 165.42L93.1791 162.632L96.0866 162.611C96.4167 162.608 96.5577 162.191 96.2967 161.99L93.9742 160.19L94.8174 157.441C94.9134 157.126 94.5623 156.868 94.2893 157.051L91.8948 158.677L89.5004 157.051C89.2303 156.868 88.8762 157.126 88.9722 157.441L89.8154 160.19L87.493 161.99C87.2319 162.191 87.3729 162.611 87.703 162.611L90.6106 162.632L91.5677 165.42C91.6728 165.735 92.1139 165.735 92.2219 165.42Z" fill="#1F1E21"/>
</g>
<path d="M105.298 167.994L106.658 164.027L110.795 163.997C111.264 163.994 111.465 163.4 111.096 163.112L107.789 160.55L108.989 156.64C109.127 156.193 108.626 155.824 108.239 156.085L104.833 158.398L101.425 156.088C101.038 155.827 100.537 156.196 100.675 156.643L101.875 160.553L98.5682 163.115C98.1961 163.403 98.3971 163.997 98.8682 164L103.006 164.03L104.365 167.997C104.515 168.441 105.145 168.441 105.298 167.994Z" fill="white"/>
<path d="M118.101 164.429L119.058 161.642L121.966 161.621C122.296 161.618 122.437 161.201 122.176 161L119.853 159.199L120.696 156.451C120.792 156.136 120.441 155.878 120.168 156.061L117.774 157.687L115.379 156.061C115.109 155.878 114.755 156.136 114.851 156.451L115.694 159.199L113.372 161C113.111 161.201 113.252 161.621 113.582 161.621L116.489 161.642L117.447 164.429C117.552 164.745 117.996 164.745 118.101 164.429Z" fill="white"/>
<path d="M92.2219 164.43L93.1791 161.642L96.0866 161.621C96.4167 161.618 96.5577 161.201 96.2967 161L93.9742 159.2L94.8174 156.451C94.9134 156.136 94.5623 155.878 94.2893 156.061L91.8948 157.687L89.5004 156.061C89.2303 155.878 88.8762 156.136 88.9722 156.451L89.8154 159.2L87.493 161C87.2319 161.201 87.3729 161.621 87.703 161.621L90.6106 161.642L91.5677 164.43C91.6728 164.745 92.1139 164.745 92.2219 164.43Z" fill="white"/>
<path d="M62.6196 66.3467C62.6196 67.6999 61.5244 68.7951 60.1711 68.7951C58.8179 68.7951 57.7227 67.6999 57.7227 66.3467C57.7227 64.9934 58.8179 63.8982 60.1711 63.8982C61.5244 63.8982 62.6196 64.9934 62.6196 66.3467Z" fill="white"/>
<path d="M151.938 66.3467C151.938 67.6999 150.843 68.7951 149.489 68.7951C148.136 68.7951 147.041 67.6999 147.041 66.3467C147.041 64.9934 148.136 63.8982 149.489 63.8982C150.84 63.8982 151.938 64.9934 151.938 66.3467Z" fill="white"/>
<path d="M62.6196 143.308C62.6196 144.662 61.5244 145.757 60.1711 145.757C58.8179 145.757 57.7227 144.662 57.7227 143.308C57.7227 141.955 58.8179 140.86 60.1711 140.86C61.5244 140.86 62.6196 141.958 62.6196 143.308Z" fill="white"/>
<path d="M151.938 143.308C151.938 144.662 150.843 145.757 149.489 145.757C148.136 145.757 147.041 144.662 147.041 143.308C147.041 141.955 148.136 140.86 149.489 140.86C150.84 140.86 151.938 141.958 151.938 143.308Z" fill="white"/>
<path d="M36.5137 97.1416C36.5137 95.5843 37.0268 94.2851 38.071 93.2409C39.1302 92.1967 40.4744 91.6685 42.1067 91.6685C43.286 91.6685 44.3122 91.9716 45.1913 92.5597L44.4652 94.8282C43.7241 94.3301 42.9679 94.087 42.1968 94.087C41.2756 94.087 40.5344 94.3901 39.9763 94.9932C39.4632 95.5513 39.2052 96.2774 39.2052 97.1386C39.2052 97.9998 39.4632 98.7259 39.9763 99.299C40.5344 99.9201 41.2756 100.22 42.1968 100.22C42.9979 100.22 43.7691 99.9771 44.5102 99.479L45.2363 101.747C44.3602 102.336 43.316 102.639 42.1067 102.639C40.4294 102.639 39.0702 102.111 38.026 101.051C37.0118 100.028 36.5137 98.7289 36.5137 97.1416Z" fill="#1581BB"/>
<path d="M51.9468 97.9127C51.9318 97.8977 52.7479 99.41 54.3802 102.447H51.5237L49.6333 98.5309H48.8472V102.447H46.2637V91.8666H49.7083C52.1718 91.8666 53.411 92.9558 53.411 95.1162C53.411 95.7193 53.291 96.2654 53.048 96.7485C52.7929 97.2616 52.4149 97.6547 51.9468 97.9127ZM48.8502 94.087V96.3704H49.6213C50.3925 96.3704 50.7705 95.9774 50.7705 95.2062C50.7705 94.4651 50.3475 94.087 49.5013 94.087H48.8502Z" fill="#1581BB"/>
<path d="M57.4924 102.447V97.6697L54.2578 91.8666H57.1594L58.7767 95.3262L60.439 91.8666H63.2955L60.0609 97.6697V102.447H57.4924Z" fill="#1581BB"/>
<path d="M67.8481 98.7439H66.6089V102.447H64.0254V91.8666H67.8331C68.9073 91.8666 69.7385 92.1696 70.3416 92.7878C70.9447 93.4089 71.2478 94.24 71.2478 95.2812C71.2478 96.3104 70.9447 97.1416 70.3266 97.7747C69.7055 98.4258 68.8743 98.7439 67.8481 98.7439ZM66.6089 94.087V96.5205H67.4551C68.2262 96.5205 68.6043 96.1124 68.6043 95.2812C68.6043 94.9182 68.5143 94.6301 68.3162 94.4201C68.1212 94.192 67.8331 94.087 67.4851 94.087H66.6089Z" fill="#1581BB"/>
<path d="M76.3884 94.1771V102.444H73.8049V94.1771H71.5215V91.8636H78.6689V94.1771H76.3884Z" fill="#1581BB"/>
<path d="M78.6074 97.1416C78.6074 95.5843 79.1205 94.2851 80.1347 93.2589C81.1789 92.1997 82.5082 91.6716 84.1555 91.6716C85.8028 91.6716 87.1321 92.1997 88.1763 93.2589C89.1904 94.2881 89.7035 95.5873 89.7035 97.1416C89.7035 98.7289 89.1904 100.028 88.1763 101.057C87.1321 102.117 85.8028 102.645 84.1555 102.645C82.5082 102.645 81.1789 102.117 80.1347 101.057C79.1235 100.028 78.6074 98.7289 78.6074 97.1416ZM81.2989 97.1416C81.2989 98.0328 81.572 98.7739 82.1001 99.347C82.6282 99.9352 83.3243 100.223 84.1555 100.223C84.9866 100.223 85.6828 99.9352 86.2109 99.347C86.739 98.7739 87.012 98.0328 87.012 97.1416C87.012 96.2654 86.754 95.5393 86.2259 94.9662C85.6828 94.3781 84.9866 94.09 84.1555 94.09C83.3243 94.09 82.6282 94.3781 82.1001 94.9662C81.572 95.5393 81.2989 96.2654 81.2989 97.1416Z" fill="#1581BB"/>
<path d="M95.9917 102.447H93.4082V91.8666H95.9917V102.447Z" fill="#1581BB"/>
<path d="M100.074 95.9624V102.447H97.5352V91.8666H100.164L104.031 98.4258V91.8666H106.57V102.447H104.001L100.074 95.9624Z" fill="#1581BB"/>
<path d="M110.699 98.4108V102.447H108.115V91.8666H113.708V94.18H110.702V96.1154H113.33V98.4138H110.699V98.4108Z" fill="#1581BB"/>
<path d="M114.947 102.447V91.8666H117.531V100.133H120.705V102.447H114.947Z" fill="#1581BB"/>
<path d="M121.234 98.3808V91.8666H123.818V98.3808C123.818 98.9539 123.983 99.41 124.316 99.7401C124.634 100.073 125.087 100.238 125.66 100.238C126.233 100.238 126.686 100.073 127.004 99.7401C127.323 99.407 127.473 98.9539 127.473 98.3658V91.8666H130.056V98.3658C130.056 99.6351 129.663 100.649 128.892 101.417C128.091 102.219 127.016 102.627 125.642 102.627C124.253 102.627 123.164 102.234 122.378 101.447C121.612 100.691 121.234 99.6651 121.234 98.3808Z" fill="#1581BB"/>
<path d="M131.604 102.447V91.8666H137.242V94.18H134.19V95.9474H136.789V98.2458H134.19V100.136H137.365V102.45H131.604V102.447Z" fill="#1581BB"/>
<path d="M141.142 95.9624V102.447H138.604V91.8666H141.232L145.1 98.4258V91.8666H147.638V102.447H145.07L141.142 95.9624Z" fill="#1581BB"/>
<path d="M148.654 97.1416C148.654 95.5843 149.167 94.2851 150.212 93.2409C151.271 92.1967 152.615 91.6685 154.247 91.6685C155.427 91.6685 156.453 91.9716 157.329 92.5597L156.603 94.8282C155.862 94.3301 155.106 94.087 154.334 94.087C153.413 94.087 152.672 94.3901 152.114 94.9932C151.601 95.5513 151.343 96.2774 151.343 97.1386C151.343 97.9998 151.601 98.7259 152.114 99.299C152.672 99.9201 153.413 100.22 154.334 100.22C155.136 100.22 155.907 99.9771 156.648 99.479L157.374 101.747C156.498 102.336 155.454 102.639 154.244 102.639C152.567 102.639 151.208 102.111 150.164 101.051C149.152 100.028 148.654 98.7289 148.654 97.1416Z" fill="#1581BB"/>
<path d="M158.402 102.447V91.8666H164.04V94.18H160.989V95.9474H163.587V98.2458H160.989V100.136H164.163V102.45H158.402V102.447Z" fill="#1581BB"/>
<path d="M171.113 97.9127C171.098 97.8977 171.914 99.41 173.546 102.447H170.69L168.799 98.5309H168.013V102.447H165.43V91.8666H168.874C171.338 91.8666 172.577 92.9558 172.577 95.1162C172.577 95.7193 172.457 96.2654 172.214 96.7485C171.962 97.2616 171.584 97.6547 171.113 97.9127ZM168.016 94.087V96.3704H168.787C169.558 96.3704 169.937 95.9774 169.937 95.2062C169.937 94.4651 169.513 94.087 168.667 94.087H168.016Z" fill="#1581BB"/>
<path d="M39.9671 117.395L37.6386 111.319V118.257H35.1602V107.677H38.5148L41.1433 114.371L43.7868 107.677H47.1415V118.257H44.663V111.319L42.3345 117.395H39.9671Z" fill="#1581BB"/>
<path d="M51.1984 115.883L50.4422 118.257H47.8438L51.5014 107.677H54.223L57.8807 118.257H55.2822L54.526 115.883H51.1984ZM52.8607 110.413L51.8645 113.768H53.8599L52.8607 110.413Z" fill="#1581BB"/>
<path d="M64.2866 113.723C64.2716 113.708 65.0878 115.22 66.7201 118.257H63.8635L61.9732 114.341H61.187V118.257H58.6035V107.677H62.0482C64.5116 107.677 65.7509 108.766 65.7509 110.926C65.7509 111.529 65.6309 112.075 65.3878 112.559C65.1328 113.072 64.7547 113.465 64.2866 113.723ZM61.19 109.897V112.18H61.9612C62.7323 112.18 63.1104 111.787 63.1104 111.016C63.1104 110.275 62.6873 109.897 61.8411 109.897H61.19Z" fill="#1581BB"/>
<path d="M70.0327 111.757L73.1173 107.677H76.0039L72.0431 112.739L76.0789 118.254H73.1173L70.0327 113.993V118.254H67.4492V107.674H70.0327V111.757Z" fill="#1581BB"/>
<path d="M76.8203 118.257V107.677H82.4584V109.99H79.4068V111.757H82.0053V114.056H79.4068V115.946H82.5814V118.26H76.8203V118.257Z" fill="#1581BB"/>
<path d="M88.0642 109.99V118.257H85.4807V109.99H83.1973V107.677H90.3446V109.99H88.0642Z" fill="#1581BB"/>
<path d="M93.853 118.257H91.2695V107.677H93.853V118.257Z" fill="#1581BB"/>
<path d="M97.935 111.772V118.257H95.3965V107.677H98.025L101.893 114.236V107.677H104.431V118.257H101.863L97.935 111.772Z" fill="#1581BB"/>
<path d="M115.77 116.789C115.089 117.317 114.441 117.711 113.849 117.939C113.003 118.287 112.037 118.452 110.933 118.452C109.391 118.452 108.106 117.954 107.08 116.969C106.006 115.925 105.463 114.581 105.463 112.934C105.463 111.391 105.976 110.107 106.99 109.066C108.034 108.007 109.379 107.479 110.996 107.479C112.1 107.479 113.051 107.707 113.883 108.145C114.201 108.31 114.486 108.523 114.744 108.751C114.957 108.931 115.137 109.129 115.302 109.324L113.669 111.016C113.594 110.926 113.504 110.821 113.366 110.713C113.201 110.578 113.033 110.44 112.838 110.32C112.31 110.017 111.734 109.867 111.116 109.867C110.195 109.867 109.469 110.155 108.926 110.743C108.397 111.301 108.139 112.012 108.139 112.889C108.139 113.84 108.427 114.626 109.001 115.217C109.559 115.775 110.255 116.063 111.116 116.063C111.689 116.063 112.205 115.973 112.673 115.805C112.838 115.73 112.991 115.655 113.126 115.58C113.231 115.52 113.321 115.46 113.369 115.415V114.479H111.542V112.319H115.773V116.789H115.77Z" fill="#1581BB"/>
<path d="M122.226 115.883L121.47 118.257H118.871L122.529 107.677H125.25L128.905 118.257H126.307L125.55 115.883H122.226ZM123.888 110.413L122.892 113.768H124.887L123.888 110.413Z" fill="#1581BB"/>
<path d="M139.125 116.789C138.444 117.317 137.796 117.711 137.205 117.939C136.359 118.287 135.393 118.452 134.288 118.452C132.746 118.452 131.462 117.954 130.436 116.969C129.361 115.925 128.818 114.581 128.818 112.934C128.818 111.391 129.331 110.107 130.346 109.066C131.387 108.007 132.734 107.479 134.351 107.479C135.456 107.479 136.407 107.707 137.238 108.145C137.556 108.31 137.841 108.523 138.099 108.751C138.312 108.931 138.492 109.129 138.657 109.324L137.025 111.016C136.95 110.926 136.86 110.821 136.722 110.713C136.557 110.578 136.389 110.44 136.194 110.32C135.666 110.017 135.09 109.867 134.471 109.867C133.55 109.867 132.824 110.155 132.281 110.743C131.753 111.301 131.495 112.012 131.495 112.889C131.495 113.84 131.783 114.626 132.356 115.217C132.914 115.775 133.61 116.063 134.471 116.063C135.045 116.063 135.561 115.973 136.029 115.805C136.194 115.73 136.347 115.655 136.482 115.58C136.587 115.52 136.68 115.46 136.725 115.415V114.479H134.898V112.319H139.128V116.789H139.125Z" fill="#1581BB"/>
<path d="M140.408 118.257V107.677H146.046V109.99H142.995V111.757H145.593V114.056H142.995V115.946H146.169V118.26H140.408V118.257Z" fill="#1581BB"/>
<path d="M149.947 111.772V118.257H147.408V107.677H150.037L153.904 114.236V107.677H156.443V118.257H153.874L149.947 111.772Z" fill="#1581BB"/>
<path d="M157.457 112.952C157.457 111.394 157.97 110.095 159.014 109.051C160.074 108.007 161.418 107.479 163.05 107.479C164.229 107.479 165.256 107.782 166.132 108.37L165.406 110.638C164.664 110.14 163.908 109.897 163.137 109.897C162.216 109.897 161.475 110.2 160.917 110.803C160.404 111.361 160.146 112.087 160.146 112.949C160.146 113.81 160.404 114.536 160.917 115.109C161.475 115.727 162.216 116.03 163.137 116.03C163.938 116.03 164.709 115.787 165.451 115.289L166.177 117.555C165.301 118.143 164.256 118.446 163.047 118.446C161.37 118.446 160.011 117.918 158.966 116.858C157.958 115.838 157.457 114.539 157.457 112.952Z" fill="#1581BB"/>
<path d="M169.594 118.257V113.48L166.359 107.677H169.261L170.878 111.136L172.541 107.677H175.397L172.165 113.48V118.257H169.594Z" fill="#1581BB"/>
<path d="M90.2647 54.4825C90.2647 53.8613 90.4837 53.2432 90.9248 52.6101C91.2429 52.184 91.7229 51.6589 92.3981 51.0408L92.7852 50.6837L93.1722 50.3267C93.4603 50.0656 93.6823 49.8436 93.8594 49.6515C94.3004 49.1564 94.5195 48.7154 94.5195 48.3283C94.5195 47.9712 94.4085 47.6802 94.1894 47.4611C93.9704 47.2541 93.6673 47.1431 93.2802 47.1431C92.5931 47.1431 92.137 47.5151 91.918 48.2713L90.2227 47.7762C90.3607 47.1551 90.6487 46.633 91.0898 46.2069C91.6689 45.6428 92.4251 45.3517 93.3613 45.3517C94.2974 45.3517 95.0566 45.6128 95.6327 46.1379C96.2118 46.675 96.4999 47.3771 96.4999 48.2443C96.4999 49.2225 95.8787 50.2427 94.6545 51.3019L94.3094 51.6049L93.9524 51.893C93.6763 52.112 93.4693 52.292 93.3193 52.4301C92.8932 52.8291 92.6321 53.1742 92.5631 53.4773H96.6109V55.1726H90.2617V54.4825H90.2647Z" fill="white"/>
<path d="M101.09 55.3527C99.9199 55.3527 99.0647 54.9266 98.5276 54.0864C98.0175 53.2883 97.7715 52.049 97.7715 50.3537C97.7715 48.6584 98.0205 47.4191 98.5276 46.621C99.0647 45.7808 99.9199 45.3547 101.09 45.3547C102.275 45.3547 103.128 45.7808 103.665 46.621C104.175 47.4191 104.421 48.6584 104.421 50.3537C104.421 52.049 104.172 53.2883 103.665 54.0864C103.128 54.9236 102.275 55.3527 101.09 55.3527ZM101.09 53.5343C101.642 53.5343 102.014 53.2583 102.218 52.7091C102.368 52.2681 102.452 51.4849 102.452 50.3537C102.452 49.2225 102.368 48.4393 102.218 47.9982C102.011 47.4461 101.639 47.1731 101.09 47.1731C100.541 47.1731 100.166 47.4491 99.9739 47.9982C99.8239 48.4393 99.7399 49.2225 99.7399 50.3537C99.7399 51.4849 99.8239 52.2681 99.9739 52.7091C100.166 53.2583 100.538 53.5343 101.09 53.5343Z" fill="white"/>
<path d="M105.647 54.4825C105.647 53.8613 105.867 53.2432 106.308 52.6101C106.626 52.184 107.106 51.6589 107.781 51.0408L108.168 50.6837L108.555 50.3267C108.843 50.0656 109.065 49.8436 109.242 49.6515C109.683 49.1564 109.902 48.7154 109.902 48.3283C109.902 47.9712 109.791 47.6802 109.572 47.4611C109.353 47.2541 109.05 47.1431 108.663 47.1431C107.976 47.1431 107.52 47.5151 107.301 48.2713L105.605 47.7762C105.743 47.1551 106.032 46.633 106.473 46.2069C107.052 45.6428 107.808 45.3517 108.744 45.3517C109.68 45.3517 110.439 45.6128 111.016 46.1379C111.595 46.675 111.883 47.3771 111.883 48.2443C111.883 49.2225 111.265 50.2427 110.037 51.3019L109.692 51.6049L109.335 51.893C109.059 52.112 108.852 52.292 108.702 52.4301C108.276 52.8291 108.015 53.1742 107.946 53.4773H111.994V55.1726H105.644V54.4825H105.647Z" fill="white"/>
<path d="M113.004 52.9822L114.669 52.4601C114.903 53.2042 115.398 53.5763 116.158 53.5763C116.557 53.5763 116.887 53.4533 117.136 53.2192C117.385 52.9702 117.508 52.6551 117.508 52.256C117.508 51.857 117.37 51.5539 117.109 51.3199C116.821 51.0708 116.434 50.9478 115.923 50.9478H114.864V49.4475L116.863 47.2451H113.379V45.5378H119.08V47.2451L117.055 49.3665C117.715 49.4355 118.267 49.6965 118.72 50.1796C119.23 50.7017 119.476 51.3649 119.476 52.178C119.476 53.1022 119.158 53.8733 118.54 54.4645C117.922 55.0556 117.148 55.3586 116.2 55.3586C115.251 55.3586 114.492 55.0976 113.913 54.5605C113.46 54.1404 113.157 53.6153 113.004 52.9822Z" fill="white"/>
<path d="M72.4974 62.374V70.7516H69.8779V62.374H67.5645V60.0305H74.8078V62.374H72.4974Z" fill="white"/>
<path d="M75.0527 65.3746C75.0527 63.7963 75.5748 62.479 76.601 61.4378C77.6572 60.3666 79.0045 59.8295 80.6758 59.8295C82.3441 59.8295 83.6944 60.3666 84.7506 61.4378C85.7768 62.479 86.2959 63.7963 86.2959 65.3746C86.2959 66.9829 85.7738 68.3001 84.7506 69.3413C83.6944 70.4125 82.3471 70.9496 80.6758 70.9496C79.0075 70.9496 77.6602 70.4125 76.601 69.3413C75.5718 68.3001 75.0527 66.9829 75.0527 65.3746ZM77.7773 65.3746C77.7773 66.2777 78.0533 67.0279 78.5904 67.61C79.1275 68.2071 79.8296 68.4982 80.6728 68.4982C81.516 68.4982 82.2211 68.2071 82.7552 67.61C83.2923 67.0279 83.5684 66.2777 83.5684 65.3746C83.5684 64.4864 83.3073 63.7513 82.7732 63.1691C82.2211 62.572 81.516 62.281 80.6758 62.281C79.8327 62.281 79.1305 62.572 78.5934 63.1691C78.0533 63.7513 77.7773 64.4864 77.7773 65.3746Z" fill="white"/>
<path d="M91.5291 66.9979H90.2718V70.7486H87.6523V60.0275H91.5111C92.5973 60.0275 93.4404 60.3336 94.0526 60.9607C94.6647 61.5878 94.9707 62.431 94.9707 63.4872C94.9707 64.5284 94.6647 65.3716 94.0376 66.0137C93.4134 66.6768 92.5733 66.9979 91.5291 66.9979ZM90.2748 62.281V64.7474H91.133C91.9132 64.7474 92.2972 64.3334 92.2972 63.4902C92.2972 63.1211 92.2042 62.8331 92.0062 62.617C91.8081 62.386 91.5171 62.281 91.163 62.281H90.2748Z" fill="white"/>
<path d="M104.979 66.1547C104.964 66.1397 105.792 67.67 107.445 70.7486H104.55L102.635 66.7818H101.84V70.7486H99.2207V60.0275H102.713C105.21 60.0275 106.464 61.1287 106.464 63.3192C106.464 63.9313 106.341 64.4834 106.095 64.9725C105.834 65.4976 105.453 65.8967 104.979 66.1547ZM101.837 62.281V64.5944H102.617C103.398 64.5944 103.782 64.1953 103.782 63.4152C103.782 62.665 103.352 62.281 102.494 62.281H101.837Z" fill="white"/>
<path d="M111.027 68.3451L110.261 70.7486H107.627L111.333 60.0275H114.09L117.796 70.7486H115.161L114.396 68.3451H111.027ZM112.71 62.8001L111.699 66.1997H113.721L112.71 62.8001Z" fill="white"/>
<path d="M122.191 62.374V70.7516H119.571V62.374H117.258V60.0305H124.501V62.374H122.191Z" fill="white"/>
<path d="M125.744 70.7516V60.0305H131.457V62.374H128.364V64.1653H130.998V66.4938H128.364V68.4082H131.58V70.7516H125.744Z" fill="white"/>
<path d="M136.327 60.0305C138.058 60.0305 139.435 60.5046 140.446 61.4558C141.473 62.422 141.977 63.7213 141.977 65.3926C141.977 67.0639 141.473 68.3631 140.446 69.3293C139.435 70.2775 138.058 70.7546 136.327 70.7546H133.17V60.0336H136.327V60.0305ZM135.789 62.296V68.4832H136.327C137.23 68.4832 137.935 68.2221 138.454 67.703C138.991 67.1659 139.249 66.3858 139.249 65.3896C139.249 64.3934 138.988 63.6132 138.454 63.0761C137.932 62.554 137.23 62.296 136.327 62.296H135.789Z" fill="white"/>
<path d="M75.5306 151.152C75.2696 151.218 75.1615 151.005 75.0205 150.864C72.6591 148.52 70.3036 146.174 67.9452 143.831C67.7561 143.645 67.5251 143.51 67.8431 143.194C70.3126 140.755 72.7641 138.298 75.2246 135.849C75.2486 135.825 75.2936 135.819 75.4166 135.768C75.4166 138.343 75.4166 140.878 75.4166 143.413C75.4136 145.784 75.4106 148.157 75.4106 150.528C75.4106 150.708 75.3716 150.906 75.5366 151.05C75.5366 151.083 75.5366 151.119 75.5306 151.152Z" fill="#F04174"/>
<path d="M75.9023 143.449C78.2908 143.449 80.6823 143.449 83.1787 143.449C80.8023 145.838 78.4768 148.175 76.1514 150.51C76.1124 150.522 76.0734 150.528 76.0344 150.531C75.9534 148.169 76.1784 145.805 75.9023 143.449Z" fill="#BF2659"/>
<path d="M90.4141 144.407C89.8379 145.817 89.2618 147.227 88.6887 148.64C88.6797 148.658 88.6827 148.682 88.6707 148.7C88.5237 148.908 88.5777 149.31 88.2566 149.325C87.9056 149.343 87.9266 148.947 87.8336 148.722C87.2875 147.425 86.7744 146.117 86.2373 144.818C86.1802 144.677 86.1832 144.485 85.9462 144.398C85.9462 145.88 85.9462 147.338 85.9462 148.797C85.9462 149.085 86.0152 149.367 85.5351 149.361C85.073 149.355 85.1721 149.07 85.1721 148.821C85.1691 147.143 85.1601 145.463 85.1841 143.786C85.1871 143.579 84.953 143.173 85.4271 143.17C85.8172 143.167 86.2703 142.963 86.4983 143.591C86.9694 144.893 87.5275 146.162 88.0496 147.443C88.0946 147.557 88.1516 147.665 88.2536 147.887C88.6227 146.987 88.9558 146.177 89.2858 145.37C89.5349 144.758 89.7929 144.146 90.03 143.528C90.12 143.293 90.213 143.155 90.5071 143.146C91.3082 143.116 91.3082 143.098 91.3082 143.924C91.3082 145.562 91.3082 147.197 91.3082 148.836C91.3082 149.103 91.3712 149.364 90.9272 149.361C90.4981 149.358 90.5311 149.124 90.5311 148.842C90.5341 147.371 90.5341 145.901 90.5341 144.428C90.4891 144.422 90.4531 144.416 90.4141 144.407Z" fill="white"/>
<path d="M99.2391 139.429C98.843 139.429 98.447 139.423 98.0539 139.432C97.9189 139.435 97.7358 139.363 97.6638 139.519C97.5888 139.684 97.7118 139.831 97.8078 139.963C98.1829 140.473 98.9601 140.638 99.6742 140.23C100.136 139.966 100.229 140.248 100.427 140.5C100.595 140.713 100.553 140.839 100.34 140.995C99.4522 141.643 97.8499 141.541 97.0277 140.767C96.1995 139.987 96.0795 138.613 96.7576 137.637C97.3487 136.785 98.456 136.449 99.4762 136.809C100.37 137.127 101.009 138.144 100.949 139.114C100.934 139.363 100.844 139.432 100.613 139.426C100.154 139.42 99.6982 139.429 99.2391 139.429ZM97.5708 138.595C98.2189 138.595 98.816 138.586 99.4131 138.598C99.8632 138.607 99.7642 138.37 99.6292 138.138C99.3801 137.712 98.9691 137.607 98.51 137.655C97.9969 137.706 97.6938 137.997 97.5708 138.595Z" fill="white"/>
<path d="M112.859 139.429C113.111 140.365 113.969 140.74 114.884 140.245C115.415 139.96 115.535 140.278 115.7 140.581C115.937 141.01 115.481 141.043 115.283 141.139C114.215 141.67 112.82 141.427 112.124 140.626C111.44 139.84 111.371 138.565 111.962 137.676C112.538 136.815 113.642 136.452 114.659 136.791C115.58 137.097 116.249 138.135 116.195 139.123C116.174 139.498 115.931 139.423 115.718 139.426C114.773 139.432 113.822 139.429 112.859 139.429ZM113.867 138.595C113.993 138.595 114.122 138.613 114.242 138.592C114.485 138.544 114.899 138.76 114.944 138.451C115.001 138.057 114.659 137.787 114.257 137.694C113.834 137.598 113.423 137.616 113.102 137.958C112.961 138.108 112.781 138.291 112.865 138.496C112.949 138.7 113.195 138.574 113.366 138.592C113.534 138.61 113.702 138.595 113.867 138.595Z" fill="white"/>
<path d="M124.072 145.397C124.096 145.115 124.033 144.788 124.493 144.842C124.961 144.899 124.787 145.226 124.79 145.451C124.805 146.693 124.793 147.935 124.799 149.178C124.802 149.985 124.574 150.675 123.748 150.969C122.809 151.305 121.879 151.32 121.024 150.681C120.82 150.528 120.862 150.402 120.982 150.219C121.141 149.976 121.252 150.09 121.42 150.21C121.603 150.339 121.813 150.459 122.029 150.507C123.226 150.762 124.324 150.33 124.066 148.818C123.94 148.764 123.883 148.872 123.805 148.929C122.548 149.895 120.967 149.337 120.628 147.794C120.52 147.305 120.529 146.804 120.634 146.315C120.928 144.965 122.524 144.047 124.072 145.397ZM124.105 147.044C124.018 146.597 124.288 146.048 123.703 145.679C123.022 145.25 122.191 145.271 121.714 145.799C121.156 146.417 121.15 147.704 121.705 148.331C122.182 148.872 123.004 148.905 123.694 148.472C124.27 148.109 124.039 147.563 124.105 147.044Z" fill="white"/>
<path d="M94.1573 140.836C93.7042 141.211 93.2361 141.412 92.696 141.418C91.7658 141.43 91.2287 140.956 91.2017 140.041C91.1747 139.09 91.2107 138.135 91.1897 137.181C91.1777 136.614 91.5828 136.833 91.8438 136.812C92.1109 136.791 92.441 136.698 92.423 137.196C92.3929 137.961 92.4049 138.73 92.4169 139.495C92.4259 140.098 92.675 140.335 93.2451 140.332C93.8632 140.329 94.2263 140.026 94.2353 139.48C94.2443 138.775 94.2713 138.069 94.2263 137.367C94.1963 136.878 94.3763 136.77 94.8294 136.794C95.2165 136.812 95.4775 136.788 95.4535 137.331C95.4025 138.469 95.4475 139.609 95.4295 140.749C95.4265 140.95 95.5976 141.259 95.1565 141.301C94.5264 141.361 94.3313 141.304 94.1573 140.836Z" fill="white"/>
<path d="M81.5795 137.298C81.8676 137.07 82.0986 136.899 82.3807 136.806C83.5419 136.428 84.6581 136.866 84.5771 138.267C84.5291 139.093 84.5321 139.927 84.5801 140.752C84.6101 141.268 84.3821 141.31 83.962 141.307C83.5599 141.307 83.3559 141.25 83.3829 140.776C83.4249 140.074 83.4039 139.369 83.3919 138.664C83.3799 138.021 83.1098 137.73 82.5637 137.727C81.9456 137.721 81.5465 138.099 81.5435 138.7C81.5405 139.426 81.5135 140.152 81.5525 140.875C81.5825 141.406 81.2375 141.292 80.9464 141.295C80.6464 141.298 80.3223 141.391 80.3343 140.869C80.3643 139.69 80.3403 138.508 80.3463 137.328C80.3463 137.106 80.2413 136.755 80.6614 136.821C80.9914 136.872 81.5435 136.515 81.5795 137.298Z" fill="white"/>
<path d="M101.794 139.015C101.794 138.436 101.785 137.856 101.8 137.274C101.803 137.1 101.68 136.779 102.028 136.824C102.34 136.866 102.781 136.557 102.946 137.016C103.057 137.316 103.12 137.181 103.27 137.094C103.483 136.968 103.702 136.836 103.936 136.761C105.136 136.38 105.991 136.974 106.012 138.204C106.027 139.096 105.994 139.987 106.024 140.875C106.042 141.469 105.628 141.256 105.343 141.289C105.028 141.325 104.788 141.313 104.812 140.86C104.851 140.116 104.83 139.369 104.821 138.625C104.812 137.997 104.527 137.709 103.966 137.724C103.363 137.739 102.976 138.102 102.97 138.664C102.964 139.369 102.937 140.074 102.979 140.776C103.006 141.25 102.805 141.307 102.4 141.307C101.98 141.307 101.74 141.268 101.785 140.752C101.83 140.176 101.794 139.594 101.794 139.015Z" fill="white"/>
<path d="M109.348 136.683C109.879 136.662 110.41 136.803 110.848 137.208C110.977 137.328 111.193 137.502 110.923 137.64C110.668 137.769 110.605 138.34 110.17 138.03C109.669 137.673 109.171 137.607 108.666 137.949C108.153 138.297 108.075 138.826 108.186 139.39C108.354 140.227 109.288 140.668 109.969 140.155C110.545 139.72 110.731 140.215 110.929 140.47C111.19 140.806 110.761 140.941 110.56 141.073C109.765 141.595 108.546 141.514 107.799 140.926C107.013 140.305 106.707 139.222 107.043 138.225C107.367 137.259 108.198 136.689 109.348 136.683Z" fill="white"/>
<path d="M131.265 146.279C131.265 147.17 131.265 148.061 131.265 148.953C131.265 149.169 131.283 149.376 130.959 149.358C130.65 149.34 130.731 149.118 130.728 148.95C130.722 148.265 130.707 147.581 130.731 146.897C130.743 146.525 130.68 146.342 130.236 146.357C129.258 146.393 128.276 146.384 127.298 146.36C126.923 146.351 126.779 146.45 126.797 146.843C126.827 147.524 126.809 148.211 126.803 148.896C126.8 149.088 126.878 149.337 126.542 149.352C126.164 149.37 126.236 149.097 126.236 148.881C126.233 147.098 126.233 145.316 126.236 143.533C126.236 143.332 126.185 143.098 126.518 143.098C126.845 143.098 126.806 143.326 126.806 143.533C126.806 144.155 126.818 144.776 126.803 145.4C126.794 145.703 126.866 145.85 127.211 145.844C128.252 145.826 129.297 145.823 130.338 145.847C130.704 145.856 130.737 145.685 130.731 145.4C130.719 144.758 130.728 144.116 130.728 143.473C130.728 143.284 130.704 143.095 131.001 143.101C131.289 143.107 131.271 143.293 131.268 143.485C131.265 144.416 131.265 145.349 131.265 146.279Z" fill="white"/>
<path d="M86.0244 139.558C86.0244 139.249 86.0274 138.937 86.0244 138.628C86.0184 138.243 86.1804 137.802 85.4663 137.817C85.1122 137.826 85.3553 137.379 85.3012 137.145C85.2532 136.941 85.3132 136.77 85.5863 136.812C85.9584 136.872 86.0094 136.671 86.0454 136.353C86.1744 135.213 87.2606 134.64 88.3108 135.147C88.4608 135.219 88.7999 135.27 88.6049 135.561C88.4729 135.756 88.4849 136.197 88.0198 136.011C87.8937 135.96 87.7257 135.957 87.5937 135.993C87.3146 136.068 87.2126 136.308 87.2036 136.566C87.1886 136.917 87.4857 136.821 87.6567 136.8C88.0798 136.752 88.1308 136.959 88.1248 137.31C88.1188 137.661 88.1068 137.937 87.6357 137.85C87.2666 137.784 87.1826 137.973 87.1886 138.309C87.2066 139.156 87.1646 140.008 87.2066 140.854C87.2336 141.373 86.9216 141.295 86.6125 141.292C86.3094 141.289 85.9644 141.385 86.0154 140.857C86.0574 140.431 86.0244 139.993 86.0244 139.558Z" fill="white"/>
<path d="M104.668 144.998C104.161 145.484 103.684 146.009 103.132 146.444C102.718 146.771 102.799 146.984 103.096 147.317C103.645 147.938 104.152 148.596 104.719 149.289C104.194 149.412 103.801 149.415 103.501 148.932C103.273 148.565 102.97 148.241 102.682 147.911C102.529 147.734 102.394 147.344 102.181 147.458C101.863 147.629 101.496 147.875 101.451 148.316C101.427 148.541 101.433 148.773 101.451 149.001C101.469 149.268 101.376 149.37 101.097 149.364C100.821 149.358 100.737 149.253 100.74 148.989C100.746 147.164 100.749 145.337 100.74 143.513C100.74 143.245 100.821 143.158 101.094 143.146C101.43 143.128 101.457 143.29 101.454 143.558C101.445 144.737 101.451 145.916 101.451 147.131C102.622 146.51 103.081 144.962 104.536 144.797C104.575 144.86 104.62 144.929 104.668 144.998Z" fill="white"/>
<path d="M95.5573 148.935C94.3841 149.658 93.4329 149.634 92.8088 148.896C92.3767 148.385 92.3767 147.503 92.8058 146.996C93.3729 146.324 94.4501 146.309 95.4733 146.954C95.6323 146.174 95.5633 145.859 95.1763 145.58C94.7562 145.274 93.97 145.322 93.3969 145.655C93.2499 145.742 93.1209 146.114 92.8598 145.757C92.6018 145.4 92.9078 145.283 93.1179 145.145C93.802 144.686 94.5491 144.617 95.3233 144.872C95.9534 145.082 96.2415 145.562 96.2535 146.201C96.2685 147.113 96.2565 148.022 96.2595 148.935C96.2595 149.145 96.2835 149.352 95.9624 149.361C95.6624 149.37 95.4703 149.313 95.5573 148.935ZM94.3781 147.026C93.652 147.017 93.1779 147.398 93.1839 147.983C93.1899 148.55 93.643 148.92 94.3361 148.923C95.1133 148.926 95.5423 148.61 95.5543 148.025C95.5663 147.362 95.1823 147.035 94.3781 147.026Z" fill="white"/>
<path d="M107.844 147.311C107.385 147.311 106.926 147.338 106.47 147.305C106.002 147.272 105.999 147.494 106.113 147.827C106.476 148.866 107.685 149.187 108.766 148.529C108.919 148.436 109.03 148.265 109.216 148.511C109.405 148.76 109.264 148.869 109.087 149.007C108.282 149.634 106.926 149.625 106.116 148.98C105.315 148.34 105.042 147.032 105.498 146.03C105.945 145.052 106.935 144.569 108.024 144.794C108.964 144.989 109.729 146.027 109.687 147.008C109.675 147.269 109.558 147.317 109.339 147.314C108.844 147.308 108.345 147.311 107.844 147.311ZM107.529 146.789C107.901 146.789 108.276 146.771 108.646 146.795C108.955 146.813 108.985 146.669 108.934 146.423C108.808 145.817 108.201 145.337 107.529 145.319C106.842 145.301 106.215 145.778 106.065 146.42C106.005 146.675 106.041 146.807 106.347 146.792C106.743 146.777 107.136 146.789 107.529 146.789Z" fill="white"/>
<path d="M77.7999 138.189C77.7999 137.298 77.8269 136.404 77.7909 135.516C77.7639 134.859 78.226 135.123 78.514 135.096C78.8231 135.066 79.1652 134.97 79.1562 135.54C79.1202 137.301 79.1202 139.066 79.1562 140.827C79.1682 141.505 78.7181 141.256 78.4 141.295C78.037 141.34 77.7639 141.319 77.7909 140.803C77.8329 139.933 77.7999 139.063 77.7999 138.189Z" fill="white"/>
<path d="M116.341 145.433C117.002 144.89 117.644 144.608 118.427 144.779C118.925 144.89 119.273 145.178 119.345 145.676C119.51 146.81 119.387 147.953 119.414 149.091C119.42 149.373 119.213 149.346 119.021 149.358C118.769 149.373 118.703 149.253 118.706 149.022C118.715 148.193 118.712 147.362 118.709 146.534C118.706 145.7 118.406 145.367 117.68 145.376C116.891 145.382 116.344 145.874 116.341 146.576C116.341 147.365 116.335 148.151 116.344 148.941C116.347 149.199 116.329 149.373 115.987 149.367C115.648 149.361 115.63 149.184 115.63 148.929C115.636 147.746 115.63 146.564 115.636 145.382C115.636 145.16 115.525 144.875 115.945 144.842C116.38 144.806 116.359 145.067 116.341 145.433Z" fill="white"/>
<path d="M138.424 148.788C138.289 148.992 138.541 149.385 138.088 149.346C137.701 149.31 137.875 148.995 137.875 148.812C137.86 147.092 137.863 145.376 137.872 143.657C137.872 143.471 137.728 143.161 138.142 143.179C138.508 143.197 138.361 143.473 138.364 143.642C138.382 144.218 138.37 144.797 138.37 145.463C138.898 145.091 139.372 144.734 140.008 144.776C140.65 144.818 141.17 145.061 141.539 145.595C142.211 146.567 142.088 148.166 141.281 148.929C140.539 149.628 139.507 149.589 138.424 148.788ZM138.376 147.173C138.466 147.59 138.136 148.19 138.736 148.61C139.321 149.019 140.056 149.139 140.602 148.806C141.338 148.358 141.47 147.632 141.41 146.861C141.356 146.141 141.08 145.541 140.32 145.286C140.062 145.199 139.798 145.154 139.528 145.25C138.493 145.616 138.274 145.736 138.376 147.173Z" fill="white"/>
<path d="M90.0331 138.201C90.0331 139.093 90.009 139.987 90.0421 140.875C90.0631 141.409 89.715 141.292 89.4239 141.292C89.1329 141.292 88.7968 141.409 88.8058 140.875C88.8298 139.072 88.8268 137.268 88.8028 135.462C88.7968 134.955 89.1329 135.078 89.3909 135.093C89.649 135.108 90.0541 134.892 90.039 135.462C90.015 136.377 90.0331 137.289 90.0331 138.201Z" fill="white"/>
<path d="M118.27 137.277C118.484 137.139 118.652 137.025 118.826 136.923C119.06 136.788 119.339 136.596 119.576 136.728C119.834 136.875 119.654 137.214 119.693 137.466C119.738 137.742 119.594 137.79 119.339 137.817C118.378 137.916 118.234 138.096 118.234 139.063C118.234 139.684 118.216 140.302 118.24 140.923C118.261 141.43 117.904 141.286 117.649 141.289C117.391 141.289 117.049 141.427 117.058 140.92C117.079 139.723 117.061 138.523 117.07 137.325C117.073 137.115 116.938 136.755 117.373 136.818C117.706 136.869 118.252 136.506 118.27 137.277Z" fill="white"/>
<path d="M135.788 148.788C135.224 149.241 134.639 149.511 133.924 149.418C133.312 149.337 132.913 149.031 132.838 148.412C132.703 147.32 132.808 146.222 132.781 145.127C132.778 144.956 132.844 144.854 133.033 144.848C133.312 144.842 133.312 145.028 133.312 145.226C133.309 146.054 133.309 146.882 133.312 147.71C133.315 148.647 133.594 148.989 134.354 149.001C135.236 149.016 135.857 148.469 135.857 147.677C135.857 146.87 135.854 146.063 135.86 145.256C135.86 145.088 135.782 144.863 136.091 144.848C136.442 144.83 136.367 145.079 136.367 145.271C136.37 146.45 136.376 147.629 136.361 148.809C136.358 148.995 136.529 149.304 136.148 149.349C135.695 149.4 135.935 149.004 135.788 148.788Z" fill="white"/>
<path d="M110.948 147.224C110.948 146.873 110.948 146.522 110.948 146.171C110.948 145.814 111.062 145.385 110.426 145.487C110.177 145.526 110.201 145.313 110.198 145.145C110.195 144.989 110.216 144.821 110.417 144.857C111.032 144.962 110.951 144.56 110.954 144.185C110.954 143.954 110.807 143.636 111.29 143.639C111.749 143.642 111.674 143.93 111.647 144.179C111.602 144.644 111.68 144.956 112.259 144.854C112.493 144.812 112.583 144.923 112.592 145.169C112.601 145.463 112.454 145.538 112.211 145.499C111.71 145.418 111.626 145.667 111.647 146.099C111.677 146.78 111.656 147.464 111.656 148.145C111.656 148.607 111.776 148.95 112.346 148.782C112.574 148.715 112.646 148.818 112.706 148.992C112.778 149.199 112.652 149.298 112.496 149.379C111.758 149.757 110.984 149.307 110.951 148.469C110.936 148.052 110.951 147.638 110.948 147.224Z" fill="white"/>
<path d="M75.9034 143.45C76.1795 145.805 75.9544 148.172 76.0354 150.531C75.9124 150.747 75.7324 150.909 75.5343 151.05C75.3693 150.906 75.4083 150.711 75.4083 150.528C75.4083 148.157 75.4113 145.784 75.4143 143.413C75.5763 143.426 75.7414 143.438 75.9034 143.45Z" fill="#931C44"/>
<path d="M98.3659 145.508C98.738 145.166 99.0321 144.902 99.4281 144.821C99.5872 144.788 99.8332 144.674 99.8302 145.004C99.8272 145.184 99.9202 145.376 99.5872 145.46C98.3899 145.766 98.3359 145.868 98.3359 147.056C98.3359 147.698 98.3269 148.337 98.3389 148.98C98.3419 149.232 98.2789 149.355 97.9939 149.355C97.6968 149.355 97.6608 149.208 97.6608 148.968C97.6668 147.788 97.6548 146.609 97.6698 145.43C97.6728 145.208 97.5018 144.869 97.9818 144.848C98.4439 144.827 98.3089 145.16 98.3659 145.508Z" fill="white"/>
<path d="M114.287 147.17C114.287 147.77 114.275 148.37 114.293 148.971C114.302 149.274 114.179 149.361 113.888 149.364C113.57 149.364 113.576 149.181 113.576 148.959C113.579 147.716 113.582 146.474 113.576 145.232C113.576 144.998 113.597 144.842 113.9 144.839C114.206 144.839 114.299 144.956 114.29 145.244C114.275 145.886 114.287 146.528 114.287 147.17Z" fill="white"/>
<path d="M113.87 144.197C113.618 144.167 113.444 144.008 113.465 143.711C113.486 143.416 113.675 143.272 113.972 143.29C114.251 143.308 114.392 143.495 114.386 143.744C114.386 144.026 114.221 144.2 113.87 144.197Z" fill="white"/>
<defs>
<linearGradient id="paint0_linear_461_1259" x1="30.0474" y1="130.646" x2="2.5334" y2="131.48" gradientUnits="userSpaceOnUse">
<stop stop-color="#3468A2"/>
<stop offset="1" stop-color="#83BAEE"/>
</linearGradient>
<linearGradient id="paint1_linear_461_1259" x1="179.613" y1="130.646" x2="207.127" y2="131.48" gradientUnits="userSpaceOnUse">
<stop stop-color="#3468A2"/>
<stop offset="1" stop-color="#83BAEE"/>
</linearGradient>
<linearGradient id="paint2_linear_461_1259" x1="104.827" y1="189.989" x2="104.827" y2="20.9701" gradientUnits="userSpaceOnUse">
<stop stop-color="#3468A2"/>
<stop offset="1" stop-color="#83BAEE"/>
</linearGradient>
<linearGradient id="paint3_linear_461_1259" x1="50.0355" y1="159.625" x2="160.451" y2="49.2103" gradientUnits="userSpaceOnUse">
<stop stop-color="#CDE1E8"/>
<stop offset="1" stop-color="#CDE1E8" stop-opacity="0"/>
</linearGradient>
<linearGradient id="paint4_linear_461_1259" x1="104.832" y1="179.417" x2="104.832" y2="29.8874" gradientUnits="userSpaceOnUse">
<stop stop-color="#3468A2"/>
<stop offset="1" stop-color="#83BAEE"/>
</linearGradient>
<linearGradient id="paint5_linear_461_1259" x1="104.829" y1="175.688" x2="104.829" y2="33.6344" gradientUnits="userSpaceOnUse">
<stop stop-color="#3468A2"/>
<stop offset="1" stop-color="#83BAEE"/>
</linearGradient>
<linearGradient id="paint6_linear_461_1259" x1="152.114" y1="57.5445" x2="57.5479" y2="152.111" gradientUnits="userSpaceOnUse">
<stop stop-color="white"/>
<stop offset="0.513" stop-color="white" stop-opacity="0"/>
</linearGradient>
<linearGradient id="paint7_linear_461_1259" x1="48.5329" y1="159.192" x2="163.591" y2="48.0943" gradientUnits="userSpaceOnUse">
<stop stop-color="#CDE1E8"/>
<stop offset="1" stop-color="#CDE1E8" stop-opacity="0"/>
</linearGradient>
</defs>
</svg>
