<svg width="240" height="87" viewBox="0 0 240 87" fill="none" xmlns="http://www.w3.org/2000/svg">
<path d="M173.359 27.4258C173.359 32.2251 173.359 36.9244 173.359 41.9629C175.57 39.7525 177.589 37.8055 179.518 35.7677C180.339 34.9017 181.18 34.5051 182.398 34.5535C184.808 34.6504 187.224 34.5808 189.955 34.5808C186.688 37.7631 183.639 40.7396 180.484 43.8129C183.942 48.8211 187.391 53.8112 191 59.0404C189.562 59.0404 188.32 59.0646 187.079 59.0344C185.671 59.0011 184.048 59.5158 182.915 58.8315C181.844 58.1835 181.271 56.7029 180.484 55.5855C178.937 53.3842 177.389 51.1769 175.842 48.9756C175.791 48.9029 175.721 48.8484 175.627 48.7485C174.894 49.1512 174.398 49.8446 173.738 50.3412C173.262 50.6985 173.347 51.186 173.347 51.6613C173.347 53.9959 173.347 56.3274 173.347 58.7467C170.801 58.7467 168.36 58.7467 165.85 58.7467C165.85 48.3003 165.85 37.8994 165.85 27.4288C168.33 27.4258 170.74 27.4258 173.359 27.4258Z" fill="white"/>
<path d="M85.2041 27.4106C87.681 27.4106 90.0912 27.4106 92.6104 27.4106C92.6104 32.2008 92.6104 36.9365 92.6104 41.6964C93.1857 41.6722 93.3553 41.2574 93.6188 41C95.5415 39.1166 97.4612 37.2302 99.3506 35.3105C99.8472 34.8079 100.338 34.5505 101.074 34.5626C103.699 34.608 106.324 34.5808 109.276 34.5808C105.994 37.7813 102.948 40.7517 99.8109 43.816C103.266 48.8181 106.705 53.8051 110.321 59.0404C108.516 59.0404 106.936 58.8618 105.413 59.0798C102.99 59.425 101.558 58.4802 100.332 56.4303C98.7359 53.7567 96.7951 51.2859 94.942 48.6425C94.2516 49.2753 93.6642 49.8567 93.0283 50.3775C92.5771 50.7469 92.6135 51.2132 92.6165 51.6947C92.6195 54.0262 92.6165 56.3577 92.6165 58.7588C90.1215 58.7588 87.7143 58.7588 85.2072 58.7588C85.2041 48.37 85.2041 37.9388 85.2041 27.4106Z" fill="white"/>
<path d="M127.353 34.1235C127.353 42.4231 127.353 50.5349 127.353 58.7376C124.809 58.7376 122.324 58.7376 119.695 58.7376C119.695 50.5168 119.695 42.2899 119.695 33.9509C117.1 33.9509 114.645 33.9509 112.107 33.9509C112.107 31.7436 112.107 29.6483 112.107 27.453C119.941 27.453 127.765 27.453 135.737 27.453C135.029 29.6785 134.332 31.8708 133.615 34.1235C131.528 34.1235 129.512 34.1235 127.353 34.1235Z" fill="white"/>
<path d="M64.6869 34.0569C64.6869 42.3868 64.6869 50.5349 64.6869 58.7558C62.0949 58.7558 59.609 58.7558 57.0292 58.7558C57.0292 50.5228 57.0292 42.3292 57.0292 33.9964C54.4524 33.9964 51.9604 33.9964 49.42 33.9964C49.42 31.7163 49.42 29.5756 49.42 27.4076C57.2775 27.4076 65.0714 27.4076 73.05 27.4076C72.3415 29.6604 71.6632 31.8163 70.9577 34.0569C68.9199 34.0569 66.9033 34.0569 64.6869 34.0569Z" fill="white"/>
<path d="M74.464 58.7467C74.464 51.631 74.464 44.6244 74.464 37.536C76.95 37.536 79.3965 37.536 81.9067 37.536C81.9067 44.579 81.9067 51.6219 81.9067 58.7467C79.4631 58.7467 77.0226 58.7467 74.464 58.7467Z" fill="white"/>
<path d="M78.2398 27.3652C80.3442 27.3743 82.0066 29.0609 81.9733 31.1562C81.943 33.1819 80.2867 34.8139 78.2429 34.8351C76.1596 34.8563 74.4277 33.1637 74.4277 31.0956C74.4246 29.0366 76.1415 27.3561 78.2398 27.3652Z" fill="white"/>
<path d="M161.79 45.8689C161.578 39.8282 157.408 33.9812 150.759 33.2939C149.087 33.1153 147.41 33.1728 145.739 33.306C139.607 33.7451 134.375 40.1673 134.853 47.1104C135.204 52.167 139.552 58.5408 146.168 58.9647C147.555 59.0404 148.942 59.104 150.326 58.9617C157.56 58.4439 161.995 51.7552 161.79 45.8689ZM148.234 52.3457C144.818 52.3335 142.011 49.5297 141.99 46.1233C141.972 42.6714 144.83 39.8615 148.34 39.8857C151.785 39.9099 154.574 42.6866 154.574 46.096C154.574 49.56 151.734 52.3608 148.234 52.3457Z" fill="white"/>
</svg>
