<svg width="717" height="691" viewBox="0 0 717 691" fill="none" xmlns="http://www.w3.org/2000/svg">
<path d="M685.292 226.2C687.088 226.764 688.572 228.214 689.091 230.173C693.761 247.684 689.928 265.872 678.584 280.074L415.308 609.546C402.95 625.006 383.863 632.801 364.239 630.392C344.608 628.006 327.979 615.816 319.729 597.842L124.021 171.192C115.829 153.33 117.181 133.634 127.725 117.155C129.422 114.501 132.968 113.725 135.593 115.422C138.244 117.119 139.022 120.652 137.32 123.296C128.914 136.446 127.837 152.168 134.382 166.429L330.101 593.074C336.684 607.431 349.976 617.14 365.637 619.067C381.31 620.981 396.558 614.76 406.421 602.415L669.687 272.949C678.75 261.616 681.803 247.098 678.08 233.123C677.267 230.079 679.078 226.952 682.12 226.136C683.201 225.849 684.298 225.888 685.292 226.2Z" fill="url(#paint0_linear_318_558)"/>
<path d="M318.778 544.58C443.262 583.678 575.733 514.45 614.868 389.846C653.962 265.374 584.903 132.706 460.418 93.6079C336.065 54.5511 203.422 123.869 164.328 248.341C125.192 372.945 194.424 505.523 318.778 544.58ZM427.037 199.89C492.848 220.56 529.501 290.662 508.811 356.536C488.122 422.41 417.931 459.091 352.12 438.421C286.309 417.751 249.819 347.564 270.508 281.69C291.198 215.817 361.219 179.218 427.037 199.89Z" fill="url(#paint1_radial_318_558)"/>
<path d="M651.462 190.734C669.859 196.512 684.04 211.212 689.099 230.176C689.913 233.22 688.101 236.346 685.059 237.162C682.025 237.981 678.9 236.177 678.081 233.123C673.66 216.546 660.539 204.052 643.788 200.502L184.819 103.33C166.25 99.3957 147.614 107.239 137.336 123.301C135.641 125.947 132.111 126.728 129.46 125.031C126.809 123.334 126.038 119.804 127.735 117.15C140.601 97.0526 163.928 87.2417 187.183 92.1639L646.16 189.339C647.96 189.727 649.728 190.189 651.462 190.734Z" fill="url(#paint2_linear_318_558)"/>
<defs>
<linearGradient id="paint0_linear_318_558" x1="140.168" y1="383.126" x2="699.261" y2="331.727" gradientUnits="userSpaceOnUse">
<stop stop-color="#FF598F"/>
<stop offset="1" stop-color="#FFC038"/>
</linearGradient>
<radialGradient id="paint1_radial_318_558" cx="0" cy="0" r="1" gradientUnits="userSpaceOnUse" gradientTransform="translate(441.615 413.788) rotate(-162.564) scale(374.267 374.626)">
<stop offset="0.1397" stop-color="#FFC038"/>
<stop offset="0.2289" stop-color="#FFB73F"/>
<stop offset="0.3724" stop-color="#FFA053"/>
<stop offset="0.5279" stop-color="#FF7F6F"/>
<stop offset="0.6595" stop-color="#FF5F8A"/>
<stop offset="0.6811" stop-color="#FF598F"/>
<stop offset="0.7271" stop-color="#F65794"/>
<stop offset="0.8013" stop-color="#DE50A1"/>
<stop offset="0.8128" stop-color="#DA4FA3"/>
<stop offset="0.9164" stop-color="#9D3FC4"/>
<stop offset="1" stop-color="#6931E0"/>
</radialGradient>
<linearGradient id="paint2_linear_318_558" x1="133.353" y1="191.443" x2="680.99" y2="141.097" gradientUnits="userSpaceOnUse">
<stop stop-color="#FF598F"/>
<stop offset="1" stop-color="#FFC038"/>
</linearGradient>
</defs>
</svg>
