<svg width="50" height="50" viewBox="0 0 50 50" fill="none" xmlns="http://www.w3.org/2000/svg">
<path d="M46.7923 12.5C45.1881 13.2292 43.459 13.7084 41.6673 13.9375C43.5006 12.8334 44.9173 11.0834 45.584 8.97921C43.8548 10.0209 41.9381 10.75 39.9173 11.1667C38.2715 9.37504 35.959 8.33337 33.334 8.33337C28.4382 8.33337 24.4381 12.3334 24.4381 17.2709C24.4381 17.9792 24.5215 18.6667 24.6673 19.3125C17.2507 18.9375 10.6465 15.375 6.25065 9.97921C5.47982 11.2917 5.04232 12.8334 5.04232 14.4584C5.04232 17.5625 6.60482 20.3125 9.02148 21.875C7.54232 21.875 6.16732 21.4584 4.95898 20.8334V20.8959C4.95898 25.2292 8.04232 28.8542 12.1257 29.6667C10.8147 30.0255 9.43835 30.0754 8.10482 29.8125C8.67066 31.5885 9.77885 33.1426 11.2736 34.2561C12.7684 35.3697 14.5745 35.9869 16.4382 36.0209C13.279 38.5218 9.36314 39.8736 5.33398 39.8542C4.62565 39.8542 3.91732 39.8125 3.20898 39.7292C7.16732 42.2709 11.8757 43.75 16.9173 43.75C33.334 43.75 42.3548 30.125 42.3548 18.3125C42.3548 17.9167 42.3548 17.5417 42.334 17.1459C44.084 15.8959 45.584 14.3125 46.7923 12.5Z" fill="#0668C1"/>
</svg>
