<svg width="240" height="87" viewBox="0 0 240 87" fill="none" xmlns="http://www.w3.org/2000/svg">
<g clip-path="url(#clip0_422_556)">
<path d="M24 30.2551C24.1116 30.1986 24.0897 30.0916 24.1006 29.9964C24.3098 28.1578 25.3717 26.9436 27.0403 26.2815C28.7577 25.6006 30.3337 25.9644 31.7761 27.1131C32.8918 28.0022 33.3192 29.143 33.373 30.5168C33.4527 32.5417 33.4457 34.5656 33.4238 36.5896C33.4188 37.0931 33.5852 37.1714 34.0424 37.1704C37.5101 37.1595 40.9778 37.1625 44.4445 37.1952C45.3868 37.2041 46.3412 37.1833 47.2706 37.3617C49.0896 37.7106 50.275 38.8058 50.7293 40.573C51.1736 42.3056 50.6257 43.7685 49.2839 44.9668C48.4202 45.738 47.3911 45.9362 46.2914 45.9481C42.211 45.9917 38.1307 46.0403 34.0504 46.0571C33.5414 46.0591 33.3989 46.188 33.4278 46.6855C33.4876 47.7352 33.4387 48.7868 33.5374 49.8404C33.6719 51.2726 35.4759 53.36 37.2929 53.4958C39.9447 53.694 42.5966 53.6286 45.2484 53.6672C46.1101 53.6801 46.9697 53.6781 47.8324 53.7366C50.6337 53.9259 53.2466 57.3682 51.1776 60.752C50.3368 62.1268 49.1414 62.8206 47.4957 62.8652C43.7631 62.9663 40.0314 62.9465 36.3017 62.8384C33.7745 62.7651 31.5859 61.7125 29.6075 60.2257C27.2027 58.4188 25.5013 56.0866 24.5658 53.2321C24.1664 52.014 24.1544 50.7314 24.1355 49.4697C24.0797 45.6666 24.0797 41.8635 24.0598 38.0595C24.0598 38.0109 24.0757 37.9623 24.0847 37.9138C24.0897 37.2428 24.1066 36.5717 24.0927 35.9007C24.0867 35.6331 24.1983 35.3447 23.999 35.0969C24 33.4833 24 31.8697 24 30.2551Z" fill="#33CBFE"/>
<path d="M24 35.0969C24.1992 35.3447 24.0877 35.6331 24.0936 35.9008C24.1076 36.5718 24.0907 37.2428 24.0857 37.9138C24.0568 37.8969 24.0289 37.8801 24.001 37.8632C24 36.9415 24 36.0187 24 35.0969Z" fill="#33CBFE"/>
<path d="M79.5386 45.3475C79.6701 46.9601 79.6302 48.5717 79.7319 50.1843C79.8604 52.2251 80.6742 53.2956 82.4564 53.9517C84.11 54.5603 85.8703 54.0132 87.0607 52.6037C87.6325 51.9268 87.6773 51.0873 87.7032 50.2686C87.7939 47.4061 87.8467 44.5426 87.9254 41.6792C87.9403 41.1212 87.9592 40.5562 88.0589 40.0081C88.3607 38.336 90.1339 36.8077 91.8752 36.6738C94.6286 36.4627 96.7305 38.3519 96.871 41.1846C96.9437 42.6495 96.856 44.1135 96.8262 45.5784C96.7933 47.1573 96.8421 48.7372 96.7634 50.3161C96.6767 52.0467 96.4795 53.7505 95.6706 55.3364C93.7938 59.0145 91.0384 61.7244 86.8963 62.6025C82.7991 63.4718 78.907 62.8543 75.529 60.1722C75.1594 59.8778 74.9094 59.9056 74.5478 60.1782C72.9748 61.3626 71.2773 62.3567 69.3119 62.6878C62.785 63.787 57.5033 61.3636 54.3434 55.0995C53.5883 53.6018 53.4777 51.9347 53.3881 50.2914C53.2506 47.759 53.2466 45.2226 53.3054 42.6882C53.3243 41.8517 53.3572 41.0121 53.4728 40.1786C53.7118 38.4431 55.1404 37.0069 56.9474 36.7303C59.2884 36.3735 60.8584 37.3349 61.8147 39.2132C62.2311 40.0319 62.1813 40.9467 62.2042 41.8289C62.271 44.4782 62.2919 47.1286 62.3437 49.7789C62.3536 50.3042 62.3546 50.8454 62.4821 51.3489C62.8129 52.6444 63.7204 53.471 64.9347 53.9418C67.3494 54.8775 70.3658 53.1023 70.5173 50.4668C70.6687 47.8184 70.6527 45.1701 70.6796 42.5207C70.6866 41.7971 70.6567 41.0657 70.7514 40.351C70.9725 38.6958 71.9039 37.5312 73.4649 36.9276C75.1096 36.2913 76.6178 36.6273 77.9736 37.7225C79.1351 38.6611 79.5506 39.911 79.5416 41.3491C79.5326 42.6813 79.5386 44.0144 79.5386 45.3475Z" fill="#33CBFE"/>
<path d="M177.921 62.9435C176.353 62.9028 174.297 62.8622 172.243 62.7938C170.541 62.7383 168.996 62.1228 167.569 61.2734C164.26 59.302 161.799 56.605 160.957 52.7722C159.985 48.3606 160.729 44.2562 163.701 40.7138C165.238 38.8821 167.31 37.8474 169.601 37.2507C173.808 36.1545 177.977 36.2803 181.93 38.1437C186.051 40.0874 188.389 43.4197 188.932 47.9423C189.021 48.6847 188.901 49.4231 188.649 50.1278C188.154 51.5105 187.157 52.1329 185.374 52.1805C182.058 52.2697 178.741 52.2885 175.424 52.2915C173.898 52.2925 172.372 52.3252 170.847 52.2985C170.367 52.2895 170.285 52.4749 170.333 52.8733C170.401 53.4522 170.791 53.81 171.204 54.142C172.113 54.8735 173.179 55.1788 174.332 55.2551C176.553 55.4018 178.775 55.3175 180.997 55.3591C182.14 55.38 183.285 55.4087 184.427 55.4652C186.1 55.5494 187.594 56.9222 187.865 58.5903C188.158 60.3942 187.24 62.0703 185.598 62.7096C185.064 62.9177 184.493 62.9316 183.933 62.9365C182.091 62.9524 180.25 62.9435 177.921 62.9435ZM179.475 46.2534C179.265 44.9916 178.468 44.2958 177.356 43.9024C175.609 43.2849 173.882 43.3721 172.167 44.059C171.332 44.393 170.751 44.9371 170.453 45.7895C170.354 46.074 170.337 46.2008 170.699 46.2028C171.677 46.2068 172.655 46.2464 173.632 46.2504C175.57 46.2583 177.509 46.2534 179.475 46.2534Z" fill="#33CBFE"/>
<path d="M136.767 40.918C136.767 38.0208 136.782 35.1227 136.759 32.2255C136.751 31.1382 136.691 30.0559 137.1 29.0142C138.075 26.5343 140.582 25.4302 143.173 26.2152C144.698 26.678 146.07 28.5979 146.167 30.1689C146.299 32.3246 146.248 34.4804 146.244 36.6362C146.243 37.0911 146.381 37.1744 146.803 37.1704C148.776 37.1536 150.751 37.1585 152.725 37.1833C153.619 37.1952 154.515 37.2418 155.391 37.446C157.5 37.9386 158.739 39.7336 158.603 42.0895C158.487 44.0837 156.935 45.6389 154.858 45.8758C152.278 46.1691 149.69 46.0264 147.105 46.0611C146.257 46.073 146.257 46.0631 146.257 46.9244C146.257 47.9939 146.221 49.0653 146.453 50.1199C146.859 51.9714 148.41 53.3035 150.309 53.4888C152.043 53.6583 153.785 53.6554 155.523 53.7317C157.06 53.7991 158.074 54.6118 158.905 55.7735C160.563 58.0908 159.501 60.7729 157.752 62.1357C157.104 62.6402 156.431 62.9009 155.572 62.8731C153.733 62.8137 151.89 62.8305 150.05 62.8781C147.602 62.9415 145.41 62.1892 143.398 60.8868C140.243 58.8461 138.131 56.0282 137.157 52.3996C136.977 51.7295 136.924 51.0397 136.897 50.3479C136.777 47.2069 136.816 44.0619 136.767 40.918Z" fill="#33CBFE"/>
<path d="M112.502 39.5641C112.496 36.5024 112.524 33.4407 112.614 30.381C112.682 28.0448 114.416 26.2032 116.705 26.0129C119.233 25.8028 121.347 27.2945 121.818 29.6445C121.912 30.1094 121.947 30.5911 121.957 31.0659C121.992 32.9084 122.021 34.752 122.018 36.5955C122.017 37.0108 122.153 37.1446 122.547 37.1446C123.675 37.1446 124.803 37.1565 125.93 37.1773C127.306 37.2021 128.682 37.2695 130.057 37.2675C132.347 37.2646 133.966 39.1131 134.286 40.8991C134.665 43.0133 133.192 45.3366 131.14 45.8153C130.672 45.9243 130.192 45.958 129.71 45.965C127.305 45.9996 124.901 46.0472 122.498 46.066C122.097 46.069 121.932 46.1533 121.978 46.5824C122.114 47.8571 121.972 49.1515 122.244 50.4162C122.57 51.9357 124.008 53.2539 125.572 53.4779C127.286 53.7227 129.013 53.6187 130.736 53.6762C132.713 53.7416 134.14 54.698 134.965 56.4623C136.015 58.7073 135.029 61.3765 132.811 62.4806C132.385 62.6927 131.929 62.7601 131.468 62.8018C128.702 63.0525 125.916 63.1447 123.194 62.6005C119.877 61.9375 117.271 60.0384 115.239 57.3801C113.539 55.155 112.66 52.6513 112.571 49.8334C112.46 46.409 112.542 42.9865 112.502 39.5641Z" fill="#33CBFE"/>
<path d="M191.457 53.5513C191.457 51.9228 191.414 50.2924 191.467 48.6649C191.543 46.3803 192.483 44.393 193.833 42.596C195.631 40.2034 197.983 38.56 200.87 37.6908C201.88 37.3865 202.93 37.3558 203.968 37.2983C206.253 37.1724 208.538 37.0891 210.827 37.2557C212.773 37.3974 214.41 38.675 214.853 40.4551C215.349 42.4533 214.569 44.3732 212.864 45.4139C212.169 45.8381 211.402 45.9263 210.623 45.9551C208.452 46.0334 206.282 46.0938 204.111 46.1572C201.761 46.2256 200.314 47.7084 200.2 50.0545C200.066 52.7693 200.155 55.485 200.089 58.1988C200.069 59.0175 200.042 59.8412 199.622 60.5945C198.835 62.0059 197.727 62.7899 196.024 62.9019C194.115 63.0277 192.873 62.1922 191.888 60.7154C191.43 60.0285 191.386 59.2584 191.375 58.4892C191.35 56.8439 191.367 55.1976 191.367 53.5513C191.397 53.5513 191.428 53.5513 191.457 53.5513Z" fill="#33CBFE"/>
<path d="M99.984 49.8889C99.984 47.5528 99.976 45.2156 99.988 42.8795C99.992 42.0578 100.024 41.2342 100.082 40.4145C100.206 38.6423 102.03 36.9038 103.957 36.658C105.908 36.4092 107.414 37.1645 108.6 38.6453C109.247 39.454 109.278 40.4492 109.322 41.4145C109.47 44.6864 109.42 47.9602 109.364 51.2339C109.326 53.4383 109.335 55.6436 109.309 57.8479C109.303 58.3901 109.28 58.9362 109.202 59.4715C108.969 61.0385 107.139 62.7096 105.538 62.8444C104.994 62.89 104.451 62.9058 103.902 62.8691C103.216 62.8226 102.622 62.5926 102.063 62.2071C100.538 61.1564 99.9412 59.7103 99.983 57.8866C100.044 55.2224 99.9989 52.5562 99.9989 49.8899C99.993 49.8889 99.989 49.8889 99.984 49.8889Z" fill="#33CBFE"/>
<path d="M99.9372 29.6039C99.8246 27.356 101.978 24.9207 104.64 25.002C107.306 25.0833 109.396 27.0477 109.398 29.6366C109.399 32.1363 107.179 34.3099 104.629 34.306C102.043 34.303 99.9332 32.1879 99.9372 29.6039Z" fill="#33CBFE"/>
</g>
<defs>
<clipPath id="clip0_422_556">
<rect width="191" height="38" fill="white" transform="translate(24 25)"/>
</clipPath>
</defs>
</svg>
